<svg xmlns="http://www.w3.org/2000/svg" width="308.927" height="148.718" viewBox="0 0 308.927 148.718">
  <g id="Group_269" data-name="Group 269" transform="translate(-828.613 -4825.217)">
    <path id="Path_2837" data-name="Path 2837" d="M47.2.011C66.2-.372,84.786,9.449,93.381,26.4c7.966,15.71.786,33.443-8.145,48.625-8.763,14.9-20.756,29.82-38.038,29.884-17.359.064-30.032-14.464-38.53-29.6C.39,60.563-3.57,43.25,4.132,28.2,12.509,11.829,28.813.382,47.2.011" transform="translate(1000.767 4835.498) rotate(85)" fill="#f1ac22"/>
    <g id="Group_268" data-name="Group 268" transform="translate(828.613 4825.217)">
      <path id="Path_2757" data-name="Path 2757" d="M341.37,204.43a13.21,13.21,0,0,1-2.2.719c-4.155.625-8.331,1.124-12.479,1.793a51.467,51.467,0,0,1-10.3.707c-4.2-.171-8.4-.475-12.6-.823-4.252-.353-8.5-.8-12.739-1.263-4.7-.515-9.394-1.124-14.1-1.64-1.917-.21-3.847-.293-5.773-.413-6.066-.378-12.134-.728-18.2-1.126a47.511,47.511,0,0,0-11.349.739c-1.671.293-3.364.467-5.022.814-3.315.692-6.612,1.478-9.921,2.2-3.022.663-6.054,1.282-9.075,1.95-1.6.353-3.175.792-4.771,1.146-1.424.315-2.861.57-4.293.846-.459.088-.934.113-1.379.246a75.651,75.651,0,0,1-14.159,2.307c-1.912.19-3.817.471-5.716.773a34.615,34.615,0,0,1-7.663.436,36.462,36.462,0,0,0-4.177.22,6.339,6.339,0,0,1-1.394-.016,47.835,47.835,0,0,0-9.275-.38c-3.557.076-7.129-.124-10.669.14a46.484,46.484,0,0,0-10.665,1.853,19.366,19.366,0,0,0-6.622,3.051c-1.414,1.143-2.919,2.262-2.852,4.355a3.6,3.6,0,0,0,.429,1.824,8.144,8.144,0,0,0,3.72,3.323c3.609,1.386,7.245,2.784,11.178,2.708,2.91-.056,5.813.1,8.731.019,6.24-.184,12.031-2.276,18.013-3.538,2.913-.615,5.763-1.549,8.689-2.075a49.2,49.2,0,0,1,6.457-.448c1.283-.058,2.572-.043,3.857,0s2.561.154,3.839.264c3.783.325,7.567.636,11.345,1.008,2.909.287,5.8.745,8.716.972,4.547.353,9.1.653,13.658.814,2.211.078,4.434-.225,6.654-.323,4.966-.221,9.936-.362,14.9-.651,3.969-.23,7.939-.525,11.888-.977,7.958-.912,15.9-1.927,23.848-2.961a37.549,37.549,0,0,0,4.079-1,59.466,59.466,0,0,1,5.944-1.425,59.711,59.711,0,0,0,9.312-2.425,56.9,56.9,0,0,1,16.811-2.068c7.2-.023,14.312.993,21.465,1.562,4.758.379,9.537.959,14.355.337,2.828-.366,5.715-.251,8.566-.479a19.883,19.883,0,0,0,7.978-2.451,4.865,4.865,0,0,1,.91-.52c1.688-.472,2.3-1.761,2.8-3.286a2.428,2.428,0,0,0-.792-2.792,8.166,8.166,0,0,0-3.517-1.852c-2.285-.682-4.586-1.309-6.888-1.933a13.772,13.772,0,0,0-1.721-.285,56.983,56.983,0,0,0-15.722-.009,50.076,50.076,0,0,1-5.258.12c-1.34.043-2.678.217-4.017.216A25.46,25.46,0,0,1,341.37,204.43Z" transform="translate(-131.6 -82.248)"/>
      <path id="Path_2758" data-name="Path 2758" d="M112.941,43.017c.165.214.294.565.5.62,1.464.387,2.939.74,4.422,1.046a1.824,1.824,0,0,0,1.817-.284,1.253,1.253,0,0,1,1.092.039c1.19.607,2.357,1.268,3.5,1.963,1.391.846,2.73,1.778,4.126,2.616,1.045.625,1.742,1.352,1.408,2.691-.111.446,0,.947-.111,1.394a2.581,2.581,0,0,1-1.462,2.04c-2,.817-3.975,1.706-5.98,2.516-.66.266-1.392.694-2.011-.214-.087-.128-.98.057-.991.153a3.064,3.064,0,0,0,.118,1.639c.282.549.878.362,1.4.135,2.938-1.276,5.873-2.56,8.842-3.76a2.77,2.77,0,0,1,1.675.069c2.574.763,5.127,1.6,7.694,2.39,1,.308,2.038.522,3.038.842,1.045.334,2.058.766,3.1,1.111.773.255,1.568.441,2.354.655q2.7.734,5.4,1.466c1.35.363,2.693.759,4.056,1.062a21.047,21.047,0,0,1,3.937,1.4c2.125.937,4.4,1.532,6.6,2.3,1.032.363,2.023.847,3.06,1.193.522.174,1.119.114,1.661.244,1.307.312,2.628.6,3.9,1.027a113.022,113.022,0,0,0,13.81,3.9c.1.02.181.126.43.308-.9.112-1.661.227-2.427.3-5.64.546-11.284,1.072-16.923,1.631-2.906.288-5.8.652-8.71.947-4.65.472-9.306.879-13.953,1.379-6.1.656-12.2,1.33-18.291,2.083-4.637.574-9.248,1.372-13.889,1.9-4.122.471-8.271.7-12.405,1.059-1.565.137-3.119.406-4.686.52-4.547.331-9.1.57-13.647.933-3.03.241-6.054.582-9.069.972-2.837.367-5.66.849-8.486,1.295A3.162,3.162,0,0,0,65.182,88.3a16.537,16.537,0,0,1-1.792,2.38l2.091.3a6.615,6.615,0,0,1-2.715,3,26.058,26.058,0,0,0-5.58,4.736,10.841,10.841,0,0,0-2.811,5.54c1.487.6,1.71.567,2.192-.509a17.751,17.751,0,0,1,6.106-6.853c1.122-.829,2.475-1.346,3.59-2.183A43.2,43.2,0,0,0,70.2,91.27a2.387,2.387,0,0,1,2.66-.85l-1.2,2.389,1.7.693c-.556,1.662-2.01,2.508-3.21,3.575A14.965,14.965,0,0,0,65.68,104a1.8,1.8,0,0,0,.053.647c1.887.321,1.845.3,2.462-1.235a12.174,12.174,0,0,1,3.928-5.038C73.863,97,75.585,95.6,77.23,94.121a6.56,6.56,0,0,0,1.508-2.127,2.652,2.652,0,0,1,2.931-1.683c2.679.23,5.355.479,8.033.722,7.695.7,15.256,2.272,22.868,3.509,2.648.43,5.239,1.208,7.88,1.688,5.346.97,10.7,1.876,16.065,2.754,7.5,1.228,15.007,2.372,22.5,3.625,2.532.424,5.026,1.077,7.54,1.615a82.388,82.388,0,0,0,14.956,1.756c7.3.2,14.6.222,21.905.3a9,9,0,0,1,2.484.122c-1.53,1.021-3.018,2.112-4.6,3.051a207.066,207.066,0,0,0-17.315,11.594,1.907,1.907,0,0,0-.557.635q-2.591,5.068-5.146,10.153a9.542,9.542,0,0,0-.413,1.3,5.867,5.867,0,0,0,1.255.121c2.719-.385,5.435-.8,8.15-1.21.706-.107,1.343-.172,1.368-1.214.011-.466.58-.979.993-1.366,2.9-2.712,5.833-5.4,8.752-8.091q8.185-7.551,16.372-15.1a7.38,7.38,0,0,1,4.272-1.822,37.139,37.139,0,0,0,4.85-.745,5.963,5.963,0,0,1,4.563.633c3.006,1.682,5.929,3.512,8.927,5.209,2.39,1.353,4.852,2.579,7.263,3.9,4.668,2.55,9.344,5.087,13.976,7.7,3.969,2.24,7.856,4.624,11.828,6.859,2.239,1.26,4.563,2.373,6.872,3.5,1,.49,2.007.906,1.861,2.23.882.284,1.146-.3,1.5-.752,1.081-1.378,2.185-2.736,3.254-4.122.961-1.247,1.878-2.528,2.832-3.781,1.664-2.183,3.262-4.422,5.027-6.52,3.536-4.2,7.161-8.335,10.762-12.485a40.962,40.962,0,0,1,3.3-3.592,5.83,5.83,0,0,1,2.332-1.023,17.332,17.332,0,0,1,2.422-.344c3.645-.481,7.3-.912,10.933-1.456,3.522-.527,7.035-1.131,10.539-1.77a8.46,8.46,0,0,0,6.642-5.379,13.59,13.59,0,0,0,.76-4.427,28.89,28.89,0,0,0-.416-4.192c1.715.313,3.645-.314,5.133,1.266a.81.81,0,0,0,.438.28c2.378.171,3.34,2.251,4.872,3.566a7.831,7.831,0,0,0,2,1.358c4.193,1.729,7.125.162,9.089-3.916a29.157,29.157,0,0,0,2.576-15.359,18.327,18.327,0,0,0-5.2-11.415,4.772,4.772,0,0,0-4.825-1.282c-.506.119-.974.449-1.481.516-2.318.3-3.585,1.917-4.481,3.781-1.008,2.1-1.765,4.321-2.587,6.506-.245.65-.266,1.419-1.225,1.425-.872,1.506-2.481,1.55-3.9,1.917-3.558.919-7.109,1.885-10.7,2.628-2.258.467-4.592.563-7.117.852a14.218,14.218,0,0,1,.326-2.114c1.181-3.6,2.4-7.191,3.617-10.777.485-1.426.038-2.044-1.942-2.391q-2.466,5.182-5,10.515l-8.959-2.571c-.661,1.364-.914,2.484.157,3.533a2.689,2.689,0,0,1,.193-2.491l5.75,2.489v4.866l-2.094.513c-1.037-1.7.031-3.542-.806-5.114a24.751,24.751,0,0,0-.266,3.774c0,.944-.192,1.735-1.209,2.065a22.048,22.048,0,0,0,2.244-.044c1.72-.2,3.43-.481,5.147-.7.767-.1,1.55-.076,2.311-.2,1.6-.26,3.181-.652,4.786-.863a74.484,74.484,0,0,0,13.738-2.653c1.372-.451,2.784-.778,4.352-1.211.263,2.069.414,4.037.783,5.962.374,1.948.963,3.855,1.472,5.836a4.268,4.268,0,0,1-.6-.005.716.716,0,0,1-.319-.135,5.8,5.8,0,0,0-4.35-1.485,10.781,10.781,0,0,1-2.073-.321,15.287,15.287,0,0,0-2.764-.33c-3.206.14-6.406.418-9.611.576-5.77.283-11.543.492-17.312.78-2.855.142-5.7.506-8.558.563-4.138.083-8.238.944-12.4.545a13.613,13.613,0,0,0-2.437.173c-2.427.216-4.855.437-7.362.664V83.468c2.652-.468,5.233-.922,7.813-1.381,1.089-.194,2.173-.4,3.261-.6a20.721,20.721,0,0,1,4.122-.687,17.759,17.759,0,0,0,3.453-.3c1.207-.2,2.423-.368,3.64-.486,1.8-.175,3.614-.254,5.413-.45a20.784,20.784,0,0,1,3.094-.517,3.139,3.139,0,0,0,2.21-.767c-.875-.131-1.035-.778-1.116-1.512-.17-1.541-.365-3.081-.549-4.621-.031,1.568-.054,3.138-.1,4.705-.038,1.437-.108,1.641-1.52,1.834-2.881.394-5.784.617-8.67.98-3.633.456-7.257.977-10.884,1.481-3.4.473-6.793.958-10.27,1.45l-.909-1.779c.676-.462,1.277-.887,1.893-1.289.674-.441,1.362-.861,2.044-1.29l.047.039a1.775,1.775,0,0,0-1.949-.2,9.205,9.205,0,0,1-2,.639c-1.181.29-1.334.136-1.464-1.384,3.068-1.279,6.54-1.94,8.567-5.15-.517-.538-1.157-.394-1.764-.358-2.214.131-4.426.3-6.642.387-.982.037-1.972-.1-3.153-.166-.618-1.65-1.181-3.294-1.852-4.893a33.772,33.772,0,0,0-1.593-3.1c-.361-.66-.786-1.285-1.181-1.923.426-.769.873-1.456,1.206-2.194,1.254-2.781.138-4.73-2.24-5.962a5.13,5.13,0,0,0-7.447,3.2,2.462,2.462,0,0,1-1.829,1.808,8.366,8.366,0,0,0-5.923,7.114c-.274,1.726-.647,3.452-.013,5.2a2.121,2.121,0,0,1-.056,1.2,7.166,7.166,0,0,0-.139,4.6c-1.654.076-3.04.135-4.427.2-4.144.206-8.29.385-12.432.639-1.789.11-2.5-.214-3.372-1.77A54.559,54.559,0,0,1,229,71.29c-.509-1.187-1.762-1.445-2.339-2.609-.907.706-1.779.456-2.755.234-2.218-.506-4.489-.774-6.732-1.177q-8.109-1.457-16.212-2.953c-4.8-.893-9.638-1.664-14.384-2.8-2.768-.662-5.61-.789-8.353-1.566-2.7-.764-5.441-1.368-8.194-1.9-2.923-.566-5.9-.877-8.815-1.46-3.781-.756-7.538-1.643-11.294-2.522-5.176-1.211-10.33-2.518-15.515-3.686-3.315-.748-6.108-2.493-8.907-4.272-2.708-1.72-5.438-3.408-8.133-5.147-1.318-.851-2.569-1.806-3.874-2.676-.426-.284-.834-.956-1.544-.234,1.531,2.4,4.5,3.143,6.48,5.515l-5.526-.981Zm31.5,37.392a9.465,9.465,0,0,1-.336,3.755,11.514,11.514,0,0,1-3.272-4.207c.993-.127,1.739-.2,2.477-.321.683-.108.915.366,1.168.833-.165-.81.336-1.02.985-1.1,2.142-.258,4.285-.507,6.425-.775a8.654,8.654,0,0,1,3.606-.138,5.936,5.936,0,0,1,.405,4.007,76.744,76.744,0,0,1-10.941,1.207C144.767,82.464,144.6,81.439,144.44,80.41ZM132.293,53.016c1.751-.083,3.506-.263,5.253-.214a7.219,7.219,0,0,1,3.375.688c.882.523.527,1.8.433,2.784a.934.934,0,0,0,.034.517,4.962,4.962,0,0,0,.558.663l.334-.1c.035-1.168.07-2.334.106-3.518a4.053,4.053,0,0,1,.739.005q5.692,1.435,11.379,2.887c1.018.26.953,1,.816,1.885a10.947,10.947,0,0,1-1.373.274c-2.214.158-4.428.331-6.646.4a7.314,7.314,0,0,1-2.209-.4c-1.009-.294-1.987-.69-2.982-1.033-3.31-1.141-6.625-2.266-9.927-3.427a7.171,7.171,0,0,1-1.267-.824l1.443-.624-1.343-.236L131.5,51.2l3.423.855-.042.323Zm91.372,44.72.2,2.509-3.021.887c1.288.715,2.778-.413,3.851,1.26.106-1.048.511-1.362,1.276-1.426,2.617-.22,5.226-.522,7.839-.775.732-.071,1.47-.078,2.293-.119a26.992,26.992,0,0,1,.238,7.444c-1.9-.988-3.632-1.719-5.179-2.73a10.242,10.242,0,0,0-8.687-1.372,9.3,9.3,0,0,1-4.693.234,40.982,40.982,0,0,1,5.91-5.879c3.523-3.608,6.785-7.515,11.62-10.258-.293,1.334-.437,2.353-.754,3.316A1.112,1.112,0,0,0,235,92.313c.391.282.908.726.93,1.121.1,1.789.044,3.587.044,5.485-3.863.443-7.634,1.083-11.244,1.189C224.3,99.15,223.977,98.438,223.665,97.736Zm53.29,19.216c-2.281-1.479-4.242-2.857-6.3-4.066-4.575-2.686-9.223-5.249-13.8-7.939-2.767-1.628-5.458-3.385-8.164-5.115-1.721-1.1-3.408-2.253-5.1-3.392-.872-.586-1.74-1.179-2.593-1.792-1.468-1.053-2.94-2.1-4.372-3.206a1.371,1.371,0,0,1-.536-.987c.125-1.255.375-2.5.576-3.723,1.225-.068,2.323-.156,3.424-.186,4.085-.113,8.172-.219,12.258-.3a2.871,2.871,0,0,1,2.219.848,28.465,28.465,0,0,0,5.948,4.546,14.474,14.474,0,0,0,10.781,1.68,2.852,2.852,0,0,1,2.37.036c1.225.793,2.495,1.516,3.751,2.26a40.03,40.03,0,0,0,6.225,2.571c-2.76-2.5-6.1-4.375-7.486-8.216a8.633,8.633,0,0,1-6.653,3.378,13.369,13.369,0,0,1-9.035-2.711c-2.144-1.513-4.27-3.055-6.354-4.649a2.861,2.861,0,0,0-1.9-.7q-3.244.082-6.49.111c-.629.007-1.26-.054-1.874-.083-.549-2.269-1.067-4.412-1.624-6.72.975-.1,1.891-.237,2.811-.288a41.092,41.092,0,0,0,5.074-.262,2.935,2.935,0,0,1,3.184,1.125,7.474,7.474,0,0,0,4.3,2.517,3.146,3.146,0,0,0,3.832-2.239,8.989,8.989,0,0,0-1.489.631,3,3,0,0,1-2.984.164,7.931,7.931,0,0,1-3.482-2.847c-1.585-2.108-1.26-3.7.734-5.22a3.953,3.953,0,0,1,6.207,1.347,10.952,10.952,0,0,0,.723.956,4.1,4.1,0,0,0-1.609-2.983,1.946,1.946,0,0,1-.372-2.525,12.1,12.1,0,0,0,.517-1.408c-.7-.161-1.246-.3-1.8-.415a3.053,3.053,0,0,1-2.719-2.129c-.385-1.516-.416-3.093.917-4.2a6.639,6.639,0,0,1,4.313-1.72,9.388,9.388,0,0,1,7.676,3.926,21.273,21.273,0,0,1,4.151,10.3c.546,0,1.11.042,1.665-.008,2.213-.2,4.422-.44,6.635-.639a6.23,6.23,0,0,1,3.212.121,16.429,16.429,0,0,1-2.615,1.9,28,28,0,0,1-4.92,1.751,3.6,3.6,0,0,1-3.846-.892l3.514-.749-.084-.462-5.716.527a7.985,7.985,0,0,0,1.344,1.437,17.783,17.783,0,0,0,2.1.857,2.615,2.615,0,0,1,1.023.544c.729.889,1.378,1.844,2.045,2.756a3.58,3.58,0,0,1-.407.54c-2.173,1.79-2.291,3.735.187,6.036a2.563,2.563,0,0,1,.87,2.106,2.333,2.333,0,0,0,.675-1.032c.248-1.264,1.072-1.647,2.247-1.751,2.152-.189,4.3-.46,6.444-.716a6.923,6.923,0,0,1,3.811.661,27.078,27.078,0,0,0-1.43,4.051c-.857,4.656,2.93,9.169,6.046,10.5a34.591,34.591,0,0,0,3.623,1.3,1.288,1.288,0,0,1,1.039,1.033c.119.609.192,1.226.307,1.994-3.035.077-5.843.617-8.805.317,0-1.029-.045-1.9.012-2.76s1.412-1.258.88-2.64c-1.814,1.982-3.42,3.883-5.183,5.624-1.779,1.756-3.059,3.912-4.858,5.657S278.644,115.078,276.955,116.952Zm67.948-44.5a8.248,8.248,0,0,1,.786-4.622,63.864,63.864,0,0,1,3.187-6.144c.923-1.6,2.672-1.938,4.288-2.43a4.373,4.373,0,0,1,4.646,1.2,16.4,16.4,0,0,1,4.792,11.84,26.3,26.3,0,0,1-1.233,9.5c-.908,2.513-1.757,5.069-3.982,6.854a5.35,5.35,0,0,1-7.03-.087,8.465,8.465,0,0,1-2.623-3.819c-.59-1.755-1.587-3.4-1.977-5.187A69.112,69.112,0,0,1,344.9,72.447ZM226.7,76.472c.975-.226,1.871-.454,2.776-.636a1.277,1.277,0,0,1,1.429.754,7.853,7.853,0,0,0,1.44,1.963,2.883,2.883,0,0,0,1.855.68c2.029-.126,4.048-.42,6.068-.67a1.18,1.18,0,0,1,1.456,1.141,18.439,18.439,0,0,1-.057,2.531,26.5,26.5,0,0,1-3.735.631,2,2,0,0,0-2.2,1.466A6.387,6.387,0,0,1,232.936,88c-2.022,1.161-4.035,2.351-5.959,3.666-3.328,2.274-6.605,4.623-9.856,7.005a9.152,9.152,0,0,1-3.776,1.755c-1.607.292-3.235.473-4.855.7-.846.119-1.694.232-2.541.347,2.212.559,4.358-.419,6.629-.022-2.443,3.661-8,4.6-11.121,3.566l-.263-2.675,2.817-.719a57.057,57.057,0,0,1-11.747-.508c1.942-.705,3.881-1.287,5.839-1.8a82.391,82.391,0,0,0,16.218-6.074,104.991,104.991,0,0,0,14.232-8.234,44.755,44.755,0,0,0,4.372-3.977c.485-.454.46-.914-.369-1.4-.777.753-1.581,1.572-2.429,2.342a9.609,9.609,0,0,1-3.024,2.225C226.964,81.538,226.835,79.063,226.7,76.472Zm-41.32,15.553a32.984,32.984,0,0,1,.233,8.708l-1.056.727a3.234,3.234,0,0,0,2.718.752,44.788,44.788,0,0,1,9.262.176c1.21.084,2.425.089,3.754.133.17.949.319,1.775.506,2.811-4.542.394-8.812-.069-13.036-.1l-.643-2.472c-1.162.554-.344,1.623-1.06,2.427-4.593-.358-9.357-.285-14.044-1.329-.167-3.5-.324-6.794-.493-10.331A134.743,134.743,0,0,1,185.379,92.025Zm66.457,16.317c1.944-.206,3.847-.433,5.757-.6a5.05,5.05,0,0,1,3.641.944,14.945,14.945,0,0,0,2.391,1.462,2.288,2.288,0,0,1,1.4,2.222c0,.129.14.256.258.457l.409-1.422c3.332,1.874,6.835,3.191,9.6,6.1a30.652,30.652,0,0,1-9.341.7c-.151-1.266-.284-2.385-.416-3.5l-.221.02c-.091,1.134-.181,2.269-.269,3.376-2.551.281-4.918.56-7.289.784a2.239,2.239,0,0,1-1.162-.279c-1.14-.593-2.244-1.252-3.375-1.864a1.817,1.817,0,0,1-1.155-1.6,14.157,14.157,0,0,0-.366-3.111A6.318,6.318,0,0,1,251.836,108.342ZM171.236,81.8c1.908-.606,12.846-1.617,14.112-1.258V91c-4.651.517-9.294,1.1-14.112,1.35Zm14.679-1.729c4.649-.426,8.928-1.284,13.472-1.24.076,3.688,1.037,7.113.268,10.712-4.289.98-8.651.781-13.062,1.42A107.1,107.1,0,0,1,185.915,80.069Zm-15.662,12.54a70.95,70.95,0,0,1-12.807,1.337,5.452,5.452,0,0,1-.459-1.38c-.1-2.619-.194-5.241-.181-7.861.006-1.275.22-1.365,1.614-1.551,2.945-.392,5.886-.813,8.834-1.184.906-.114,1.826-.107,2.841-.161C170.651,85.452,170.308,88.932,170.253,92.609ZM294.67,85.785a4.4,4.4,0,0,1-.251.454,5.01,5.01,0,0,1-.542.687c-2.172,2.12-2.427,4.716-1.7,7.452a5.6,5.6,0,0,0,5.7,4.525,17.067,17.067,0,0,0,2.62-.123c1.793-.19,3.582-.422,5.371-.649,4.862-.615,9.72-1.255,14.585-1.838.893-.107,1.819.078,2.717-.009.977-.094,1.94-.347,2.909-.532,1.772-.339,3.564-.6,5.309-1.041a6.5,6.5,0,0,0,4.809-5.065,8.193,8.193,0,0,0-.505-6.177c.448.034.757-.039.878.08.914.9,1.811,1.83,1.758,3.266a20.157,20.157,0,0,0-.04,2.8c.311,2.981-3.01,6.769-5.81,7.234-4.375.726-8.733,1.571-13.118,2.231-3.228.485-6.485.794-9.736,1.106-3.009.289-6.024.534-9.041.695-4.01.214-7.084-1.654-9.451-4.706-1.945-2.509-1.86-5.357-.658-8.131C291.354,86.007,292.435,85.545,294.67,85.785Zm-81.439,2.737c-3.085.639-11.129,1.094-12.347.727-.107-3.408-.213-6.8-.323-10.277l12.669-1.017ZM200.785,75.379a30.94,30.94,0,0,1-.3-9.306c1.683-.285,11.028,1.382,12.577,2.253a41.391,41.391,0,0,1-.2,8.616c-4.143.223-8.108.865-12.29.871l.207-1.724,3.184.576L204,76.42Zm13.639,2.394,11.08-1.146c.151,3.056.294,5.937.44,8.9a101.858,101.858,0,0,1-11.336,6.346v-2.5c1.8-.626,3.694.419,5.433-1.064h-5.617ZM322.1,84.2c3.179-.242,6.363-.531,9.554-.713,2.7-.154,4.114,1.336,3.879,4.052a11.34,11.34,0,0,1-.609,2.9,4.745,4.745,0,0,1-2.892,3.086,26.337,26.337,0,0,1-7.725,1.295c-1.2.048-1.374-.26-1.525-1.569-.226-1.961-.516-3.917-.829-5.867A5.661,5.661,0,0,1,322.1,84.2ZM279.79,118.643a2.087,2.087,0,0,1,.214.557c.111,3.784.218,7.568.3,11.352a3.537,3.537,0,0,1-.372,1.03c-1.089-.591-2.056-1.114-3.021-1.64-3.168-1.726-6.328-3.465-9.507-5.17a1.98,1.98,0,0,1-1.06-1.461,8.441,8.441,0,0,1-.026-4C270.8,119.291,275.249,118.162,279.79,118.643Zm-92.751-17.966c-.745-2.968-.467-5.766-.383-8.594,4.479-.464,8.727-1.063,13.243-1.3.124,2.384.238,4.571.355,6.83A54.909,54.909,0,0,1,187.039,100.676Zm63.606,6.971c-2.071.154-3.864.279-5.656.421-1.86.149-3.729.244-5.575.495-1.4.191-1.745.021-1.864-1.408-.13-1.57-.275-3.14-.372-4.712-.05-.8-.009-1.6-.009-2.369,1.644-.383,3.1-.816,4.588-1.04a5.64,5.64,0,0,1,3.6.331c1.237.657,2.465,1.335,3.722,1.952a2.138,2.138,0,0,1,1.314,1.908C250.482,104.613,250.554,106,250.645,107.647ZM199.454,65.591v9.24a5.346,5.346,0,0,1-.822-.053c-2.25-.557-4.494-1.133-6.743-1.689-1.642-.405-3.283-.814-4.936-1.172-.722-.156-1.2-.509-1.229-1.249-.045-1.139-.012-2.282-.012-3.559C190.388,66.585,194.774,65.342,199.454,65.591Zm81.366,51.751c-.429-1.911-.286-3.376,1.04-4.714,1.511-1.524,2.829-3.238,4.25-4.852a1.692,1.692,0,0,1,.829-.606c1.122-.184,2.261-.271,3.568-.413a68.681,68.681,0,0,1,.283,10.268Zm35.945-32.658c.1,3.689.5,7.364-.241,10.968-.411.09-.578.146-.748.162-1.578.146-1.635.1-1.8-1.526-.105-1.044-.2-2.089-.318-3.131-.09-.812-.226-1.619-.3-2.432-.071-.794-.088-1.593-.128-2.389-.576,3.187.259,6.392-.478,9.66l-2.493.371c-1.011-1.919-1.615-9.848-.878-11.682ZM225.657,75.6c-4.07.218-7.785.823-11.611.92V68.194l11.3,2.042C225.451,72.038,225.547,73.708,225.657,75.6ZM156.342,59.3c4.7-.712,9.177-1.089,13.675.393a21.245,21.245,0,0,1,.312,7.3l-13.544-4.635C156.633,61.3,156.51,60.45,156.342,59.3Zm15.284,8c.143-2.544-.83-4.861-.149-7.469,1.925.457,3.781.9,5.639,1.339,1.759.414,3.5.92,5.282,1.207,2.36.38,2.5.449,2.458,2.847-.007.341-.086.68-.164,1.254-2.68.181-5.343.4-8.011.521a3.277,3.277,0,0,0-2.794,1.1Zm41.581,22.255c.086.489.177.883.219,1.281.176,1.631.173,1.637-1.357,2.354-1.318.617-2.615,1.288-3.97,1.81-2.161.833-4.362,1.563-6.741,2.4-.055-2.393-.855-4.455-.4-6.725C205.112,90.488,209.08,89.442,213.207,89.547ZM281.382,129.9c-.345-4.035-1.077-7.7-.454-11.375,2.4-.673,8.587-1.023,9.871-.524C287.465,121.7,285.2,126.173,281.382,129.9Zm13.306-33.759c-3.9-3.689-1.74-8.725,2.271-10.4,2.062-.864,4.525-.728,7.161-.463-.675.895-1.159,1.6-1.706,2.246-1.5,1.781-3.013,3.558-4.562,5.3C296.855,93.941,295.785,95,294.687,96.143ZM156.059,83.613c.1,3.216.2,6.381.307,9.935-2.172-1.484-4.072-2.7-5.875-4.037-1.823-1.356-3.55-2.841-5.651-4.538,3.667-.469,6.887-.882,10.107-1.29C155.232,83.646,155.522,83.645,156.059,83.613Zm.367-5.479c2.419-.217,4.615-.41,6.811-.612,2.222-.2,4.409-.928,6.8-.592v3.7c-4.371.536-8.61,1.511-13.081,1.711C156.781,80.95,156.623,79.693,156.426,78.134Zm14.294-1.4,14.409-1.31c.08,1.334.148,2.45.223,3.705L171.014,80.5C170.918,79.261,170.829,78.129,170.72,76.731Zm129.872,29.693c-.709,1.484-7.371,9.1-8.61,9.8l-.735-9.648c2.879-.222,5.591-.451,8.308-.615C299.889,105.941,300.246,106.262,300.592,106.424Zm-1.7-13.652c.884-1.718,1.879-2.889,3.867-2.633a5.9,5.9,0,0,0,1.522-.328c.492-.081,1-.094,1.38-.127,1.611,2.285.757,4.646,1.008,7.02l-6.5.729a7.73,7.73,0,0,1-.613-2.426A2.767,2.767,0,0,0,298.889,92.772ZM183.961,131.093c1.33-3.92,2.555-7.542,3.8-11.159a1.187,1.187,0,0,1,.438-.527c.939-.66,1.895-1.3,3.047-2.078a7.19,7.19,0,0,1-.012,1.435c-.87,3.437-1.725,6.88-2.689,10.292a2.363,2.363,0,0,1-1.95,1.8C185.853,130.961,185.1,130.994,183.961,131.093Zm-13.222-30.826c-2.158.112-9.35-3.249-11.392-5.316l10.813-1.17C171.108,96.007,170.681,98.152,170.738,100.267Zm15.127-24.91c1.25-.1,2.279-.222,3.311-.254a55.868,55.868,0,0,0,5.76-.141,9.278,9.278,0,0,1,4.584.871l-.181,1.868-13.308,1.293C185.975,77.756,185.929,76.731,185.866,75.357ZM317.921,95.536a3.911,3.911,0,0,1-.239-.759c-.048-2.56-.08-5.122-.122-7.683-.046-2.823.257-3.1,3.106-2.825.1.01.186.129.377.269.388,3.36,1.089,6.779.664,10.423Zm-67.268,13.109c.1,2.173.2,4.354.3,6.6a56.6,56.6,0,0,1-10.641-5.848C241.939,108.861,249.232,108.319,250.653,108.645Zm-49.865,2.479a15.685,15.685,0,0,1-.228,2.065c-.4,1.51-.988,2.98-1.277,4.509-.543,2.857-3.091,3.836-4.874,5.583a24.02,24.02,0,0,1,.518-4.136c.312-1.417.715-2.816,1.151-4.2a2.64,2.64,0,0,1,.805-1.315C198.038,112.795,199.279,112.078,200.788,111.124Zm8.3-5.1c-.3,1.769-.533,3.194-.781,4.616a.557.557,0,0,1-.185.29q-2.069,1.8-4.145,3.6c-.065-.924.263-1.658.239-2.38C204.105,108.924,206.092,107.374,209.089,106.026ZM176.069,68.095c1.394-.109,2.787-.231,4.181-.324,1.44-.1,2.882-.162,4.408-.247.179,1.309.369,2.442-.445,3.629C181.465,70.316,178.586,69.885,176.069,68.095ZM257.885,107l-.033.333c-1.932.087-3.864.189-5.8.238a.829.829,0,0,1-.648-.455c-.286-1.438-.862-2.865-.369-4.607Zm-21.09-12.857a13.355,13.355,0,0,1,6.115,4.03l-5.756.738C237.022,97.157,236.909,95.668,236.794,94.141ZM185.523,63.159c3.115-.132,5.716.95,8.424,1.514l-.018.482-8,1.037C185.779,65.083,185.666,64.233,185.523,63.159ZM323.7,63.74a2.718,2.718,0,0,1,.089.651q-1.552,5.555-3.118,11.106a.894.894,0,0,1-1.258.7,4.954,4.954,0,0,1,.215-3.037c.664-1.855,1.464-3.663,2.245-5.474C322.408,66.435,323.011,65.212,323.7,63.74ZM265.15,119.553a8.409,8.409,0,0,1-.1,3.794,34.2,34.2,0,0,1-6.006-3.534A12.03,12.03,0,0,1,265.15,119.553Zm-53.158-12.491c-.241-3.09.353-4.5,3.4-5.651C215.8,104.3,215.073,105.532,211.992,107.062Zm-47.9-5.149,6.472-.872a2.227,2.227,0,0,1-.068,2.657A16.556,16.556,0,0,1,164.09,101.913Zm62.642-26.38c-.813-3.058-.856-3.536-.461-5,1.874.931,2.514,2.7,3.4,4.633ZM155.36,59.213v2.754a24.206,24.206,0,0,1-5.6-1.844l.061-.36ZM306.168,88.767c-1.574.132-2.732.966-4.395.55L305.39,85.3Zm10.739-16.295,1.8.7c0,.74.031,1.432-.007,2.12-.076,1.394-.092,1.393-1.719,1.4C316.293,75.167,316.265,74.409,316.906,72.472Zm-12.452,29.5c-1.054,1.172-1.642,2.823-3.544,3.181-.191-1.064-.35-1.944-.527-2.925Zm-8.61-5a4.233,4.233,0,0,1,2.524-3.01l.756,3.606C297.918,97.664,296.842,97.787,295.844,96.969Zm11.388-6.734c.9-.293,1.127-.238,1.212.7.152,1.678.214,3.366.256,5.051.014.571-.393.613-.914.367C307.609,94.393,307.429,92.407,307.232,90.235Zm-.76-5.3h1.675c0,1.149.017,2.141-.006,3.133-.018.8-.5.933-1.355.759ZM218.417,101c-.225-2.1.271-2.841,2.411-3.579C221,99.014,220.379,99.938,218.417,101Zm59.241-15.329c-1.438-.489-1.8-1.287-1.737-2.154.04-.548-.036-1.465,1.165-1.531C277.265,83.136,277.435,84.23,277.658,85.669Zm11,20.252-.2-.375,1.906-1.948.129,2.018ZM156.605,57.272l3.005.73C156.986,58.92,156.562,58.8,156.605,57.272Zm66.318,39.82c.089-1.79.343-2.063,1.785-2.165C224.627,95.971,223.716,96.257,222.924,97.092Zm56.915,18.334c.225,2.086.225,2.086-1.688,1.909ZM236.428,85.49c.807-1.141,1.214-1.181,2.165-.33Zm4.343-.672.828-.972C241.923,85.05,241.923,85.05,240.77,84.818Z" transform="translate(-54.375 -38.197)"/>
      <path id="Path_2759" data-name="Path 2759" d="M401.472,43.784c-.135-.113-.252-.285-.405-.329-2.06-.6-4.126-1.169-6.188-1.756-.825-.236-1.645-.491-2.612-.781-.157.606-.3,1.142-.48,1.848,2.26.879,4.421,1.893,6.686,2.55,2.3.666,4.263,1.974,6.552,2.6l-.1.454c-.549.027-1.1.1-1.647.073-2.036-.084-4.074-.163-6.106-.31-1.914-.139-3.822-.361-5.732-.548-.795-.078-1.612-.358-2.329.236-.132.724.081,1.166.8,1.32q5.814,1.24,11.624,2.495c.955.2,1.913.4,3.006.622-.523.951-1.277.837-1.914.936-2.884.447-5.771.869-8.655,1.313a6.791,6.791,0,0,0-.972.322c.046.481.092.959.152,1.585,4.338.07,8.463-.779,12.621-1.23l-11.326.729-.069-.43c1.748-.812,3.721-.783,5.564-1.232,1.917-.468,3.863-.824,5.868-1.244a1.012,1.012,0,0,0-.837-1.506c-1.029-.208-2.07-.353-3.108-.516-3.222-.51-6.449-.992-9.662-1.547a3.172,3.172,0,0,1-1.63-1c.462,0,.923-.014,1.384,0,3.025.107,6.051.2,9.075.337,1.626.072,3.248.226,4.873.317a5.786,5.786,0,0,0,1.114-.211,9.2,9.2,0,0,0-.7-1.359,1.65,1.65,0,0,0-.762-.41c-2.3-.817-4.569-1.755-6.92-2.386a25.335,25.335,0,0,1-5.017-2.137,10.11,10.11,0,0,1,4.491.618,19.737,19.737,0,0,0,3.4.543Z" transform="translate(-342.945 -38.927)"/>
      <path id="Path_2760" data-name="Path 2760" d="M382.307,60.319l-2.424,1.438c1.524-.526,3.324-.487,4.6-2.19-2.37-.488-4.38.525-6.424.415h4.152Z" transform="translate(-312.353 -43.898)"/>
      <path id="Path_2761" data-name="Path 2761" d="M162.581,91.92a4.386,4.386,0,0,0,2.84-2.74c-.952.563-1.7,1.032-2.479,1.458-.618.339-.554.8-.315,1.32Z" transform="translate(64.438 -51.883)"/>
      <path id="Path_2762" data-name="Path 2762" d="M55.4,80.089a69.14,69.14,0,0,0,.852,7.1c.391,1.786,1.387,3.432,1.977,5.187A8.465,8.465,0,0,0,60.85,96.2a5.35,5.35,0,0,0,7.03.087c2.225-1.785,3.074-4.341,3.982-6.854a26.3,26.3,0,0,0,1.233-9.5A16.4,16.4,0,0,0,68.3,68.091a4.373,4.373,0,0,0-4.646-1.2c-1.615.492-3.365.83-4.288,2.43a63.853,63.853,0,0,0-3.187,6.144A8.248,8.248,0,0,0,55.4,80.089Zm6.324-6.313c-.432.14-.868.269-1.3.42a2.692,2.692,0,0,0-1.836,2.154,22.132,22.132,0,0,0-.41,7.088c.279,2.508,1.422,4.671,2.214,6.964a1.874,1.874,0,0,0,3.425.1A14.64,14.64,0,0,0,65.2,86.571c.759-4.193.21-8.122-2.806-11.423-.159-.174-.145-.508-.211-.767.307-.055.659-.229.912-.135a1.726,1.726,0,0,1,.92.718,25.246,25.246,0,0,1,1.8,4.162,17.684,17.684,0,0,1,.173,9.688,14.726,14.726,0,0,1-1.678,3.419,1.869,1.869,0,0,1-1.291.749A4.983,4.983,0,0,1,59.2,90.345c-.334-.871-.523-1.8-.909-2.647a15.479,15.479,0,0,1-1.072-7.9,16.845,16.845,0,0,1,.89-3.909A3.056,3.056,0,0,1,61.721,73.775Z" transform="translate(235.131 -45.838)" fill="#fff"/>
      <path id="Path_2763" data-name="Path 2763" d="M110.689,90.914a3.132,3.132,0,0,1-2.206.764,20.784,20.784,0,0,0-3.094.517c-1.8.2-3.61.275-5.413.45-1.217.118-2.433.283-3.64.486a17.759,17.759,0,0,1-3.453.3,20.72,20.72,0,0,0-4.122.687c-1.087.2-2.172.408-3.261.6-2.58.459-5.161.913-7.813,1.381V98.1c2.507-.227,4.934-.448,7.362-.664a13.612,13.612,0,0,1,2.437-.173c4.162.4,8.262-.462,12.4-.545,2.855-.058,5.7-.421,8.558-.563,5.769-.288,11.543-.5,17.312-.78,3.206-.157,6.406-.435,9.611-.576a15.287,15.287,0,0,1,2.764.33,10.782,10.782,0,0,0,2.073.321,5.8,5.8,0,0,1,4.35,1.485.716.716,0,0,0,.319.135,4.268,4.268,0,0,0,.6.005c-.509-1.981-1.1-3.888-1.472-5.836-.369-1.925-.521-3.893-.783-5.962-1.568.433-2.98.761-4.352,1.211a74.484,74.484,0,0,1-13.738,2.653c-1.605.211-3.186.6-4.786.863-.761.124-1.544.1-2.311.2-1.718.22-3.427.5-5.147.7a22.048,22.048,0,0,1-2.244.044Z" transform="translate(146.403 -50.834)" fill="#fff"/>
      <path id="Path_2764" data-name="Path 2764" d="M254.957,90.273c.135,2.59.264,5.066.4,7.734a9.609,9.609,0,0,0,3.024-2.225c.848-.77,1.652-1.59,2.429-2.342.83.481.854.942.369,1.4a44.759,44.759,0,0,1-4.372,3.977,105,105,0,0,1-14.232,8.234,82.392,82.392,0,0,1-16.218,6.074c-1.958.512-3.9,1.094-5.839,1.8a57.058,57.058,0,0,0,11.747.508l-2.817.719.263,2.675c3.122,1.035,8.678.1,11.121-3.566-2.271-.4-4.417.581-6.629.022.847-.116,1.7-.229,2.541-.348,1.62-.227,3.247-.407,4.855-.7a9.152,9.152,0,0,0,3.776-1.755c3.25-2.383,6.528-4.732,9.856-7.005,1.923-1.315,3.937-2.5,5.959-3.666a6.387,6.387,0,0,0,2.793-3.67,2,2,0,0,1,2.2-1.466,26.5,26.5,0,0,0,3.735-.631,18.442,18.442,0,0,0,.057-2.531,1.18,1.18,0,0,0-1.456-1.141c-2.02.25-4.039.544-6.068.67a2.883,2.883,0,0,1-1.854-.68,7.853,7.853,0,0,1-1.44-1.963,1.277,1.277,0,0,0-1.429-.754C256.827,89.818,255.932,90.047,254.957,90.273Z" transform="translate(-82.632 -51.997)" fill="#fff"/>
      <path id="Path_2765" data-name="Path 2765" d="M290.373,111.777a134.739,134.739,0,0,0-13.861,1.507c.169,3.537.326,6.831.493,10.331,4.686,1.044,9.451.972,14.044,1.329.716-.8-.1-1.874,1.06-2.427l.643,2.472c4.225.026,8.494.489,13.036.1-.187-1.036-.335-1.863-.506-2.811-1.328-.045-2.544-.049-3.754-.133a44.789,44.789,0,0,0-9.262-.176,3.234,3.234,0,0,1-2.718-.752l1.056-.727A32.986,32.986,0,0,0,290.373,111.777Zm-5.9,6.116c-.089.786.12,1.346.919,1.445a1.514,1.514,0,0,0,.839-.3,14.51,14.51,0,0,0-.484-1.587c.781-.058,1.144.151,1.379.86a2.2,2.2,0,0,1-.895,2.094,2.482,2.482,0,0,1-2.4-.606C283.174,118.967,283.877,118.461,284.471,117.893Z" transform="translate(-159.369 -57.949)" fill="#fff"/>
      <path id="Path_2766" data-name="Path 2766" d="M175.048,133.851a6.318,6.318,0,0,0-.146,3.7,14.155,14.155,0,0,1,.366,3.111,1.817,1.817,0,0,0,1.155,1.6c1.13.612,2.235,1.271,3.375,1.864a2.239,2.239,0,0,0,1.162.279c2.372-.225,4.738-.5,7.289-.784.089-1.108.179-2.242.269-3.376l.221-.02c.132,1.118.266,2.236.416,3.5a30.651,30.651,0,0,0,9.341-.7c-2.761-2.912-6.264-4.228-9.6-6.1l-.409,1.422c-.118-.2-.257-.328-.258-.457a2.288,2.288,0,0,0-1.4-2.222,14.945,14.945,0,0,1-2.391-1.462,5.05,5.05,0,0,0-3.641-.944C178.9,133.418,176.992,133.646,175.048,133.851Z" transform="translate(22.413 -63.706)" fill="#fff"/>
      <path id="Path_2767" data-name="Path 2767" d="M297.627,97.308v10.554c4.818-.251,9.461-.833,14.112-1.35V96.05C310.473,95.691,299.535,96.7,297.627,97.308Z" transform="translate(-180.766 -53.707)" fill="#fff"/>
      <path id="Path_2768" data-name="Path 2768" d="M277.665,94.978a107.121,107.121,0,0,0,.678,10.892c4.411-.639,8.773-.44,13.062-1.42.768-3.6-.192-7.024-.268-10.712C286.593,93.695,282.314,94.553,277.665,94.978Z" transform="translate(-146.126 -53.106)" fill="#fff"/>
      <path id="Path_2769" data-name="Path 2769" d="M331.5,108.612c.056-3.677.4-7.158-.158-10.8-1.015.054-1.936.047-2.841.161-2.947.372-5.888.792-8.834,1.184-1.394.186-1.608.276-1.614,1.551-.012,2.62.082,5.242.181,7.861a5.452,5.452,0,0,0,.459,1.38A70.951,70.951,0,0,0,331.5,108.612Z" transform="translate(-215.619 -54.2)" fill="#fff"/>
      <path id="Path_2770" data-name="Path 2770" d="M93.573,102.4c-2.235-.24-3.316.222-4.2,2.262-1.2,2.775-1.287,5.623.658,8.131,2.367,3.052,5.441,4.92,9.451,4.706,3.018-.161,6.032-.406,9.041-.695,3.251-.312,6.508-.621,9.736-1.106,4.385-.66,8.742-1.506,13.118-2.231,2.8-.465,6.121-4.253,5.81-7.234a20.155,20.155,0,0,1,.04-2.8c.053-1.436-.843-2.362-1.758-3.266-.121-.119-.43-.047-.878-.08a8.193,8.193,0,0,1,.506,6.177,6.5,6.5,0,0,1-4.809,5.065c-1.745.444-3.537.7-5.309,1.041-.969.185-1.931.437-2.909.532-.9.086-1.824-.1-2.717.009-4.865.584-9.723,1.224-14.585,1.838-1.789.227-3.578.459-5.371.649a17.069,17.069,0,0,1-2.62.123,5.6,5.6,0,0,1-5.7-4.525c-.726-2.736-.472-5.332,1.7-7.452a5.012,5.012,0,0,0,.542-.687A4.393,4.393,0,0,0,93.573,102.4Z" transform="translate(146.722 -54.809)" fill="#fff"/>
      <path id="Path_2771" data-name="Path 2771" d="M272.182,103.111V92.544l-12.669,1.017c.11,3.478.216,6.869.323,10.277C261.054,104.205,269.1,103.75,272.182,103.111Z" transform="translate(-113.327 -52.786)" fill="#fff"/>
      <path id="Path_2772" data-name="Path 2772" d="M260.1,85.6l3.217,1.042-.045.244-3.184-.576-.207,1.724c4.182-.007,8.147-.648,12.29-.871a41.392,41.392,0,0,0,.2-8.616c-1.549-.871-10.894-2.539-12.577-2.253A30.94,30.94,0,0,0,260.1,85.6Z" transform="translate(-113.69 -48.414)" fill="#fff"/>
      <path id="Path_2773" data-name="Path 2773" d="M242.134,91.874V102.41h5.617c-1.738,1.483-3.637.437-5.433,1.064v2.5a101.86,101.86,0,0,0,11.336-6.346c-.146-2.967-.289-5.849-.44-8.9Z" transform="translate(-82.085 -52.298)" fill="#fff"/>
      <path id="Path_2774" data-name="Path 2774" d="M92.6,100.818A5.661,5.661,0,0,0,92.452,104c.313,1.95.6,3.906.829,5.867.151,1.309.321,1.617,1.525,1.569a26.338,26.338,0,0,0,7.725-1.295,4.745,4.745,0,0,0,2.892-3.086,11.339,11.339,0,0,0,.609-2.9c.235-2.716-1.176-4.206-3.879-4.052C98.963,100.286,95.779,100.575,92.6,100.818Z" transform="translate(175.127 -54.812)" fill="#fff"/>
      <path id="Path_2775" data-name="Path 2775" d="M181.536,148.117c-4.542-.481-8.989.648-13.475.666a8.441,8.441,0,0,0,.026,4,1.98,1.98,0,0,0,1.06,1.461c3.179,1.705,6.339,3.444,9.507,5.17.965.526,1.932,1.049,3.021,1.64a3.537,3.537,0,0,0,.372-1.03c-.078-3.784-.185-7.569-.3-11.352A2.086,2.086,0,0,0,181.536,148.117Z" transform="translate(43.879 -67.672)" fill="#fff"/>
      <path id="Path_2776" data-name="Path 2776" d="M277.755,119.97A54.908,54.908,0,0,0,290.97,116.9c-.117-2.259-.231-4.446-.355-6.83-4.516.241-8.763.84-13.243,1.3C277.288,114.2,277.01,117,277.755,119.97Z" transform="translate(-145.091 -57.491)" fill="#fff"/>
      <path id="Path_2777" data-name="Path 2777" d="M221.863,129.919c-.091-1.645-.163-3.035-.249-4.423a2.138,2.138,0,0,0-1.314-1.908c-1.258-.617-2.485-1.295-3.722-1.952a5.64,5.64,0,0,0-3.6-.331c-1.488.225-2.944.657-4.588,1.04,0,.769-.041,1.571.009,2.369.1,1.572.243,3.142.372,4.712.119,1.429.46,1.6,1.864,1.408,1.846-.25,3.715-.346,5.575-.495C218,130.2,219.792,130.073,221.863,129.919Z" transform="translate(-25.593 -60.469)" fill="#fff"/>
      <path id="Path_2778" data-name="Path 2778" d="M292.1,75.631c-4.68-.249-9.066.994-13.741,1.517,0,1.277-.033,2.42.012,3.559.029.74.507,1.093,1.229,1.249,1.653.358,3.294.767,4.936,1.172,2.249.556,4.493,1.132,6.743,1.689a5.346,5.346,0,0,0,.822.053Z" transform="translate(-147.019 -48.237)" fill="#fff"/>
      <path id="Path_2779" data-name="Path 2779" d="M228.4,115.82l1.072,2.383c3.61-.105,7.382-.745,11.244-1.189,0-1.9.056-3.7-.044-5.485-.022-.4-.539-.84-.93-1.122a1.112,1.112,0,0,1-.443-1.486c.318-.963.462-1.983.754-3.316-4.836,2.743-8.1,6.65-11.62,10.258Z" transform="translate(-59.124 -56.292)" fill="#fff"/>
      <path id="Path_2780" data-name="Path 2780" d="M153.6,142.5l9.969-.318a68.683,68.683,0,0,0-.283-10.268c-1.307.143-2.446.23-3.568.413a1.693,1.693,0,0,0-.829.606c-1.421,1.615-2.739,3.329-4.25,4.852C153.317,139.122,153.174,140.588,153.6,142.5Z" transform="translate(72.842 -63.354)" fill="#fff"/>
      <path id="Path_2781" data-name="Path 2781" d="M125.432,101.741h-7.383c-.737,1.835-.133,9.763.878,11.682l2.493-.371c.737-3.267-.1-6.472.478-9.66.04.8.057,1.595.128,2.389.073.813.209,1.62.3,2.432.116,1.042.213,2.087.318,3.131.164,1.622.221,1.672,1.8,1.526.17-.016.337-.072.748-.162C125.93,109.1,125.527,105.43,125.432,101.741Z" transform="translate(136.958 -55.254)" fill="#fff"/>
      <path id="Path_2782" data-name="Path 2782" d="M254.138,86.606c-.11-1.891-.206-3.561-.31-5.363l-11.3-2.042v8.324C246.354,87.429,250.068,86.824,254.138,86.606Z" transform="translate(-82.857 -49.204)" fill="#fff"/>
      <path id="Path_2783" data-name="Path 2783" d="M317.919,66.807c.168,1.155.291,2.006.443,3.059L331.906,74.5a21.246,21.246,0,0,0-.312-7.3C327.1,65.718,322.623,66.1,317.919,66.807Z" transform="translate(-215.952 -45.709)" fill="#fff"/>
      <path id="Path_2784" data-name="Path 2784" d="M340,58.341l-1.435.62a7.17,7.17,0,0,0,1.267.824c3.3,1.162,6.617,2.287,9.927,3.427.995.343,1.973.739,2.982,1.033a7.314,7.314,0,0,0,2.209.4c2.218-.07,4.433-.243,6.646-.4a10.946,10.946,0,0,0,1.373-.274c.138-.883.2-1.624-.816-1.885q-5.688-1.454-11.38-2.887a4.053,4.053,0,0,0-.739-.005c-.036,1.184-.071,2.351-.106,3.518l-.334.1a4.962,4.962,0,0,1-.558-.663.934.934,0,0,1-.034-.517c.094-.985.448-2.261-.433-2.784a7.22,7.22,0,0,0-3.375-.688c-1.748-.049-3.5.132-5.253.214Z" transform="translate(-262.028 -43.553)" fill="#fff"/>
      <path id="Path_2785" data-name="Path 2785" d="M298.685,75.227l2.26.8a3.277,3.277,0,0,1,2.794-1.1c2.668-.121,5.332-.34,8.011-.521.078-.574.157-.913.164-1.254.044-2.4-.1-2.467-2.458-2.847-1.779-.287-3.523-.793-5.282-1.207-1.858-.437-3.714-.882-5.639-1.339C297.856,70.366,298.828,72.684,298.685,75.227Z" transform="translate(-181.435 -46.132)" fill="#fff"/>
      <path id="Path_2786" data-name="Path 2786" d="M233.587,119.614a40.982,40.982,0,0,0-5.91,5.879,9.3,9.3,0,0,0,4.693-.234,10.242,10.242,0,0,1,8.687,1.372c1.547,1.011,3.277,1.742,5.179,2.73a26.993,26.993,0,0,0-.238-7.444c-.822.041-1.56.048-2.293.119-2.613.252-5.222.555-7.839.775-.765.064-1.17.378-1.276,1.426-1.073-1.673-2.563-.544-3.851-1.26l3.021-.887c-.066-.824-.132-1.667-.2-2.514Z" transform="translate(-64.271 -60.042)" fill="#fff"/>
      <path id="Path_2787" data-name="Path 2787" d="M271.526,108.386c-4.127-.105-8.1.941-12.246,1.124-.457,2.27.343,4.332.4,6.725,2.378-.842,4.58-1.571,6.741-2.4,1.355-.522,2.653-1.193,3.97-1.81,1.53-.717,1.533-.723,1.357-2.354C271.7,109.269,271.611,108.876,271.526,108.386Z" transform="translate(-112.694 -57.036)" fill="#fff"/>
      <path id="Path_2788" data-name="Path 2788" d="M154.179,159.1c3.814-3.729,6.083-8.2,9.417-11.9-1.284-.5-7.474-.149-9.871.524C153.1,151.4,153.833,155.064,154.179,159.1Z" transform="translate(72.828 -67.394)" fill="#fff"/>
      <path id="Path_2789" data-name="Path 2789" d="M137.326,113.345c1.1-1.147,2.168-2.2,3.164-3.323,1.549-1.741,3.059-3.518,4.562-5.3.547-.648,1.031-1.351,1.706-2.246-2.636-.265-5.1-.4-7.161.463C135.585,104.62,133.43,109.656,137.326,113.345Z" transform="translate(102.986 -55.398)" fill="#fff"/>
      <path id="Path_2790" data-name="Path 2790" d="M348.462,100.278c-.537.032-.827.033-1.112.069-3.22.408-6.441.822-10.107,1.29,2.1,1.7,3.828,3.182,5.651,4.538,1.8,1.342,3.7,2.554,5.875,4.038C348.66,106.659,348.562,103.494,348.462,100.278Z" transform="translate(-246.779 -54.862)" fill="#fff"/>
      <path id="Path_2791" data-name="Path 2791" d="M318.556,92.314c.2,1.56.355,2.817.53,4.2,4.471-.2,8.71-1.175,13.081-1.711v-3.7c-2.391-.337-4.578.387-6.8.592C323.171,91.9,320.975,92.1,318.556,92.314Z" transform="translate(-216.505 -52.377)" fill="#fff"/>
      <path id="Path_2792" data-name="Path 2792" d="M297.621,90.39c.109,1.4.2,2.53.294,3.772l14.338-1.377c-.075-1.255-.143-2.371-.223-3.705Z" transform="translate(-181.276 -51.856)" fill="#fff"/>
      <path id="Path_2793" data-name="Path 2793" d="M149.441,131.289c-.346-.162-.7-.483-1.037-.462-2.716.165-5.428.394-8.308.615l.735,9.648C142.07,140.386,148.732,132.773,149.441,131.289Z" transform="translate(96.776 -63.062)" fill="#fff"/>
      <path id="Path_2794" data-name="Path 2794" d="M337.645,95.131l.516,3.257A76.743,76.743,0,0,0,349.1,97.18a5.936,5.936,0,0,0-.405-4.007,8.654,8.654,0,0,0-3.606.138c-2.14.268-4.283.518-6.425.775-.65.078-1.151.288-.985,1.1Z" transform="translate(-247.578 -52.913)" fill="#fff"/>
      <path id="Path_2795" data-name="Path 2795" d="M131.781,111.665a2.767,2.767,0,0,1,.663,2.234,7.73,7.73,0,0,0,.613,2.426l6.5-.729c-.251-2.374.6-4.735-1.008-7.02-.384.033-.887.046-1.38.127a5.9,5.9,0,0,1-1.522.328C133.66,108.776,132.665,109.946,131.781,111.665Z" transform="translate(112.733 -57.089)" fill="#fff"/>
      <path id="Path_2796" data-name="Path 2796" d="M289.524,160.13c1.141-.1,1.892-.132,2.632-.235a2.363,2.363,0,0,0,1.95-1.8c.963-3.412,1.819-6.855,2.688-10.292a7.189,7.189,0,0,0,.012-1.435c-1.152.782-2.108,1.418-3.047,2.078a1.187,1.187,0,0,0-.438.527C292.08,152.587,290.854,156.21,289.524,160.13Z" transform="translate(-159.939 -67.233)" fill="#fff"/>
      <path id="Path_2797" data-name="Path 2797" d="M328.924,120.663c-.057-2.115.369-4.26-.579-6.486l-10.813,1.17C319.574,117.414,326.766,120.775,328.924,120.663Z" transform="translate(-212.561 -58.593)" fill="#fff"/>
      <path id="Path_2798" data-name="Path 2798" d="M278.254,88.828c.063,1.374.109,2.4.165,3.637l13.308-1.293.181-1.868a9.278,9.278,0,0,0-4.584-.871,55.869,55.869,0,0,1-5.76.141C280.533,88.605,279.5,88.728,278.254,88.828Z" transform="translate(-146.763 -51.668)" fill="#fff"/>
      <path id="Path_2799" data-name="Path 2799" d="M111.419,112.411l3.785-.574c.425-3.645-.276-7.063-.664-10.423-.191-.14-.278-.26-.377-.269-2.849-.279-3.152,0-3.106,2.825.042,2.561.075,5.122.122,7.683A3.912,3.912,0,0,0,111.419,112.411Z" transform="translate(152.127 -55.071)" fill="#fff"/>
      <path id="Path_2800" data-name="Path 2800" d="M218.282,134.459c-1.421-.326-8.714.216-10.338.756a56.6,56.6,0,0,0,10.641,5.848C218.481,138.812,218.381,136.632,218.282,134.459Z" transform="translate(-22.004 -64.011)" fill="#fff"/>
      <path id="Path_2801" data-name="Path 2801" d="M282.9,137.884c-1.509.953-2.75,1.67-3.905,2.506a2.641,2.641,0,0,0-.805,1.315c-.436,1.385-.839,2.784-1.151,4.2a24.02,24.02,0,0,0-.518,4.136c1.784-1.747,4.332-2.725,4.874-5.583.29-1.528.877-3,1.277-4.509A15.687,15.687,0,0,0,282.9,137.884Z" transform="translate(-136.487 -64.957)" fill="#fff"/>
      <path id="Path_2802" data-name="Path 2802" d="M121.1,89.875c1.016-.331,1.2-1.121,1.209-2.065a24.757,24.757,0,0,1,.266-3.774c.837,1.573-.23,3.416.806,5.114l2.094-.513V83.772l-5.75-2.489a2.689,2.689,0,0,0-.193,2.491l-.04-.064c.184,1.538.379,3.077.549,4.618.081.734.241,1.381,1.116,1.512Z" transform="translate(135.934 -49.763)" fill="#fff"/>
      <path id="Path_2803" data-name="Path 2803" d="M270.294,130.915c-3,1.348-4.984,2.9-4.873,6.125.024.722-.3,1.456-.239,2.38q2.074-1.8,4.145-3.6a.557.557,0,0,0,.185-.29C269.761,134.109,270,132.684,270.294,130.915Z" transform="translate(-115.58 -63.086)" fill="#fff"/>
      <path id="Path_2804" data-name="Path 2804" d="M298.357,78.856c2.517,1.79,5.4,2.221,8.144,3.059.813-1.187.624-2.321.445-3.629-1.525.084-2.967.151-4.408.247C301.144,78.624,299.751,78.747,298.357,78.856Z" transform="translate(-176.664 -48.958)" fill="#fff"/>
      <path id="Path_2805" data-name="Path 2805" d="M205.515,130.6l-6.848-4.49c-.493,1.742.083,3.168.369,4.607a.829.829,0,0,0,.648.455c1.934-.049,3.866-.151,5.8-.238Z" transform="translate(-2.005 -61.795)" fill="#fff"/>
      <path id="Path_2806" data-name="Path 2806" d="M218.944,114.669c.115,1.527.228,3.016.359,4.768l5.756-.738A13.355,13.355,0,0,0,218.944,114.669Z" transform="translate(-36.525 -58.725)" fill="#fff"/>
      <path id="Path_2807" data-name="Path 2807" d="M285.872,72.315c.143,1.074.255,1.923.4,3.034l8-1.037.018-.482C291.588,73.264,288.987,72.183,285.872,72.315Z" transform="translate(-154.724 -47.352)" fill="#fff"/>
      <path id="Path_2808" data-name="Path 2808" d="M112.822,73.113c-.684,1.472-1.287,2.7-1.827,3.945-.781,1.811-1.581,3.619-2.245,5.474a4.954,4.954,0,0,0-.215,3.037.894.894,0,0,0,1.258-.7q1.56-5.553,3.118-11.106A2.72,2.72,0,0,0,112.822,73.113Z" transform="translate(156.498 -47.57)" fill="#fff"/>
      <path id="Path_2809" data-name="Path 2809" d="M194.419,149.3a12.03,12.03,0,0,0-6.107.26,34.2,34.2,0,0,0,6.006,3.534A8.41,8.41,0,0,0,194.419,149.3Z" transform="translate(16.356 -67.947)" fill="#fff"/>
      <path id="Path_2810" data-name="Path 2810" d="M256.461,130.258c3.081-1.53,3.807-2.765,3.4-5.651C256.814,125.754,256.22,127.167,256.461,130.258Z" transform="translate(-98.845 -61.393)" fill="#fff"/>
      <path id="Path_2811" data-name="Path 2811" d="M317.287,124.973a16.555,16.555,0,0,0,6.4,1.785,2.227,2.227,0,0,0,.068-2.657Z" transform="translate(-207.572 -61.257)" fill="#fff"/>
      <path id="Path_2812" data-name="Path 2812" d="M237.746,87.4l2.938-.369c-.884-1.934-1.525-3.7-3.4-4.633C236.89,83.862,236.933,84.34,237.746,87.4Z" transform="translate(-65.389 -50.062)" fill="#fff"/>
      <path id="Path_2813" data-name="Path 2813" d="M357.132,95.669c-.253-.467-.485-.941-1.168-.833-.738.118-1.484.195-2.477.321a11.514,11.514,0,0,0,3.272,4.207,9.47,9.47,0,0,0,.337-3.752Z" transform="translate(-267.029 -53.397)" fill="#fff"/>
      <path id="Path_2814" data-name="Path 2814" d="M344.214,66.925l-5.534.55-.061.36a24.206,24.206,0,0,0,5.6,1.844Z" transform="translate(-243.23 -45.909)" fill="#fff"/>
      <path id="Path_2815" data-name="Path 2815" d="M136.868,106.049l-.778-3.471-3.617,4.021C134.136,107.015,135.294,106.182,136.868,106.049Z" transform="translate(114.924 -55.479)" fill="#fff"/>
      <path id="Path_2816" data-name="Path 2816" d="M115.777,85.049c-.642,1.937-.613,2.7.076,4.218,1.627-.006,1.643-.005,1.719-1.4.038-.688.007-1.38.007-2.12Z" transform="translate(146.754 -50.774)" fill="#fff"/>
      <path id="Path_2817" data-name="Path 2817" d="M138.886,125.367l-4.07.256c.177.981.336,1.861.527,2.925C137.245,128.19,137.832,126.539,138.886,125.367Z" transform="translate(111.193 -61.597)" fill="#fff"/>
      <path id="Path_2818" data-name="Path 2818" d="M142.1,117.43c1,.819,2.074.695,3.28.6l-.756-3.606A4.233,4.233,0,0,0,142.1,117.43Z" transform="translate(99.366 -58.658)" fill="#fff"/>
      <path id="Path_2819" data-name="Path 2819" d="M129.012,109.271c.2,2.172.377,4.158.554,6.116.522.246.928.2.914-.367-.042-1.686-.1-3.373-.256-5.051C130.138,109.034,129.916,108.979,129.012,109.271Z" transform="translate(123.845 -57.234)" fill="#fff"/>
      <path id="Path_2820" data-name="Path 2820" d="M129.76,102.078l.315,3.892c.859.173,1.337.039,1.355-.759.023-.992.006-1.984.006-3.133Z" transform="translate(122.337 -55.345)" fill="#fff"/>
      <path id="Path_2821" data-name="Path 2821" d="M249.139,122.729c1.961-1.06,2.584-1.984,2.411-3.579C249.411,119.888,248.914,120.626,249.139,122.729Z" transform="translate(-85.097 -59.928)" fill="#fff"/>
      <path id="Path_2822" data-name="Path 2822" d="M173.188,101.736c-.223-1.439-.393-2.533-.571-3.686-1.2.067-1.125.983-1.165,1.531C171.389,100.449,171.75,101.246,173.188,101.736Z" transform="translate(50.094 -54.264)" fill="#fff"/>
      <path id="Path_2823" data-name="Path 2823" d="M367.825,57.789l2.593-.632.042-.323-3.423-.855-.489,1.541c.574.1.958.168,1.339.237Z" transform="translate(-289.908 -42.97)" fill="#fff"/>
      <path id="Path_2824" data-name="Path 2824" d="M154.11,129.919l1.833-.305-.129-2.018-1.906,1.948Z" transform="translate(80.17 -62.195)" fill="#fff"/>
      <path id="Path_2825" data-name="Path 2825" d="M332.811,64.271c-.043,1.53.38,1.648,3.005.73Z" transform="translate(-230.581 -45.196)" fill="#fff"/>
      <path id="Path_2826" data-name="Path 2826" d="M243.823,117.908c.792-.835,1.7-1.121,1.785-2.165C244.166,115.845,243.912,116.118,243.823,117.908Z" transform="translate(-75.274 -59.013)" fill="#fff"/>
      <path id="Path_2827" data-name="Path 2827" d="M170.016,143.765l-1.688,1.909C170.24,145.851,170.24,145.851,170.016,143.765Z" transform="translate(55.448 -66.535)" fill="#fff"/>
      <path id="Path_2828" data-name="Path 2828" d="M224.845,102.506l2.165-.33C226.059,101.325,225.652,101.366,224.845,102.506Z" transform="translate(-42.792 -55.213)" fill="#fff"/>
      <path id="Path_2829" data-name="Path 2829" d="M220.481,101.569c1.153.232,1.153.232.828-.972Z" transform="translate(-34.086 -54.947)" fill="#fff"/>
      <path id="Path_2830" data-name="Path 2830" d="M187.318,96.223c-.043-2.054-.171-2.212-1.692-2.125a16.2,16.2,0,0,1-9.227-2.105,1.145,1.145,0,0,0-.868-.048A23.6,23.6,0,0,0,187.318,96.223Z" transform="translate(32.976 -52.608)"/>
      <path id="Path_2831" data-name="Path 2831" d="M196.236,87.526c1.355-.416,2.907-1.586,3.612.806a2.53,2.53,0,0,0-.677.353c-.3.3-.793.7-.744.981a1.321,1.321,0,0,0,.934.835c.429.052,1.195-.17,1.3-.462a3.426,3.426,0,0,0,.178-2.155,3.264,3.264,0,0,0-2.773-2.092C197.035,85.651,196.579,86.1,196.236,87.526Z" transform="translate(4.197 -50.966)"/>
      <path id="Path_2832" data-name="Path 2832" d="M191.353,75.934a2.816,2.816,0,0,0-3.573-2.66c-2.823.541-4.583,2.95-3.991,5.475.65.195.827-.147.826-.716-.005-2.268.985-3.6,3.114-4.108a2.345,2.345,0,0,1,2.645.857C190.671,75.187,191.024,75.552,191.353,75.934Z" transform="translate(22.984 -47.595)"/>
      <path id="Path_2833" data-name="Path 2833" d="M182.044,82.954a2.869,2.869,0,0,0,1.449,2.535c.874.326,1.594-.21,1.339-1.1a6.157,6.157,0,0,0-1.031-1.937,1.112,1.112,0,0,0-1.034-.258C182.409,82.35,182.179,82.8,182.044,82.954Zm1,.072c.989.339.989.339.677,1.339C183.027,83.85,183.027,83.85,183.046,83.026Z" transform="translate(30.645 -49.996)"/>
      <path id="Path_2834" data-name="Path 2834" d="M68.819,76.359a3.056,3.056,0,0,0-3.612,2.118,16.845,16.845,0,0,0-.89,3.909,15.479,15.479,0,0,0,1.072,7.9c.386.844.576,1.776.909,2.647a4.983,4.983,0,0,0,3.819,2.635,1.869,1.869,0,0,0,1.291-.749A14.725,14.725,0,0,0,73.087,91.4a17.684,17.684,0,0,0-.173-9.688,25.244,25.244,0,0,0-1.8-4.162,1.726,1.726,0,0,0-.92-.718c-.252-.094-.6.08-.912.135.066.26.051.593.211.767,3.016,3.3,3.564,7.231,2.806,11.423a14.641,14.641,0,0,1-1.386,3.927,1.874,1.874,0,0,1-3.425-.1c-.792-2.293-1.936-4.457-2.214-6.964a22.132,22.132,0,0,1,.41-7.088,2.692,2.692,0,0,1,1.836-2.154C67.951,76.628,68.386,76.5,68.819,76.359Z" transform="translate(228.033 -48.422)"/>
      <path id="Path_2835" data-name="Path 2835" d="M302.869,119.972c-.595.568-1.3,1.074-.644,1.907a2.482,2.482,0,0,0,2.4.606,2.2,2.2,0,0,0,.895-2.094c-.235-.708-.6-.917-1.379-.86a14.515,14.515,0,0,1,.484,1.587,1.514,1.514,0,0,1-.839.3C302.989,121.318,302.779,120.757,302.869,119.972Z" transform="translate(-177.766 -60.027)"/>
      <path id="Path_2836" data-name="Path 2836" d="M183.385,83.347c-.019.824-.019.824.677,1.339C184.374,83.686,184.374,83.686,183.385,83.347Z" transform="translate(30.306 -50.317)" fill="#fff"/>
    </g>
  </g>
</svg>
