<?xml version="1.0" encoding="utf-8"?>
<!-- Generator: Adobe Illustrator 26.0.2, SVG Export Plug-In . SVG Version: 6.00 Build 0)  -->
<svg version="1.1" xmlns="http://www.w3.org/2000/svg" xmlns:xlink="http://www.w3.org/1999/xlink" x="0px" y="0px"
	 viewBox="0 0 500 500" style="enable-background:new 0 0 500 500;" xml:space="preserve">
<style type="text/css">
	.st0{fill:#34B7EA;}
	.st1{fill:#FFFFFF;}
</style>
<g id="Layer_2">
</g>
<g id="Layer_4_00000087409766156296902150000004268204515800833183_">
</g>
<g id="Layer_1">
	<g>
		<g id="Layer_3">
			<path id="Path_2451" class="st0" d="M360.7,149.7c40.3,42.9,56.2,106.1,35,161c-19.7,50.9-75.4,71.1-128.8,82
				c-52.5,10.7-111.7,14-147.7-25.6c-36.1-39.8-29-99.1-11.7-150.1c16.8-49.6,48.4-94.6,99.1-108.1
				C261.6,94.3,321.8,108.1,360.7,149.7"/>
		</g>
		<path class="st1" d="M241.3,45.9c0.8-3.5-0.1-6.9-1.5-10.1c-2.6-5.6-5.5-11.4-11.9-13.3c-5.1-1.5-12.5-1.7-16.4,2.5
			c-3.7,4-1.8,10.2-6.7,13.4c-2.5,1.7-3.4,4-3.4,6.4c-0.8,0.3-1.5,0.8-2.2,1.5c-0.4,0.3-0.7,0.7-1.1,1
			c-21.3-16.1-52.1-12.7-77.4-8.7c-4,0.6-6.2,5.6-5.2,9.2c1.2,4.3,5.2,5.9,9.2,5.2c20.2-3.2,44.7-6.5,62.3,5
			c-1.3,1.3-2.6,2.5-3.9,3.8c-4.8,4.7-9.4,10-15,13.8c-8,5.3-0.5,18.3,7.6,13c6.2-4.1,11.3-9.6,16.7-14.8c1.9-1.9,3.8-3.7,5.7-5.6
			c2.7,2.2,7.4,1.5,9.8-0.8c2.8-2.8,2.6-6.4,0.8-9.5l1.2-1.1c0.2-0.2,0.4-0.4,0.6-0.6c4.6-0.3,8-1.9,11.9-3.8
			c0.9,0.1,1.6,0.5,2.1,1.1c0.4,1.2,0.9,2.3,1.4,3.2c4.2,7.6,15.6,2.3,13.7-5.8c-0.1-0.2-0.1-0.5-0.2-0.7c0,0,0,0,0,0
			C240.4,48.9,241,47.5,241.3,45.9z M223.7,37.4c-0.3,0-0.6-0.1-0.9-0.1c0-0.2,0.1-0.4,0.1-0.6C223.2,36.9,223.5,37.2,223.7,37.4z"
			/>
		<path class="st1" d="M135.4,92.9c-3.3,0.1-6.1-0.6-9.2-1.8c-1.3-0.5-2.5-1-3.7-1.5c-0.3-0.2-0.6-0.3-0.8-0.4
			c-0.1-3.1-3-5.7-5.9-6.4c-0.7-4.4,0.1-9.9,0-14c-0.2-9.6-15.2-9.7-15,0c0.1,8.2-1.1,17.9,3.2,25.3c4.4,7.5,12.4,11,20.2,13.8
			c2.2,0.8,4.1,0.5,5.6-0.4c1.9,0.3,3.7,0.4,5.7,0.4C145.1,107.6,145.1,92.6,135.4,92.9z"/>
		<path class="st1" d="M347,90.6c-0.5,0-1,0-1.5,0c0.1-0.5,0.1-1,0.1-1.5c0-1.2-0.3-2.3-0.8-3.3c-0.6-3.2-2.9-6-7.1-6
			c-4.8,0-9.5,0.8-13.9,2.4l-0.3,0c-2.3,0.1-4.5,1.2-5.9,2.9c-2.5,2.2-3.1,6.5-1.4,9.4c1,1.8,2.6,2.9,4.3,3.3
			c-1.3,1.7-1.8,3.8-1.2,6.2c1,3.6,5.5,6.8,9.2,5.2c6-2.4,12-3.7,18.4-3.7C356.7,105.6,356.7,90.6,347,90.6z"/>
		<path class="st1" d="M416.8,135.4c-1.6-6-3.2-13.1-7.2-18.1c-2-2.5-4.6-4.3-6.9-6.6c-2.5-2.5-4.7-5.3-6.8-8.1
			c-1.8-2.4-4.4-3.8-7.1-3.7c-0.4-0.7-0.9-1.4-1.3-2.1c-3.7-6.9-12.8-3.3-13.8,2.9c-1.9,0-3.7,0.7-5.1,2.1c-2.6,2.9-3.1,7.8,0,10.6
			c3.6,3.3,7.3,6.6,10.9,9.9c1.5,1.4,3.6,2.1,5.6,2.1c0.1,0.1,0.1,0.1,0.2,0.2c4.8,4.5,7.1,10.1,10.1,15.8c2.3,4.4,7.3,9.8,6.3,15.2
			c-0.4,2.1,0,3.9,0.9,5.4c-0.7,2-1.6,4-2.8,5.9c-1.9,2.9-1.5,5.7,0.1,7.8c-1.9,1.3-3.9,2.4-6,3.1c-2,0.7-3.4,2.8-2.8,4.9
			c0.2,0.6,0.5,1.2,1,1.7c-3.9,2.9,0,9.5,4.3,6.7c3.2-2.1,6.5-4.1,9.6-6.3c2.6-1.9,5-4.1,5.7-7.4c0.1-0.6,0.1-1.1,0-1.6
			c0.1-0.1,0.3-0.3,0.4-0.5c1.2-0.2,2.3-0.8,2.8-1.9c1.3-2.7,2.1-5.5,2.3-8.4C420.1,155.5,419.4,145.1,416.8,135.4z"/>
		<path class="st1" d="M207,402.8c-0.6-1.5-1.8-2.6-3.2-2.9c-0.3-0.8-0.8-1.4-1.4-1.9c-0.5-1.7-1.9-3-3.8-3c-2,0-4.2,1.8-4,4
			c0.3,3.1-0.2,5.9-1.7,8.6c-2.5,4.4,4,8.3,6.7,4.3c0.2,0.1,0.5,0.2,0.8,0.3c0.3,1.8,2.1,3.2,3.9,3.2c2.3,0,3.9-1.8,4-4
			C208.5,408.5,208,405.5,207,402.8z"/>
		<path class="st1" d="M299,415c0,0.7,0,1.3,0,2c-0.5,0.4-0.9,1-1.1,1.7c0,0.1-0.1,0.3-0.1,0.4c-1.4-2.2-4.8-3.2-6.5-1
			c-0.8-1-1.9-1.5-3.1-1.5c-1.2-3.3-6.8-3.1-7.6,0.5c-0.5,2.1-0.9,4.2-1.4,6.3c0-0.2,0-0.4,0-0.6c-0.4-4.5-6.3-5.4-7.9-1.1
			c-1.4,3.8-1.9,7.6-1.6,11.7c0.1,1.4,0.8,2.4,1.7,3.1c0.1,0.7,0.1,1.4,0.2,2.1c0.1,0.6,0.3,1.3,0.5,1.8c-3.9,0.7-3.4,7.4,1.2,8
			c9.7,1.2,17.2-2.5,24.7-8.3c3.4-2.6,5.3-4.6,6.7-8.8c1.7-5.3,2.4-10.9,2.4-16.4C307,409.9,299,409.8,299,415z M284,438.2
			c0.4,0.3,0.9,0.5,1.3,0.6c-0.6,0.3-1.2,0.5-1.8,0.7C283.8,439.1,283.9,438.6,284,438.2z"/>
		<path class="st1" d="M343.9,385.1c0.6-2.2,0.4-4.5,1.4-6.6c2.1-4.6-4.8-8.7-6.9-4c-1.8,3.9-1.9,8-4.1,11.8
			c-2.3,4-4.7,7.9-7.1,11.8c-0.2,0.1-0.3,0.1-0.5,0.2c-1.2,0.7-2.4,1.5-3.6,2.2c-1.8,1.1-2.6,3.6-1.4,5.5c1.1,1.8,3.6,2.6,5.5,1.4
			c1.2-0.7,2.4-1.5,3.6-2.2c0.3-0.2,0.5-0.3,0.7-0.6c0.8-0.2,1.6-0.8,2.2-1.7c0.5-0.8,0.9-1.5,1.4-2.3c1,5.5,1.6,11,1.7,16.7
			c0.1,5.1,8.1,5.2,8,0c-0.1-8.5-1.2-16.9-3.4-25.1c-0.1-0.4-0.3-0.8-0.5-1.1c0.1-0.2,0.3-0.5,0.4-0.7
			C342.3,388.6,343.4,387,343.9,385.1z"/>
		<path class="st1" d="M363,457.3c-1.2-1.9-2.5-3.8-3.7-5.7c-1.1-1.8-3.6-2.6-5.5-1.4c-1.7,1.1-2.7,3.6-1.4,5.5
			c1.2,1.9,2.5,3.8,3.7,5.7c1.1,1.8,3.6,2.6,5.5,1.4C363.3,461.7,364.2,459.2,363,457.3z"/>
		<g id="Layer_4">
			<path class="st1" d="M201.7,390c-0.9-1.8-2.7-3.5-4-5.1c-1.4-1.8-2.2-3.3-3.6-5c-0.9-1.1-1.8-2.3-2.6-3.6c-0.7-2-1.4-4.1-2.9-5.7
				c-0.2-0.2-0.4-0.3-0.7-0.5c-0.6-0.7-1.5-0.9-2.3-0.8c-0.7-0.4-1.6-0.4-2.3,0.1c-1.1,0.7-1.6,2.2-0.9,3.4c0.3,0.4,0.5,0.9,0.8,1.3
				c-0.1,0.7,0.2,1.5,0.7,2.1c0.4,0.4,0.7,0.7,1.2,1.1c2,3.4,3.9,6.7,5.8,10.2c0.1,0.1,0.1,0.2,0.2,0.3c0.8,2.2,1.6,4.4,2.9,6.5
				c1,1.6,2.3,3.6,4.2,4.3c2,0.7,4.6-0.1,5.3-2.4C204.1,394.1,202.6,391.8,201.7,390z"/>
			<path class="st1" d="M404.4,173.2c-1-1-2.5-0.9-3.5,0c-3.6,3-7.2,6-11.8,7.2c-4.7,1.3-10.1,1.3-14.9,0.9
				c-4.7-0.4-8.9-2.9-12.8-5.4c-2.2-1.3-4.3-2.7-6.5-4.1c-1.9-1.2-4-2.3-5.2-4.2c-1.5-2.4-2.6-5-3.9-7.4c-1.4-2.7-2.7-5.5-4-8.3
				c-0.2-0.4-0.5-0.7-0.9-0.9c-0.3-0.9-1.1-1.6-2.3-1.6c-2.7,0-3.1,3.5-1.3,4.6c0,0.1,0.1,0.3,0.1,0.4c2.4,5.1,4.8,10.4,7.7,15.3
				c0.2,0.4,0.4,0.7,0.7,1c0,0.3,0,0.6,0.1,1c1.4,4.6,4.5,8.1,8.4,10.6c1.5,3.2,4.8,5.2,7.9,6.7c1.1,0.5,2.2,1,3.3,1.5
				c0.7,1.4,2.2,2.1,3.5,2.7c1.5,0.7,3,1.3,4.6,1.7c3.1,0.8,6.4,1.1,9.6,1.2c3.2,0,6.7,0.1,9.6-1.1c1.4-0.6,2.6-1.5,3.8-2.5
				c0.9-0.8,1.8-1.8,2.9-2.3c1.2-0.5,2.1-1.7,1.7-3.1c-0.3-1.2-1.8-2.3-3.1-1.7c-0.4,0.2-0.8,0.4-1.1,0.6c-0.1-0.1-0.3-0.2-0.4-0.3
				c2-0.8,4-1.7,5.9-2.7c1.2-0.6,1.5-2.3,0.9-3.4c-0.4-0.6-0.9-1-1.5-1.1c0.8-0.6,1.5-1.2,2.3-1.9
				C405.5,175.9,405.3,174.1,404.4,173.2z"/>
		</g>
		<g id="Layer_2_00000018207461983880232510000000420579894750873511_">
			<path class="st1" d="M219.6,272.2l-10.2,2.2l-11.6,8.3l-5.9,4.3l-2.7,10.4l-8.9,4.3l-2,10.2l3.8,11.3l-2.2,15.1l1.1,9.9
				l-16.2,7.7l-6.2-14.8l-4.1-23.6l1.6-12.3c0,0,24.1-56.5,55.2-72.7s8.3,3.5,8.3,3.5"/>
			<polyline class="st1" points="264.7,307.5 274.5,426.1 304.5,421.2 316.8,293.4 			"/>
			<path class="st1" d="M188.8,50.5l-13.6-5.9l-13.5-4.8h-22.3h-19L107.7,44l-12,7.5L88,66.3l-3,14.8L89.2,99l11.4,7.2l12.7,4.5
				l10.7,0.2l16.6-2.9l11.3-6.9l12.8-5.1l8.9-10.5l6.4-6.7l4.3-3.3l8.8-14.1l4.7-6.2L188.8,50.5z M169.3,75.7l-9.1,3.4l-7.9,6.4
				c0,0-8.9,6.7-12.3,4.3c-3.4-2.3-6.8,6.1-6.8,6.1l-10.7,1.2l-8.2-6.2l-6.1-5.4l2.5-6.9l4.2-9.7l16.6-5.2l9-0.5h8.7l13,2.9l9.9,2.2
				L169.3,75.7z"/>
			<path id="Path_777" d="M218.4,270.6c2.6-5.8,2-11.6,0.6-17.5c-0.2-1-0.2-2-0.2-3c-0.4-5.5-0.7-11-1.2-16.6c0-0.4-0.4-0.7-0.7-1.1
				l-5.1,0.5c1.2-2.9,3.1-3.6,5.9-3.7c-0.3-6.1-0.3-12-1-17.8c-0.4-3.7-1.2-7.4-0.4-11.2c1.5-7.4,2.4-14.8,7.8-20.7
				c1.3-1.6,2.8-3,4.5-4.2c5.5-3.6,11-7.4,17.3-9.4c1.2-0.6,2.4-1.2,3.6-1.9c-0.8-3.8-1.5-7.6-2.4-11.4c-0.9-3.8-1.8-7.1-2.8-10.6
				c-2.6-9.6-7.7-18.1-12.6-26.6c-1.8-3.1-3.5-6.1-5.3-9.2c-0.8-1.2-1.7-2.4-2.7-3.5c-3.1-3.4-6.1-6.8-9.2-10
				c-3.6-3.7-7.3-7.2-11.2-10.5c-3.1-2.2-6.4-4.2-9.7-5.9c-1.2-0.7-2.7-0.4-3.5,0.7c-2,2.1-4,4.3-6.2,6.2
				c-7.8,7-15.8,13.7-25.5,17.9c-4.6,2-9.2,3.7-14,5.3c-1.8,0.5-3.7,0.8-5.5,1c-2.3,0.1-4.6,0.4-6.9,1c-5.4,2-10.4,0.6-15.4-1.1
				c-0.4-0.1-0.8-0.6-1.2-0.6c-5.2,0.5-8.8-2.7-12.5-5.5c-1.6-1.2-3.1-2.6-4.3-4.2c-4.6-6.6-8.3-13.7-7.2-22.1
				c1.5-12,5.4-22.9,15.6-30.5c2.6-1.9,5.5-3.4,8.5-4.6c5.2-2.1,10.4-4.1,15.7-5.7c2.8-0.8,5.8-1.2,8.7-1.1c9.1,0,18.2,0.3,27.3,0.6
				c2.5,0.1,4.9,0.4,7.4,1c4.7,1.1,9.4,2.4,14,3.8c1.7,0.5,3.2,1.3,4.6,2.5c2.2,1.8,4,4.5,7.9,1.8c-0.6,3.2-2.5,6-5.2,7.7
				c0.1-0.7,0.2-1.4,0.1-2.2c-0.1-0.8-0.2-1.8-0.8-2.3c-3.7-2.6-7-5.8-12.2-5.5c-1.6-0.2-3.2-0.6-4.6-1.2c-3.5-1.1-7.1-1.8-10.7-2.3
				c-8.3-0.6-16.7-0.4-25.1-0.9c-7.6-0.5-14.5,1.7-21.3,4.5c-1.5,0.6-2.9,1.4-4.4,2c-9.7,3.6-17,11.7-19.7,21.7
				c-1.8,6.1-3.8,12.6-1.4,19c2.8,7.4,6.3,14.6,14.2,18.1c1.8,0.9,3.9,1.3,5.9,1.2c2.6,0.1,5.1,0.8,7.5,1.8c2.1,1,4.5,1.3,6.8,0.8
				c3.1-0.7,6.3-0.9,9.5-1.3c1.6-0.1,3.2-0.3,4.8-0.7c15.8-4.9,30-14,41.1-26.2c5.5-6.3,10.6-12.9,15.3-19.8
				c0.9-1.7,1.7-3.4,2.2-5.2c0.8-1.7,1.6-3.4,2.6-5.5l15.8,7.7c-3.2-6.2-10-7.8-12.9-13.7c0.9-0.1,1.6-0.5,1.8-0.3
				c3.1,2.2,6.1,4.5,8.9,7c3.7,3.6,7.1,7.5,10.6,11.2c0.5,0.3,1,0.6,1.6,0.8c0-0.7-0.1-1.4-0.3-2.1c-4-5.6-8-11.2-12.1-16.8
				c-1.3-1.8-3.3-3.3-3.1-5.9c8.2,8.2,16,16.7,19.9,28.5c-4.4-0.4-7.6-1.5-9.8-4.8c-2-3-5.1-1.1-7.9-1.2c11,8,20.5,18.1,27.8,29.6
				c1-2,1.8-3.5,2.6-5c2.3-4.2,3-4.5,7.7-3.3l1.6,0.4c2.3-5,4.5-10,6.6-14.4c-2.4-3-4.6-5.3-6.4-7.9c-2.4-3.2-2-7.7,1-10.4
				c2-1.8,4.2-3.2,6.6-4.2c6.2-2.8,12.6-4.7,19.3-5.9c0.9-0.3,1.8-0.7,2.6-1.2l-0.9-10.3c2.6,2.8,2.9,6.2,4,9.8
				c1,0.1,2.1,0.4,3.3,0.4c4.5,0.3,9.1,0.6,13.6,1c5.7,0.5,10.2,3.6,14.1,7.4c3.3,3.2,3.5,6.9,0.8,11.2c-2,3.6-5.1,6.5-8.8,8.4
				c-2.8,1.2-4.8,3.9-5.2,7c-1,4.1-2.2,8.2-3.4,12.3c-0.7,2.2-1,4.1,1.3,5.9c1.3,1.5,2.5,3.2,3.3,5h6.6c-0.7-2.8-1.3-5.4-1.8-8.1
				l0.8-0.4c0.5,0.5,1.2,1,1.5,1.6c1.8,4.3,3.7,8.6,5.5,12.9c1,2.3,2,4.6,2.9,6.9c1.7,4.3,2.8,4.7,7.4,2.2c-0.1-0.8-0.3-1.6-0.5-2.4
				c-2-4.9-3.3-10-3.7-15.3c-0.4-3.3,0-7.2-4.1-9.2c2.7-1,3.1-0.9,3.7,1c2,6.3,3.9,12.6,5.9,18.8c0.6,1.8,1.3,3.6,2.3,5.2
				c0.6,0.7,1.5,1,2.5,1c0.4,0,0.7-1.3,1.1-2c0-0.1,0-0.3,0-0.4c-2.4-6.9-1.7-14.2-3.1-21.2c-0.4-2.2-1.8-2.3-3.5-3.1
				c1.6-0.6,3.2-1,4.8-1.2c6-0.2,12-0.1,18.1-0.1c3-0.1,5.9,0.8,8.2,2.6c0.6,0.6,1.4,1.1,2.3,1.3c4.1,0.4,7.4,2.7,11,4.1
				c5.4,2.2,10.3,5.5,14.5,9.6c2.8,2.6,6,4.8,8.7,7.5c3.5,3.3,6.8,6.9,9.6,10.8c2.7,4,4.9,8.3,6.5,12.9c1.8,4.8,2.9,9.8,4.3,14.7
				c1.2,5,1.5,10.2,0.9,15.3c-0.7,9.3-2.9,18-9.9,24.7c-2.4,2.3-4.5,5-7,7.3c-11.8,10.5-25.2,9.5-38.9,5.2
				c-7.5-4.9-14.9-9.9-19.2-18.3c-1-1.8-2.2-3.5-3.4-5.2c-2.6-3.6-4.5-7.6-5.7-11.8c-0.7-2.5-1.6-5-2.7-7.4
				c-4.6-0.8-7.4,3.7-11.7,3.5c0.9-2.9,0.9-2.9,10.7-7.4c-0.8-2.9-1-3.2-3.1-1.8c-3.4,2.1-6.6,4.4-9.8,6.7c-1.9,1.6-4.3,2.3-6.8,1.9
				c-0.9-6.8,6.1-8.2,8.6-12.8c-7.4,0.8-14.7,9.3-14.3,19.1c4.9,2.5,10,5,15.1,7.5c1.7,0.8,3.3,1.8,4.9,2.9
				c6.8,5.3,11.5,13,13.2,21.5c1.7,7.8,0.3,14.7-2,21.9c-0.7,2.5-1.2,5.1-1.5,7.7c-0.8,5.9-1.5,11.9-2.3,18.1c1.6,0.5,3.3,1,4.9,1.4
				c5.3,0.8,10.4,1.9,13.9,6.7c0.9,1,2,1.8,3.2,2.3c9.8,4.8,15.6,13.4,19.8,22.8c3.3,7.4,3.9,15.6,4.1,23.7
				c0.2,10.9-0.7,21.7-2.6,32.4c-2.1,11.8-6.7,22.4-11.2,33.2c-2.2,4.6-4.7,9.1-7.4,13.5c-0.7,1.4-2.2,2.1-3.7,1.8
				c-1.9-0.3-3.8-0.5-5.7-0.7c-4.2-0.5-5.1,0-6.6,4c-0.5,1.2-0.5,2.6-0.8,3.9c-0.3,0.9-0.7,1.8-1.1,2.6l-0.9-0.3l2.3-10.9l-4.4-1.5
				l-6.6,11.6c1.1,1.5,2.6,2.6,2.8,3.9c0.2,1.3-0.8,2.9-1.7,5.3l-2-4c-1,0.9-2,1.9-2.9,2.9c-0.9,1.1-1.8,2.6-3,3.8
				c-1.1,1.2-2,1-3.4-0.2c0.7-0.8,1.1-1.8,1.8-2.1c4-1.6,5.2-5,5.8-8.7c0.2-1.9,0.9-3.6,2-5.1c1.4-2.3,2.6-4.7,3.5-7.2
				c-2-0.5-3.4-1-4.8-1.3c-1.8-0.4-2.2-1.5-1.8-3.2c0.4-5,2-9.7,4.6-14c1-1.4,2.2-2.6,3.6-3.7c1.8-1.1,2.6-3.3,2.2-5.3
				c-0.5-2.6-0.6-5.2-0.8-7.9c-0.2-2.5,0.8-5,2.7-6.8c3.9-3.4,4.9-9.1,2.3-13.6c-1.5-3.1-1.2-6.8,0.6-9.7c0.7-1.3,1.4-2.6,2.2-3.8
				c2.9-4.8,1.4-11.1-3.5-14.1c-0.1,0-0.1-0.1-0.2-0.1c-2.7-1.3-4.4-4-4.4-7c0.1-2.3-1.3-4.4-3.3-5.2c-1.5-0.8-2.9-1.8-4.2-2.9
				c-0.5,3-0.9,5.7-1.3,8.4c-1.7,10.6-3.5,21.1-5,31.8c-1.3,8.7-2.1,17.5-3.2,26.2c-0.5,3.9-1.5,7.8-2.1,11.7
				c-1.1,6.7-2.1,13.4-3.2,20c-0.9,5.3-2.1,10.7-3.2,16c-1.1,4.4-2.4,8.7-3.1,13.2c-0.6,3.6-0.8,7.3-0.6,10.9
				c0.3,6.1,0.1,12-3.4,17.3c-0.9,1.3-1.9,2.5-3,3.7c-0.7,0.9-1.5,1.8-2.4,2.5c-1.8,1.6-3.8,3.1-5.8,4.5c-2,1.5-3.5,2.5-5.3,3.7l0,0
				c-0.3-2.7,1.7-3.8,3.6-5c2.2-1.4,4.3-3.1,6.5-4.5c5.2-3.5,5.5-9.2,6.6-14.6c0.1-0.8-1-1.8-1.8-3.1c1.7-4.5,1.7-9.6,0-14.1
				c-1.3-4.9-2.3-9.9-2.9-14.9h-0.8c0,1.3-0.1,2.7-0.3,4c-0.7,5.2-1.5,10.5-2.1,15.7c-0.4,3.7-0.6,7.5-1,11.3
				c-0.3,3.8-0.6,7-0.8,10.4c-0.1,1.2-0.1,2.3,0,3.5h-0.1c-1.2,4-1.3,4.1-4.5,3.3c2.6-7.1,3.1-14.5,3.3-22c0.1-3.7,1.1-7.5,1.5-11.3
				c0.4-3.2,0.6-6.4,0.9-9.6c0.3-4.2,0.6-8.5,0.9-12.7c0.3-3.3,0.1-6.7-0.7-10c-1.8-6.9-3.1-14-5.1-21c-2.4,7.4-1.8,15-3,22.5
				c-1.1,7.8-1.4,15.8-1.8,23.7c-0.5,7.8-1,15.3-1.4,24c-0.9-1.4-1.4-3-1.1-4.7c0.3-9.7,0.3-19.4,0.9-29.1c0.7-11.7,2-23.4,2.9-35.1
				c0.5-6,0.6-12,0.8-18.1c-0.1-1-0.3-2-0.7-3l-11.7,5.5c-0.4,6.4-0.8,12.9-1.2,19.5c-0.8,12.2-1.7,24.3-2.5,36.5
				c0,0.6-0.2,1.2-0.2,1.7c-0.1,11.8-0.2,23.3-0.3,34.9v11.5h5.8c1.9,0.1,3.5-1.3,3.7-3.2c0.7-3.9,1.4-7.7,2.1-11.6
				c0.2-0.8,0.8-1.6,1.5-1.9c0,0.9,0,1.7,0,2.6c-0.4,4.3-0.8,8.7-1.4,13c-0.3,1.4-0.7,2.7-1.3,4c-3.6-2.1-6.5-1.3-9.7,0.6
				c1.8,1.8,4.5,0,5.5,2.4c0,0.2-0.1,0.5-0.2,0.5c-14.4,2-28.1,0.8-40.2-8.2c-2.2-1.7-4-3.7-5.5-6.1c-2.9-4.4-5.5-9-8.1-13.5
				c-0.5-0.8-1-2.2-0.6-2.8c2.1-3.3,1.1-6.9,1.1-10.3c0-4.8-0.4-9.7-0.6-14.5c-0.8-19.8-1.6-39.6-2.4-59.4c-0.1-2.9,0-5.9-0.1-8.8
				c-0.3-4.8-0.8-9.6-1.1-14.5s-0.7-9.6-0.9-14.5c-0.4-7.8-0.6-15.6-1-23.3c0-1.2,0.4-3.3-2.2-2.6L218.4,270.6z M245,440.3
				c0.3-3.9-1.1-5.2-6.7-6.2L245,440.3c1.9,1,3.9,1.9,5.8,3c1.8,1.3,4,1.7,6.1,1.2c-1-4.7-5.6-4.1-7.9-6.3
				C247.4,438.9,246.2,439.6,245,440.3z M239.3,85c-3.7,5.5-7.5,11-11.4,16.8l2.8,4.9c4.4-4.9,8.3-9.4,12.3-13.9
				c1.3-1.5,1.3-3.7,0.2-5.3C242.4,86.1,241.6,84.1,239.3,85c0.6-4-2.2-5.8-5.3-8.1c-4.2,6.3-8.3,12.3-12.5,18.5l4.1,4.1
				c3.7-4.1,6.8-7.9,10.2-11.6C236.8,86.8,238,85.9,239.3,85L239.3,85z M285,237c2.9-0.1,5.9-0.2,8.8-0.4c8.3-0.4,16.4-2.4,23.9-5.7
				c7.7-3.5,13.7-9.5,18.8-16.2c0.5-0.7,0.9-1.5,1.2-2.3c1.5-5.7,3-11.4,1.1-17.3c-0.3-0.8-0.5-1.7-0.6-2.6
				c-0.8-6.4-4.6-11.3-8.6-15.9c-5.1-5.9-13.5-5.9-19.3-10.8c-1.5-0.9-3.1-1.6-4.8-2c-0.1-0.1-0.3-0.1-0.4-0.1
				c-4.2-0.9-8.3-1.7-12.5-2.6c-8.2-2-16.6-2.1-24.9-0.3c-13.3,3.3-25.8,9-37,16.8c-4.2,2.8-7.3,7-8.5,11.9c-1.4,5.3-3,10.5-1.7,16
				c2.8,12.2,11,20.2,22,24.6C256,235.4,270.5,237.8,285,237L285,237z M338.4,152.3c1.2,2.8,2.2,5.4,3.3,7.9
				c1.1,2.5,2.6,5.5,4.1,8.2c1.2,2.2,2.9,4.1,4,6.3c3.3,6.1,8.5,10.4,14,14.3c3.1,2.5,6.8,4.2,10.7,4.8c4.7,0.5,9.4,0.7,14,0.5
				c4.4-0.4,8.7-2.1,12.2-4.9c5.4-4.5,10.1-9.8,13.9-15.7c1.1-1.4,1.9-3,2.3-4.7c1-7,1.7-13.9,2.3-21c0.3-2.5,0.1-5-0.6-7.4
				c-2.4-6.6-3.4-13.7-7.8-19.4c-1.5-1.8-2.1-4.6-3.7-6.5c-6.1-7.1-12.9-13.6-20.2-19.4c-1.9-1.3-3.8-2.5-5.9-3.6
				c-2.6,3.4-9.9,19.9-10,22.6c3.9,2,7.5,4.4,11,7c6.9,5.7,12.7,12.7,16.8,20.7c2.7,5.1,4,10.8,3.7,16.6
				c-1.1,11.9-4.9,21.6-18.1,24.4c-7.7,1.7-15.2,1.5-22-3.2c-7.4-5-13.7-11.5-18.4-19.1c-1.3-2-1.9-4.5-1.7-6.9
				c1,0.9,1.9,1.8,2.7,2.8c4.4,6.5,9.8,12.4,15.8,17.5c6.4,4.9,12.9,7.4,20.8,6.1c4.2-0.7,8.6-1.5,11.4-5.1c6.5-8,8.8-17.2,4.9-26.8
				c-4.5-11.6-12.8-21.4-23.4-27.7c-6.7-4.1-14.3-6-21.7-8.2c-7.2-2.1-14.8-2.4-22.2-0.9c-1.4,0.3-2.6,1.1-3.4,2.2
				c-2.2,4.6-4.2,9.3-6.1,14.1c-0.5,1.7-0.8,3.4-0.9,5.1h8.3c1.8,0,2.6,0.7,3.4,2.5c2,4.4,4.4,8.5,7,12.5
				C340.7,150.2,341,150.1,338.4,152.3L338.4,152.3z M354.9,293.2l0.8,0.3c1.7,4.2,3.3,8.4,5,12.5c1.7,3.4,1.1,7.5-1.3,10.4
				c-3.5,3.7-4.5,9.1-2.6,13.8c1.9,4.5,0.7,9.7-2.9,12.9c-1.1,1-1.9,2.3-2.3,3.7c-1.1,3.3-0.2,4.7,3.1,5.9l5.3,2
				c6.6,2.6,7.4,2.1,10-4.4c3.6-9,6-18.4,7.4-28c2.1-12.5,2.1-25.2,0-37.7c-1.7-8.5-5.5-16.4-11.2-22.9c-3.8-4.7-10.1-6.7-13.1-12.2
				c-0.4-0.7-1.5-1-2.2-1.3c-3.2-1.5-6.4-2.9-9.6-4.4c-4-1.8-5.2-1.3-6.3,3.2c-0.1,0.6-0.4,1.1-0.5,1.7c-0.6,3.7-1.7,7.4-1.5,10.9
				c0,3-0.3,6-0.9,8.9c-0.3,1.4-0.1,2.8,0.6,4.1c1.6,2.1,3.4,4,5.5,5.6c1.8,1.1,2.9,3,3.2,5c0.3,3.5,2.1,6.7,4.8,9
				c4.2,4,6.4,8.8,3.4,14.7c-0.8,1.6-1.4,3.3-2.2,4.8c-1.6,2.5-1.6,5.8,0,8.3c2.3,4.7,1.6,10.2-1.7,14.3c-1.4,1.5-2.3,3.3-2.7,5.3
				c0,3.7,0.2,7.4,0.7,11c2.7,0.3,3.8-0.6,4-2.8c0.1-3,1.8-5.8,4.3-7.4c1.8-1.1,2.8-3.2,2.4-5.3c0-1.8-0.3-3.5-0.9-5.2
				c-2.7-5.8-0.6-10.2,3.4-14.3c3.4-3.4,3.7-6.7,1.3-11c-1.4-2.6-2.7-5.2-3.7-8C354.5,295.5,354.6,294.3,354.9,293.2L354.9,293.2z
				 M308,402.7l1-0.3c0.5-1.5,0.9-3.1,1.3-4.6c0.9-5.6,1.5-11.3,2.4-16.9c1.7-10.4,3.5-20.8,5.3-31.3c0.9-5.3,1.8-10.7,2.6-16.1
				c1.4-9.7,2.6-19.4,4.1-29.2c1-6.5,2-13,3.3-19.5c1.1-5.8,0-11.8,1.8-17.6c0.5-2.7,0.9-5.5,1.1-8.3c1.5-9,3.1-17.9,4.6-26.9
				c0-1.2-0.1-2.3-0.4-3.5c-0.8,0.8-1.5,1.6-2.1,2.6c-1.1,2.7-1.8,5.5-3.1,8.2c-4.4,9.9-8.9,19.8-13.2,29.7
				c-2.2,5.1-4.5,10.1-4.9,15.8c-0.6,8.6-1.6,17.2-2.5,25.8c-0.7,4.5-1.2,9-1.5,13.6c-0.1,13-1.3,25.9-3.4,38.6
				c-1,5.7-1.8,11.6-0.5,17.5c1.2,5.1,1.8,10.4,2.9,15.6C306.9,398.3,307.4,400.5,308,402.7L308,402.7z M323.5,116
				c-4.9-0.7-8.9-1.5-13-1.7c-5.2-0.4-10.5,0.1-15.7-0.6c-3.7-0.5-6.8-1.3-8.7,2.7c-0.5-0.5-0.8-0.7-0.8-0.9c-0.3-1.9,0.4-3.8,2-4.9
				c2.9-2.3,5.4-5.1,3.1-9.4c-0.4-1.4-0.5-2.8-0.3-4.3c0-0.9,0-1.8-0.1-2.8c-0.9,0.2-1.6,0.9-2,1.7c-0.4,1.1-0.7,2.3-0.8,3.4
				c-0.2,2.7-3.7,0.6-4.1,2.9c0,0.1-0.5,0.1-0.9,0.2V99c-2.2,0.7-4.1,1.4-6,1.8c-5.5,1.4-9.4-1.7-10-7.4
				c-0.4-6.9,4.8-12.9,11.7-13.6c5.5-0.3,8.3,1.4,8.4,7v3.5c1.7,0.5,3.1,0.9,4.5,1.2c3.6-2.2,7.1-4.7,10.2-7.5
				c1.7-4.2,3.5-8.4,5.2-12.6c0.7-1.8,1.8-3.7,0.8-5.3c-7.1,0.7-13.8,1.5-20.6,1.9c-6.7,0.4-13.3-1.6-19.5-3.7
				c-6.9,7.4-13.6,43.4-10.5,53.7l3.7-4.6c3.3-0.8,6.4-1.6,9.5-2.3c3.3-0.6,6.8-0.2,9.9,1.2c-1.4,4.1,0.8,6.4,3.8,7.9
				c2.7,1.4,5.7,2.3,8.7,2.5c7.5,0.3,15,0.1,22.3,2.1c1.6,0.3,3.2-0.1,4.4-1.1C320.6,121.4,322.2,118.8,323.5,116L323.5,116z
				 M278.2,246.7c-4.1-0.4-7.6-0.8-11.2-1.1c-3-0.2-3.7,0.4-4,3.2c-0.1,1-0.1,2.1,0,3.1c0,8.4,0.1,16.7,0,25.1
				c-0.4,16.1-1,32.3-1.5,48.4c-0.1,3.2,2.9,8.1,5.8,8.9c2.7,0.6,5.5,1,8.2,1.2c0.2-2,0.4-3.4,0.5-4.9c0.5-11.7,0.9-23.4,1.3-35.1
				c0.4-12,0.8-24,1.1-36.1C278.4,255.3,278.2,251.2,278.2,246.7L278.2,246.7z M262.7,335.7c-0.2,0.5-0.4,1.1-0.5,1.6
				c-0.3,7.2-0.6,14.4-0.7,21.6s0.2,14.1,0,21.2c-0.7,18.8-1.6,37.6-2.5,56.3c0,1.8,0.2,3.1,2.2,3.8c3.4,1.2,6.7,2.6,9.9,4
				c0.4-0.6,0.6-0.8,0.6-1.1c0.5-10.9,1.5-21.7,1.2-32.5c-0.4-6.7-0.3-13.3,0.3-19.9c0.3-2.3,0.3-4.7,0.4-7c0.6-11,1.2-22,1.6-33
				c0.2-3.9,0-7.8,0-11.5C271.2,336.4,266.1,339.9,262.7,335.7L262.7,335.7z M280.7,247c-0.7,29.3-1.4,58.4-2,87.8
				c3.7-0.5,7.2-1.1,8.7-4.2c2.9-5.9,5.9-11.8,5.5-18.8c-0.3-5.5-0.5-11.2-0.3-16.7c0.3-8.4,1-16.7,1.6-25c0.1-2.4,0.2-4.7,0.5-7
				c0.6-4.5,1.2-9,1.8-13.5c0.5-3.7-0.7-4.8-4-4.2C288.8,245.8,285.1,246.3,280.7,247L280.7,247z M229.2,404.4l0.9,0.2
				c2.2-5.7,4.5-11.2,3.9-17.7c-0.7-7-0.5-14.1-0.8-21.1c-0.2-4.4-0.5-8.8-0.6-13.2c-0.3-6.6-0.6-13.2-0.7-19.7
				c-0.2-10.1-0.2-20.2-0.3-30.4c0-11.4-0.1-22.9-0.3-34.3c0-3.7,0.6-7.5-0.3-10.9c-1.9-7.2-4.6-14.2-7.1-21.3
				c-1-2.9-2.1-5.8-3.2-8.7l-1,0.2c0.3,3.9,0.4,7.8,0.8,11.7c0.6,6.7,1.5,13.4,1.9,20.2c0.8,13.5,1.3,27,1.8,40.5
				c0.1,2.1,0.3,4.1,0.6,6.1c0.6,5.2,1.6,10.5,1.8,15.7c0.6,12,0.8,24.1,1.2,36.1c0.1,4,0.4,7.9,0.6,11.9c0.3,8.2,0.5,16.4,0.7,24.6
				C229.2,397.7,229.1,401,229.2,404.4L229.2,404.4z M234.3,266.4c-0.3,0.7-0.6,1.5-0.7,2.2c-0.1,4.2-0.4,8.5-0.2,12.8
				c0.3,7.8,1,15.5,1.2,23.3c0.6,21.7,1,43.5,1.5,65.2c0.1,4,0.5,7.9,0.8,11.8l0.9,0.1c1.9-5.2,3.7-10.4,5.9-15.6
				c2.1-5.2,2.8-10.8,2.1-16.3c-0.6-6-1-12-1.1-18c-0.1-10.7,0.1-21.4,0.1-32.2c0.1-2.3-0.1-4.7-0.8-6.9
				C241,284.2,237.7,275.7,234.3,266.4L234.3,266.4z M258.7,334.5h-1c-2.1,5.9-3.9,11.9-6.2,17.8c-2.7,7.5-3.8,15.4-3.4,23.3
				c0.2,11.2,0,22.3-0.2,33.5c0,7.4-0.3,14.7-0.3,22.1c-0.1,1.3,0.3,2.5,1.1,3.4c2.4,1.5,4.8,2.9,7.4,4.1
				C258.5,403.5,259.2,369,258.7,334.5L258.7,334.5z M247.2,242c-0.1,1.8-0.3,3.4-0.3,4.9c0.1,13.5,0.2,27,0.4,40.5
				c0,2.6,0.4,5.2,1.2,7.7c1.8,5.5,4.2,10.9,6.3,16.4c0.9,2.4,1.8,4.8,2.9,7.2c0.7-0.8,1.1-1.9,1.2-3c0.1-3.2,0.1-6.4,0.3-9.6
				c0.5-11.1,1-22.3,1.5-33.4c0.4-7.9,0.9-15.8,1.4-23.7c0.2-2.7-0.3-3.9-3-4.6C255.4,243.5,251.5,242.9,247.2,242L247.2,242z
				 M311.2,137.8l-11.7-2.7c2.1-0.2,4.2-0.1,6.2,0.3c9.2,1.5,10.1,1.5,11.7-7.7c-0.2-0.5-0.4-1-0.7-1.4l-37.2-2.5l-1.6,7.3l15.7,3.5
				c-4.3,0.2-8.6,0.2-12.9-0.1c-2-0.3-4.1,0.3-5.8,1.4c-3.4,2.5-7.1,4.5-10.8,6.8c-0.6-0.6-1.2-1-1.9-1.4c-4-1.1-7.1-4.3-8-8.4
				c-0.2-0.5-0.5-1-1-1.2c-2.9-1.3-5.8-2.2-9,0l3.8,10.6c9.3,0.6,18.3,1.3,27.2,1.8c1.3,0,2.6-0.3,4-0.3c3.5,0,7-0.2,10.5,0
				c4.2,0.3,8.4,1.2,12.7,1.6c1.1,0.1,2.2-0.3,3.1-1C307.3,142.3,309,140.1,311.2,137.8L311.2,137.8z M298.1,245.2
				c-0.6,20.6-3.2,40.8-2.1,61.1c0.5-0.3,0.9-0.8,1.1-1.4c3.8-8.7,7.6-17.4,11.3-26.2c1-2.3,1.7-4.7,2.1-7.1
				c1.4-9.1,2.6-18.3,3.9-27.4c0.1-1.1,0.1-2.1,0-3.2L298.1,245.2z M308.3,291.2l-0.9-0.2c-0.4,0.6-0.7,1.2-1,1.8
				c-3.3,8.2-6.4,16.4-9.8,24.5c-3,7.6-3.7,15.8-2.2,23.8c1.2,7.8,3.7,15.3,5.7,23c0,0,0.3,0.1,0.6,0.2c0.3-2,0.7-3.9,1-5.9
				c1.2-6.6,2-13.3,2.3-20.1c0-7.8,0.7-15.6,1.4-23.3C306.1,307.1,307.3,299.1,308.3,291.2L308.3,291.2z M301.9,147.4l-52.4-1.8
				c-0.6,3.2,0.6,5.7,2.3,8.5l18.7,0.7c1,0,2.1,0.1,3.1,0.3c3.3,0.9,6.7,1,10,0.3c1.7-0.2,3.5-0.2,5.2,0c5.8,0.6,11.6,1.2,17.3,1.8
				l3.3-6.5C304.7,153.1,303.9,149.6,301.9,147.4L301.9,147.4z M244.7,373.4c-2.2,5.7-4.3,10.8-6,16c-0.9,2.6-1.4,5.4-1.5,8.1
				c0,8.2,0.2,16.4,0.3,24.6c0,6.6,0.6,7.4,6.9,9.8C245.6,428.1,246,379.5,244.7,373.4L244.7,373.4z M243.7,281l0.8-0.2
				c0.4-12.9,0.7-25.7,1.1-38.7c-4.6-0.9-7.1-5.5-12.3-6.2c0.3,8.5-1.4,16.7,2.8,24.2c0.6,1.2,1,2.4,1.4,3.7
				C239.6,269.5,241.6,275.3,243.7,281L243.7,281z M352.4,108.1c0.5-2.4,1.1-4.6,1.5-6.9c0.8-4.5,1.4-9,4.1-12.9
				c0.5-0.7,0.9-1.5,1.1-2.4c0.7-3-0.3-4.4-3.4-4.7c-3.1-0.3-6.1-0.6-9.2-0.8c-1.5-0.1-2.9-0.1-4.4,0.1c-3,0.4-3.7,1-3.2,4
				c0.8,5.5,1.8,11,2.9,16.4c0.8,2.4,1.7,4.7,2.9,6.9c0.6-3.6,1-6,1.3-8.4s0.7-5.2,1-7.9c0.3-2.3,0-4.7,1.8-6.6
				c0.4,5.2,1.3,10.2,0.2,15.3c-0.3,1.7-0.4,3.5-0.5,5.3C348.4,107.7,349.6,108.3,352.4,108.1L352.4,108.1z M348.3,355
				c-1.3,6.2-4.3,11.5-5.2,18l13.9,2.5c3-5.6,6.6-10.2,8.8-16.1L348.3,355z M204,78.5l7.7-8.6c1.5-1.7,3.1-3.5,4.6-5.3
				c1.5-1.8,1.3-2.9-0.7-4.2c-1.7-1.2-3.2-2.7-5.1-4.3c-4.7-0.1-8.2,2.2-10.3,7.1c-1,1.8-2.2,3.4-3.5,5c-1,1.4-1.8,2.8-2.8,4.2
				C196.5,75.4,200.1,77.6,204,78.5L204,78.5z M248.5,349c0.7-0.6,1.1-0.8,1.2-1.1c2.2-4.8,4.1-9.7,5.7-14.7c0.7-2.5,2.3-5.1,1.1-8
				c-2.3-5.7-4.6-11.4-6.9-17.1c-0.6-1.1-1.3-2.2-2.1-3.2C246.7,319.5,247,334.2,248.5,349L248.5,349z M290.9,109.8
				c4.5,1.1,9,1.9,13.6,2.4c5.8-0.1,11.6,0.6,17.3,1.8c1.2,0.3,2.3-0.5,2.6-1.6c0.1-0.3,0.1-0.7,0-1c-0.7-4-3.1-6.2-7.4-5.9
				c-6.5,0.4-13.1-1.8-19.4,0.9c-0.9,0.2-1.8,0.2-2.6,0C292.7,105.6,291.6,106.9,290.9,109.8L290.9,109.8z M240.5,234.3
				c0.9,2.1,2.9,3.6,5.1,4c3.9,1.1,7.9,2,12,2.6c5.5,0.8,11,1.2,16.6,2c5.2,0.6,10.5,0.6,15.7,0c2.3-0.2,4.6-0.6,6.9-1
				c7.6-0.7,15-3.2,21.5-7.1C292.3,243.2,266.4,242.4,240.5,234.3L240.5,234.3z M227.2,69.5l-12.8,17.8l4.9,5.6
				c0.6-0.6,1.2-1.3,1.7-2.1c1.6-3.5,4.1-6.5,7.1-8.8c1-0.9,1.9-1.8,2.8-2.8c2.7-3.2,2.6-5-0.6-7.8
				C229.3,70.8,228.2,70.1,227.2,69.5L227.2,69.5z M212.1,85.1c1.8-2.4,3.1-4.4,4.7-6.1c2.3-2.6,5-5,7.4-7.6c2-2.3,1.4-4.7-1.3-6.2
				c-1.9-1-4.2-0.6-5.5,1c-4.3,4.1-7.2,9.2-10.6,14.5L212.1,85.1z M314.5,262.9c4.2-5.5,13.4-26,13.4-30.2c-3.7,2.1-7.3,4-10.7,6.2
				c-0.9,0.8-1.4,1.8-1.5,3C315.3,248.9,314.9,255.8,314.5,262.9L314.5,262.9z M366.8,112.6c1-2.7,2.2-5.3,3.4-7.9
				c2-3.6,4.4-6.9,6.5-10.4c0.7-1.3,1.2-2.6,1.7-3.9l-7.2-3.7c-5.2,7.5-5.5,16.2-9.1,24.1L366.8,112.6z M274.3,120.5
				c-3,3.3-6.1,3.2-9.5,3.6v-3.7c-3.3,1.8-4.2,2.9-4.6,5.6c-0.3,2.2,0.8,4.4,2.8,5.5c1.7,1.2,4,1.1,5.7-0.2
				c4.5-2.7,6.5-7.4,9.4-11.4c0.6-0.7,0.5-1.7-0.1-2.3c-0.3-0.2-0.6-0.4-1-0.4c-3.5-0.8-6.9-1.1-9.5,2.3L274.3,120.5z M252.4,129.1
				c2.5-3.9,1.5-7.3,0-10.6c-2.5,0-4.8,0.1-7.1,0s-4.8-0.7-8.1-1.2l5.1,9.9L252.4,129.1z M362,83.7c-2.5,4.4-5.8,19.9-5.5,25.8
				c2,1.2,2.3-0.2,2.9-1.7c2.9-6.8,4.3-14.3,8.8-20.3c0.1-0.2,0-0.6-0.2-1L362,83.7z M235.5,114.6l12.4-14.2c-1.1-2.7-1.8-4.9-3-7.6
				c-4.5,5.9-8.7,11.3-13,16.8L235.5,114.6z M318.8,150.4l0.4,0.6c3.2-2,6.4-3.9,9.8-5.6c4.6-2.1,4.8-2.1,2.5-6.6
				c-0.3-0.5-0.5-1-0.8-1.6c-0.6-1.5-2.2-2.3-3.7-1.8c-6.6,0.7-11.8,4-16.6,8.4c-0.8,1-1.4,2-2,3.1c1.6-0.9,2.3-1.2,2.9-1.6
				c4.6-3.4,10-5.5,15.7-6.2c1.2-0.1,2.4-0.5,2.8,1.1L318.8,150.4z M252.5,117.3v-7.4c-0.1-0.7-0.3-1.3-0.8-1.8
				c-1.3-1.2-6.7-1-7.8,0.5c-1.4,1.8-2.5,4.1-4.1,6.6L252.5,117.3z M343.8,354.1c-5.7,2.2-7.2,7.3-9.2,11.8c-0.4,1.7-0.2,3.5,0.6,5
				c0.3,0.7,2.2,0.8,3.3,1.1C340.1,365.6,343.9,360.6,343.8,354.1L343.8,354.1z M251.6,97.8c2.6-1.2,2.7-3.1,2.1-5.5
				c-1-2.9-1.3-6.1-0.7-9.2l2.5,5.5c0.7-2.3,1.1-3.8,1.5-5.3c0.6-1.4,0-3.1-1.5-3.7c-0.1-0.1-0.3-0.1-0.4-0.1
				c-1.3-0.7-2.9-0.2-3.5,1.1c-0.1,0.2-0.2,0.5-0.2,0.7c-1,3-1.7,6.1-2.3,9.2C248.3,93.2,249.3,96.1,251.6,97.8L251.6,97.8z
				 M320.7,102.8c-1.5-6.1-2.7-7.4-6.8-7.4c-4.8,0-5.8,0.8-7.2,6.4C311.3,102.8,316,103.1,320.7,102.8L320.7,102.8z M252.1,162.3
				l19.4-5.3c-6.6-1.3-13.1-0.2-20.2-0.6L252.1,162.3z M230.1,245h0.8c-0.1-1.7,0-3.5,0.3-5.2c1-4.4-1.3-6.8-5.5-8.9L230.1,245z
				 M234.2,407.7h-0.8l-2.7,7.9l3.5,5.6V407.7z M252.3,106.5l0.6-4.4c-2.9-0.3-4.9-0.2-6,2.7L252.3,106.5z M258.5,442.6
				c0.6,1.6,0.6,2.6,1.1,2.8c2.6,1.4,5.4,1,8.1,0.8l0.2-0.9L258.5,442.6z M294.9,158.7c3.4-0.3,6.4,3.4,10.8,1.1
				C301.8,157.6,298.4,158.2,294.9,158.7L294.9,158.7z M237.6,232.5l-9.2-6.1C230.7,229.5,233.1,232.3,237.6,232.5L237.6,232.5z
				 M332.8,223.5c2.7-0.2,2.7-0.2,3.1-3L332.8,223.5z"/>
			<path id="Path_778" d="M144.4,440.3l-2.5-2.4c3.7-7.7,9.9-12.9,16.7-17.5c0.6-0.4,1.4-0.5,1.9-0.9c2.8-1.8,5.4-3.9,7.8-6.3
				c4.2-4.9,10.2-7.4,15.1-11.2c1.2-1,2.6-1.9,4.1-2.5c4.1-1.7,5.2-4,3.7-8.2c-0.4-1.2-0.9-2.4-1.3-3.7c-0.1-0.6-0.2-1.2-0.1-1.8
				c4.9,4.2,6.1,8,4.6,13.3l10,11.8c1.1-1.9,2-3.9,2.8-6c0.7-2.2-1.7-5-4.4-5.7c-1-0.3-1.8-0.6-2.8-0.9c-0.1,0-0.1-0.2-0.3-0.5
				s0.2-0.8,0.5-1c3.1-1.9,2.8-1.7,0.6-4.7c-2.3-3.3-4.3-6.8-6-10.5c2.2,1.2,3.2,3.5,4.6,5.3c0.8,1,1.5,2.4,2.6,2.8
				c2.6,0.9,4.2,3.7,3.7,6.4c1.6,0.7,3,1.8,4.5,1.8c4.2,0,5.7,2.8,7.5,5.7c1.2,1.7,1.1,4.1-0.3,5.7c-5.5,7.9-12.7,14.6-20.9,19.7
				c-4.1,2.7-7.7,5.9-10.8,9.6c-8.4,9.8-19.2,16.3-30.1,22.7c-0.5,0.3-1,0.5-1.6,0.8c-5.2,2.3-5.1,2.3-8.4-2.4
				c-2-2.9-4.2-5.5-6.5-8.3c-1.4-1.8-1.7-3.1,0.3-4.8C141.2,444.6,142.9,442.5,144.4,440.3z M164.2,428.4c-0.5-1.5-1.7-1.8-2.9-2.2
				l-0.4,0.8L164.2,428.4c2,2.6,3.9,5.3,5.9,7.9c1,1.3,2.1,1.2,3.2-0.9L164.2,428.4z M155.6,438.1L155.6,438.1l-2.4-1.7
				c-3,3.3-6,6.4-8.7,9.6c-2.1,2.5-2,3.1-0.1,5.8c1.9,2.7,4,5.4,6.3,8.6l9.5-5.6c8.7-5.1,16.7-11.5,23.6-18.8c4.3-4.2,9-7.9,14-11.2
				c6.7-4.7,12.7-10.3,17.7-16.6c1-1,1-2.6,0-3.7c-0.7-0.9-1.3-1.9-2-2.9c-0.7-1.2-2.3-1.5-3.4-0.8c-0.2,0.1-0.4,0.3-0.5,0.4
				c0.1,1,0.2,1.9,0.3,2.9c0,3.7-1.8,7.2-4.7,9.5c-4,3.1-8.8,5.3-12.9,8.3c-3.3,2.4-6.9,4.5-9,8.2c-1.2,2.2-2.6,4.2-4.4,5.9
				c-2.8,2.8-5.9,5.3-9,7.8c-3.7,2.9-7.4,5.8-11.1,8.6c-4.1,3.1-8.3,1.6-10.2-3.3c2.8-2.6,5.5-5.1,8.2-7.8c0.6-0.8,0.8-1.7,0.8-2.7
				C157.5,438.6,156.3,438.4,155.6,438.1L155.6,438.1z M190.7,418.7c-4-2.9-7.4-5.2-10.8-7.7c-1.4-1.3-3.5-1.2-4.8,0.2
				c-0.1,0.1-0.2,0.2-0.2,0.3c-2.9,2.6-6,5.1-8.9,7.7c-0.8,0.9-1.6,1.9-2.2,2.9l1.2-0.4l11.4,12.1c1.3-1.3,2.4-2.8,3.2-4.5
				c0.9-2.3,2.5-4.2,4.6-5.5C186.2,422.2,188,420.8,190.7,418.7L190.7,418.7z M168,441c-4.9-8.3-6.7-9-11.6-12.2
				c-1.9-1.3-2.3-1-3.5,1.7c3.7,3.7,9.6,5.3,11.8,11c-2.2,0.4-4.5,0-5.6,1c-2.3,2.2-4.4,4.6-6.3,7.1l0.8,1
				C158.9,448.4,162.9,444,168,441L168,441z M193,417.3c1.5-0.5,2.8-1.6,1.3-3.1c-3.1-2.8-6.4-5.5-9.8-8c-0.4-0.3-1.5,0.3-2.6,0.5
				L193,417.3z M202,412.9c-2.6-3.9-7.4-8.5-10-9.6c-0.8-0.1-1.7-0.1-2.5,0l9.1,11L202,412.9z M146.9,437.4c1.4-0.8,2.8-1.5,2.2-3.4
				L146.9,437.4z"/>
			<path id="Path_779" d="M324.9,408.8c-0.3-2.1-0.6-4.2-1-6.7l2.1-1.5l2.5,3c0.4,0,0.9-0.1,1.3-0.3c2.6-1.8,5.4-3.5,8.2-5
				c2.6-1.2,4.2-2.6,3.5-5.6c0-0.6,0.1-1.3,0.3-1.8c0.6,0.1,1.2,0.1,1.3,0.3c2,5.4,4.7,10.6,8.1,15.4c2.1,3.1,4.4,6.2,6.9,9
				c3.8,4.3,5.9,9.7,9.2,14.4c1.5,2,2.8,4.2,3.9,6.4c1.3,2.9,2.4,5.9,3.4,8.9c0.7,2.2,1,4.6,1.5,6.9c1.1,5,1.1,5-2.4,8.5
				c1.1,3.2,2.2,6.5,3.3,9.9c0.9,2.9,0.7,3.7-2.1,4.7c-4.8,1.8-9.6,3.5-14.5,4.9c-3,0.9-4.3,0.3-5.8-2.4c-2-3.6-3.8-7.3-5.5-10.9
				c-3-6.4-5.9-12.8-8.6-19.2c-1.8-4.5-3.5-9.2-5.2-13.9c0-0.3-0.2-0.6-0.3-0.8c-4.8-4.8-5.9-11.6-9.2-17.2
				c-1.6-2.7-2.2-6.1-5.4-7.7c-0.1,0-0.2-0.2-0.3-0.3c-1.5-1.8-0.6-6,1.7-7.9c-0.2,1.9-1,4-0.4,5.5s2.5,2.2,3.9,3.3
				c-0.1,0.6,0,1.1,0.1,1.7c1.5,2.7,3.1,5.3,4.6,8c2.7,5,5.6,9.9,8,15c3.3,7.2,6.1,14.6,9.3,21.7c1.5,3.5,3.5,6.7,5.3,10.1
				c-0.5-5.7-2.1-11.3-4.8-16.4c-3-6.1-6.1-12.3-9-18.5c-0.5-1.8-1.1-3.6-1.8-5.3c-3.2-5-6.6-9.9-10-14.7
				C326.2,409.6,325.6,409.2,324.9,408.8z M337.1,419.4l9.2,18.9c4.6-4.4,10.5-7.2,16.8-8.1c-2.6-6.5-6.3-12.6-10.9-17.9
				c-1-1.6-3.1-2.1-4.7-1.2c-0.2,0.1-0.5,0.3-0.7,0.5C343.5,413.9,340.4,416.7,337.1,419.4L337.1,419.4z M354.5,468.8l-0.6,0.6
				c0.8,1.8,1.8,3.7,2.6,5.5c0.5,1.7,2.3,2.7,4,2.2h0.1c4.7-0.7,8.7-3.1,13.1-5.3c-1-3.5-1.2-7-3.7-10l-4.3,1.5
				c-0.1,5.3-0.8,6.1-5.9,8C357,472.4,355.8,470.8,354.5,468.8z M367.9,439.7c-6.2,1.4-11.3,4.8-16.6,8.5l1.8,3.1l15.6-7
				c0-1.1,0-2.1-0.2-3.2C368.4,440.7,368.2,440.2,367.9,439.7z M364.9,433.1c-7.1,1.2-13.4,4.9-16.2,10c1,0.2,1.9,0.2,2.9,0
				c4.9-1.9,9.7-4,14.6-6.1c0.2-0.1,0.3-0.4,0.6-0.9L364.9,433.1z M348.1,407.1c-0.8-0.7-1.8-2.2-2.6-2.2c-2,0.1-3.9,0.7-5.5,1.8
				c-2.4,2.3-4.6,4.7-6.7,7.4c1.3,0.2,2.4,0.7,2.9,0.4C340.1,412.3,343.9,409.8,348.1,407.1L348.1,407.1z M364.8,450.7
				c2.5,2.4,0.6,6.7,4.7,8.5l0.3-5.2l3.4,1.8c0-3.3-0.4-5.8-3.1-7.2L364.8,450.7z M358.2,454.9c-2.8,0.5-3.7,1.6-3.2,3.5
				c0.6,2.4,1.4,4.7,2.3,7c1,2.2,1.6,2.2,4.5,0.6C360.7,462.4,359.5,458.7,358.2,454.9L358.2,454.9z M331.4,409.8
				c1.9-1.8,3.9-3.5,6-5c2.4-1.4,4.8-2.7,7.4-3.8c-2.9-1.3-3-1.4-4.1-0.7C336.5,402.3,333,405,331.4,409.8L331.4,409.8z
				 M362.3,452.1c-0.6,4.2-0.4,4.9,2.4,8.2C365.4,456.8,363.5,454.5,362.3,452.1L362.3,452.1z"/>
			<path id="Path_780" d="M216.8,255.1c-1.1,2.2-3.2,3.7-5.7,3.8c-2.3-0.1-4.3,1.4-4.9,3.6c-1.5,4.1-4,7-8.7,7.8
				c-1.3,0.2-2.4,2-3.2,3.2c-0.6,1.2-1,2.4-1.3,3.7c-1.1,3.1-2.9,5.5-6.5,5.8c-1.7-0.1-3.2,1-3.7,2.7c-1.4,4.6-4.4,8.4-8.5,10.8
				c-0.9,0.9-1.5,2-1.6,3.3c-0.1,1,0,2.1,0.3,3c1.3,4.9,0.6,10.1-1.9,14.5c-1,2-0.9,4.4,0.4,6.2c2.6,4.5,3.3,9.9,1.8,14.9
				c-1.2,2.8-0.4,6.1,1.9,8c0.8,0.9,1.4,2,1.8,3.1l4-1.3c-3.3-6-3.9-13.1-1.7-19.5c1.2-3.5,0.9-7.4-0.9-10.6
				c-4-6.9-2.4-11.7,3.7-18.1c0.4-0.5,0.8-0.8,1.4-1c3.2-0.9,5.9-2.8,8-5.4c-0.1,0.7,0,1.6-0.5,2.1c-1.6,1.8-3.5,3.6-5.1,5.4
				s-3,3.6-4.4,5.5c-1.6,2.2-1.9,5.1-0.7,7.5c0.7,1.6,1.2,3.3,2,4.9c1.3,3,1.5,6.3,0.5,9.4c-0.7,2.7-1.3,5.4-1.6,8.2
				c-0.3,2.6-0.4,5.3,2.2,7.2c0.7,0.8,1.1,1.7,1.3,2.7c2.2,5.9,4.3,11.8,6.6,17.6c1.5,3.9,1.6,3.8-1.5,6.9l1.4,4.8
				c-0.8-0.6-1.6-1.2-2.3-1.8c-0.8-1.2-2.4-1.6-3.7-0.8c-0.3,0.2-0.6,0.5-0.8,0.8c-2.7,3.1-6.7,3.8-10.2,5.2
				c-1.6,0.6-3.7-0.1-5.8-0.2c-0.9-2.7-1.6-5.4-2.7-7.9c-1.3-3.1-2.8-6.1-4.2-9.2c-1.3-2.6-3.1-5.1-0.6-8.1c0.4-1.1,0.3-2.3-0.3-3.3
				c-3.4-4.7-3.4-10.5-4.7-15.8c-1.9-7.9-2.3-16-1-24c0.4-2.4,0.6-4.9,1-7.4c0.3-1.1,0.9-2,1.7-2.8c-3.3,20.9,1.3,41.7,8.5,53.7
				c1.8-0.7,3.7-1.4,5.6-2.2c2.2-1,2.8-2.3,1.2-4.1c-2.8-3.1-2.9-6.5-2.2-10.3c1.2-4.6,0.4-9.5-2.3-13.5c-1.4-1.8-1.7-4.2-0.8-6.3
				c2.9-5.4,2.4-11,1.5-16.7c-0.7-4,0.4-6.8,4.3-8.6c2.5-1.3,4.3-3.7,4.9-6.5c1-3.9,2.8-6.8,7.2-6.9c1.8,0,2.7-1.4,3.3-3
				s1.5-3.4,2.3-5.2c1-2.9,3.9-4.7,6.9-4.4c1.4-0.3,2.6-1,3.5-2.1c1-1.3,1.8-2.7,2.5-4.1c1.1-2.7,3.8-4.2,6.7-3.9
				C212.8,256.8,214.5,255.8,216.8,255.1z M171.2,376.4c5.5-0.5,9.1-3.5,12.7-5c-1.3-4.3-2.5-8-3.6-11.8c-0.7-2.5-2-4.7-3.9-6.4
				l-11.9,6.4C166.8,365.5,169,370.9,171.2,376.4z M182.4,349.3c-2.5,1.7-2.7,2.1-1.8,4.1c1.5,3.8,2.9,7.6,4.5,11.4
				c0.7,1.5,1.5,3,2.4,4.4c3.4-1.8,3.4-1.9,2.4-4.4s-1.6-5-2.8-7.4C185.7,354.7,185.3,351.3,182.4,349.3L182.4,349.3z"/>
			<path id="Path_781" d="M184.9,64.3c-2.6,2.4-5.3,4.7-7.7,7.2c-5.9,6.1-13.1,11-21,14.2c-3.2,1.4-6.4,3-9.6,4.3
				c-5.2,2-10.7,3-16.2,2.9c-2.4,0-4.6-0.8-6.6-2.2c-3.4-2.4-6.1-5.6-7.7-9.4c-2.1-4.7-0.9-9.2,2.2-13.2c3.7-4.8,8.9-8.2,14.7-9.8
				c1.6-0.6,3.3-1.2,5-1.6c2.4-0.4,4.9-0.6,7.4-0.7c1.3,0,2.6,0.6,3.9,0.7c10.1,0.3,19.4,4.2,29.1,6.6
				C180.5,63.8,182.7,64.2,184.9,64.3L184.9,64.3z M178.3,66.2c-1.1-0.6-2.2-1.2-3.4-1.6c-4.6-1-9.2-2.1-13.7-2.9
				c-5.8-1-11.6-1.8-17.4-2.5c-1.5-0.2-2.9,0-4.3,0.4c-3.2,1.1-6.2,2.5-9.4,3.7c-3.6,1.4-6.6,3.9-8.9,7c-2.6,2.7-3.3,6.8-1.7,10.2
				c1.2,2.3,2.8,4.5,4.7,6.3c1.7,1.9,4.1,3,6.6,2.9c6,0.1,11.9-1.3,17.1-4.1c0.9-0.7,1.9-1.4,3-1.8c7.4-2,13.5-6.3,19.6-10.6
				C173.2,71,175.8,68.7,178.3,66.2z"/>
			<path id="Path_782" d="M210.4,24.9c6.3-3.1,12.6-4,19.1-0.1c0.3,0.3,0.7,0.5,1.1,0.6c6.1,1.7,9.4,6.2,11.7,11.6
				c0.7,1.6,1.2,3.3,1.3,5.1c0.3,2.5,0.2,5-0.1,7.5c-0.4,2-1.2,3.9-2.5,5.5c-1.4,1.8-3.1,1.4-4.2-0.6c-0.7-1.4-1.3-2.9-2-4.4
				c-2.9-6-8.1-10-12.6-14.6c-0.9-0.9-1.8-1.6-3.3-2.9c5.1,0.3,9,3.4,19.2,14.1c-0.9-6.5-5.3-10.7-10.5-14.9c3.7,1,6.8,3.1,11,7.4
				c0.1-4.5-2.3-8.7-6.2-10.9c-2.7-1.5-5.5-2.8-8.4-3.9c-2.5-1-5.3-1-7.8,0c-2,0.6-3.9,1.1-6,1.4L210.4,24.9z"/>
			<path id="Path_783" d="M231.1,132.6c3,4.6,3.8,9.9,4.5,15.1c0.4,2.9,1.4,6.2-0.6,9.2C232.5,148.9,232.4,140.7,231.1,132.6z"/>
			<path id="Path_784" d="M223.6,162.9c-2.9-2-1.8-5.1-3.2-7.4c-1.2-2.3-2.3-4.8-3.1-7.2c-1-2.4-2.1-4.8-3.2-7.4
				C219.8,146.1,224.8,157.1,223.6,162.9z"/>
			<path id="Path_785" d="M192.1,169.3c7.1,1.7,11.3,6.5,16.7,11C205.1,179.9,194.3,172.6,192.1,169.3z"/>
			<path id="Path_786" d="M213.6,170c-5-3.2-9.1-7.7-11.8-13C206.1,159.6,212.1,166.1,213.6,170z"/>
			<path id="Path_787" d="M193.7,285.3l5.9-4.3C198.7,283.7,197.4,284.7,193.7,285.3z"/>
			<path id="Path_788" d="M207.2,275l3.3-3l0.7,0.7l-3.1,3.3L207.2,275z"/>
			<path id="Path_789" d="M290.1,447.4c-2.2-0.1-4.3,2.3-6.8,0.1c2.2-1.1,4.7-1.1,6.9,0L290.1,447.4z"/>
			<path id="Path_790" d="M297.2,436.1l3.8-2.9C300.4,435.8,299,436.3,297.2,436.1C297.1,436,297.2,436.1,297.2,436.1z"/>
			<path id="Path_791" d="M185,64.3c0.2-2.3,0.2-2.3,2.8-4.5C186.5,61.6,185.7,63,185,64.3L185,64.3z"/>
			<path id="Path_792" d="M218.3,270.5l-3.2,1.8l-0.3-0.8l3.7-0.9L218.3,270.5z"/>
			<path id="Path_793" class="st1" d="M285,237c-14.5,0.8-29.1-1.6-42.6-7c-11-4.4-19.2-12.4-22-24.6c-1.3-5.5,0.3-10.7,1.7-16
				c1.3-4.9,4.3-9.1,8.5-11.9c11.2-7.8,23.8-13.5,37-16.8c8.2-1.7,16.7-1.6,24.9,0.3c4.1,0.9,8.3,1.7,12.5,2.6
				c0.1,0,0.3,0.1,0.4,0.1c1.7,0.4,3.3,1.1,4.8,2c5.8,4.9,14.2,4.9,19.3,10.8c4.1,4.6,7.9,9.5,8.6,15.9c0.1,0.9,0.3,1.7,0.6,2.6
				c1.8,5.9,0.4,11.6-1.1,17.3c-0.2,0.8-0.6,1.6-1.2,2.3c-5.1,6.7-11,12.7-18.8,16.2c-7.6,3.3-15.7,5.2-23.9,5.7
				C290.9,236.8,287.9,236.9,285,237z M313.9,195.2c4.6-2.2,9.7-3.4,14.3-6.4c-2.1-1.8-3.7-0.8-4.9-0.2
				C319.7,190.2,315.7,191.1,313.9,195.2L313.9,195.2z M284.8,186.6c0.4-6.8-1.6-13.7-4.5-15.7C280.8,176.4,282.3,181.7,284.8,186.6
				z M330.9,204.4c-3-3.3-5.8-2.2-8.3-1.6c-2,0.5-4.6,0.6-5.3,4.1c2.4-0.6,4.3-1.3,6.3-1.6C325.5,205,327.8,204.8,330.9,204.4
				L330.9,204.4z M307.3,187.5c3.5,0,9.2-4.2,12.2-8.7C314.7,180.5,310.5,183.5,307.3,187.5L307.3,187.5z M294,184.6
				c2.4-3.6,3.1-8,1.8-12.1C293.9,176.2,293.2,180.5,294,184.6z M300.7,184.4c3.6-3,6.4-6.7,8.4-10.9
				C304.1,176.1,302.3,180.1,300.7,184.4L300.7,184.4z"/>
			<path id="Path_795" class="st1" d="M354.9,293.2c-0.3,1.1-0.4,2.3-0.2,3.5c1,2.8,2.2,5.4,3.7,8c2.4,4.3,2.1,7.6-1.3,11
				c-4.1,4-6.1,8.5-3.4,14.3c0.6,1.7,0.9,3.4,0.9,5.2c0.3,2.1-0.6,4.2-2.4,5.3c-2.6,1.6-4.2,4.3-4.3,7.4c-0.2,2.2-1.3,3.2-4,2.8
				c-0.5-3.7-0.7-7.3-0.7-11c0.4-2,1.3-3.8,2.7-5.3c3.3-4,3.9-9.6,1.7-14.3c-1.6-2.5-1.6-5.8,0-8.3c0.9-1.5,1.5-3.2,2.2-4.8
				c3-5.8,0.8-10.7-3.4-14.7c-2.7-2.2-4.5-5.4-4.8-9c-0.3-2.1-1.4-3.9-3.2-5c-2.1-1.6-4-3.5-5.5-5.6c-0.6-1.3-0.8-2.7-0.6-4.1
				c0.6-2.9,0.9-5.9,0.9-8.9c-0.2-3.6,0.9-7.3,1.5-10.9c0.1-0.6,0.3-1.1,0.5-1.7c1-4.4,2.3-5.1,6.3-3.2c3.2,1.5,6.4,2.9,9.6,4.4
				c0.8,0.4,1.8,0.7,2.2,1.3c3,5.5,9.2,7.5,13.1,12.2c5.7,6.5,9.5,14.5,11.2,22.9c2.1,12.5,2.1,25.2,0,37.7c-1.3,9.6-3.8,19-7.4,28
				c-2.8,6.5-3.5,6.9-10,4.4l-5.3-2c-3.4-1.3-4.2-2.6-3.1-5.9c0.5-1.4,1.3-2.7,2.3-3.7c3.7-3.2,4.8-8.4,2.9-12.9
				c-1.9-4.7-0.9-10.1,2.6-13.8c2.4-2.9,2.9-7,1.3-10.4c-1.7-4.2-3.3-8.4-5-12.5L354.9,293.2z M342.3,270.8c0.9,3.3,1.5,6.1,2.4,8.7
				c0.4,1.1,1.6,2.7,2.3,2.7c3-0.4,4.6,1.8,7.4,4.1c-1.2-2.9-1.9-5-4.3-5.1c-3.2,0-3.7-1.7-4.3-4.3
				C345.3,274.8,345.3,272.1,342.3,270.8z"/>
			<path id="Path_796" class="st1" d="M308,402.7c-0.5-2.2-1.1-4.4-1.5-6.7c-1-5.2-1.7-10.4-2.9-15.6c-1.4-5.9-0.5-11.8,0.5-17.5
				c2.2-12.8,3.3-25.7,3.4-38.6c0.3-4.5,0.8-9.1,1.5-13.6c0.9-8.6,1.8-17.2,2.5-25.8c0.4-5.7,2.7-10.7,4.9-15.8
				c4.3-10,8.9-19.8,13.2-29.7c1.2-2.7,2-5.5,3.1-8.2c0.6-0.9,1.3-1.8,2.1-2.6c0.3,1.1,0.4,2.3,0.4,3.5c-1.5,9-3.1,17.9-4.6,26.9
				c-0.2,2.8-0.6,5.5-1.1,8.3c-1.7,5.8-0.7,11.8-1.8,17.6c-1.3,6.5-2.3,13-3.3,19.5c-1.4,9.7-2.7,19.4-4.1,29.2
				c-0.8,5.4-1.7,10.7-2.6,16.1c-1.8,10.4-3.7,20.8-5.3,31.3c-0.9,5.6-1.6,11.3-2.4,16.9c-0.3,1.6-0.7,3.1-1.3,4.6L308,402.7z"/>
			<path id="Path_797" class="st1" d="M323.5,116c-1.3,2.8-2.9,5.4-4.6,7.9c-1.2,1-2.8,1.4-4.4,1.1c-7.4-1.9-14.8-1.8-22.3-2.1
				c-3-0.3-6-1.1-8.7-2.5c-3-1.4-5.2-3.8-3.8-7.9c-3.1-1.3-6.6-1.7-9.9-1.2c-3.1,0.7-6.2,1.5-9.5,2.3l-3.7,4.6
				c-3.1-10.3,3.6-46.3,10.5-53.7c6.2,2,12.7,4.1,19.5,3.7s13.4-1.3,20.6-1.9c1.1,1.6,0,3.5-0.8,5.3c-1.6,4.2-3.4,8.4-5.2,12.6
				c-3.2,2.8-6.6,5.3-10.2,7.5c-1.4-0.3-2.8-0.7-4.5-1.2V87c-0.1-5.7-2.9-7.4-8.4-7c-6.9,0.6-12.1,6.6-11.7,13.6
				c0.5,5.7,4.5,8.7,10,7.4c1.9-0.5,3.8-1.2,6-1.8v3.3c0.4-0.1,0.9-0.1,0.9-0.2c0.4-2.4,3.9-0.2,4.1-2.9c0.1-1.2,0.4-2.3,0.8-3.4
				c0.4-0.9,1.1-1.5,2-1.7c0,0.9,0,1.8,0.1,2.8c-0.2,1.4-0.1,2.9,0.3,4.3c2.3,4.3-0.2,7.1-3.1,9.4c-1.6,1.1-2.4,3-2,4.9
				c0,0.2,0.3,0.4,0.8,0.9c1.9-4.1,5.1-3.3,8.7-2.7c5.2,0.7,10.5,0.3,15.7,0.6C314.6,114.6,318.6,115.4,323.5,116z"/>
			<path id="Path_798" class="st1" d="M278.1,246.6c0,4.6,0.2,8.7,0.1,12.8c-0.3,12-0.7,24-1.1,36.1c-0.4,11.7-0.9,23.4-1.3,35.1
				c0,1.5-0.3,2.9-0.5,4.9c-2.8-0.2-5.5-0.6-8.2-1.2c-2.9-0.8-5.9-5.7-5.8-8.9c0.5-16.1,1.1-32.2,1.5-48.4c0.2-8.4,0-16.7,0-25.1
				v-3.1c0.3-2.9,1-3.5,4-3.2C270.5,245.7,274.1,246.2,278.1,246.6z"/>
			<path id="Path_799" class="st1" d="M262.7,335.6c3.4,4.3,8.5,0.8,12.5,3.5c0,3.7,0.1,7.6,0,11.5c-0.5,11-1.1,22-1.6,33
				c-0.1,2.4-0.2,4.7-0.4,7c-0.7,6.6-0.7,13.2-0.3,19.8c0.3,10.8-0.7,21.7-1.2,32.5c0,0.3-0.3,0.5-0.6,1.1c-3.3-1.3-6.6-2.7-9.9-4
				c-1.9-0.7-2.3-2-2.2-3.8c0.8-18.8,1.8-37.6,2.5-56.3c0.3-7,0-14.1,0-21.2s0.4-14.4,0.7-21.6C262.3,336.7,262.5,336.1,262.7,335.6
				z"/>
			<path id="Path_800" class="st1" d="M280.7,246.9c4.4-0.6,8.1-1.1,11.9-1.7c3.3-0.6,4.5,0.6,4,4.2c-0.6,4.5-1.3,9-1.8,13.5
				c-0.3,2.3-0.4,4.7-0.5,7c-0.6,8.3-1.3,16.7-1.6,25c-0.2,5.5,0,11.2,0.3,16.7c0.4,7-2.6,12.9-5.5,18.8c-1.5,3.1-5,3.7-8.7,4.2
				C279.3,305.4,280,276.2,280.7,246.9z"/>
			<path id="Path_801" class="st1" d="M229.1,404.4v-10c-0.2-8.2-0.4-16.4-0.7-24.6c-0.1-4-0.4-7.9-0.6-11.9
				c-0.4-12-0.6-24.1-1.2-36.1c-0.3-5.3-1.2-10.5-1.8-15.7c-0.2-2-0.4-4.1-0.6-6.1c-0.6-13.5-1.1-27-1.8-40.5
				c-0.4-6.7-1.3-13.4-1.9-20.2c-0.3-3.9-0.5-7.8-0.8-11.7l1-0.2c1.1,2.9,2.2,5.8,3.2,8.7c2.4,7.1,5.1,14.1,7.1,21.3
				c0.9,3.4,0.3,7.3,0.3,10.9c0.1,11.4,0.2,22.9,0.3,34.3c0,10.1,0.1,20.2,0.3,30.4c0.1,6.6,0.4,13.2,0.7,19.7
				c0.2,4.4,0.5,8.8,0.6,13.2c0.3,7,0.1,14.1,0.8,21.1c0.6,6.5-1.7,12-3.9,17.7L229.1,404.4z"/>
			<path id="Path_802" class="st1" d="M234.2,266.4c3.4,9.2,6.7,17.8,9.7,26.5c0.6,2.3,0.9,4.6,0.8,6.9c0,10.7-0.2,21.5-0.1,32.2
				c0,6,0.4,12,1.1,18c0.7,5.5,0,11.2-2.1,16.3c-2.1,5.1-3.9,10.4-5.9,15.6l-0.9-0.1c-0.3-4-0.7-7.9-0.8-11.8
				c-0.5-21.7-0.9-43.5-1.5-65.2c-0.2-7.8-0.9-15.6-1.2-23.3c-0.1-4.2,0.1-8.5,0.2-12.8C233.7,267.9,233.9,267.2,234.2,266.4
				L234.2,266.4z"/>
			<path id="Path_803" class="st1" d="M258.7,334.6c0.5,34.5-0.1,68.9-2.6,104.1c-2.5-1.2-5-2.6-7.4-4.1c-0.8-1-1.2-2.2-1.1-3.4
				c0-7.4,0.2-14.7,0.3-22.1c0.1-11.2,0.3-22.3,0.2-33.5c-0.4-7.9,0.8-15.9,3.4-23.3c2.3-5.9,4.2-11.8,6.2-17.8L258.7,334.6z"/>
			<path id="Path_804" class="st1" d="M247.2,242.1c4.3,0.9,8.2,1.5,12,2.4c2.7,0.7,3.1,1.8,3,4.6c-0.5,7.9-1,15.8-1.4,23.7
				c-0.6,11.1-1.1,22.2-1.5,33.4c-0.1,3.2-0.1,6.4-0.3,9.6c0,1.1-0.5,2.1-1.2,3c-1-2.4-1.8-4.8-2.9-7.2c-2.2-5.5-4.4-10.8-6.3-16.4
				c-0.8-2.5-1.2-5.1-1.2-7.7c-0.2-13.5-0.3-27-0.4-40.5C246.9,245.3,247,243.7,247.2,242.1z"/>
			<path id="Path_805" class="st1" d="M311.1,137.8c-2.1,2.4-3.8,4.5-5.8,6.4c-0.9,0.7-2,1.1-3.1,1c-4.2-0.4-8.4-1.2-12.7-1.6
				c-3.5-0.2-7-0.2-10.5,0c-1.3,0-2.6,0.4-4,0.3c-8.9-0.6-17.8-1.2-27.2-1.8l-3.8-10.6c3.2-2.2,6.1-1.3,9,0c0.5,0.2,0.9,0.7,1,1.2
				c0.9,4.1,3.9,7.4,8,8.4c0.7,0.4,1.4,0.9,1.9,1.4c3.7-2.2,7.4-4.3,10.8-6.8c1.7-1.2,3.8-1.7,5.8-1.4c4.3,0.3,8.6,0.4,12.9,0.1
				l-15.7-3.5l1.6-7.3l37.3,2.5c0.4,0.9,0.7,1.2,0.7,1.4c-1.5,9.2-2.5,9.2-11.7,7.7c-2-0.4-4.1-0.5-6.2-0.3L311.1,137.8z"/>
			<path id="Path_806" class="st1" d="M298.1,245.1l16.3-4.2c0.1,1.1,0.1,2.1,0,3.2c-1.3,9.2-2.5,18.3-3.9,27.4
				c-0.4,2.5-1.1,4.8-2.1,7.1c-3.7,8.8-7.5,17.5-11.3,26.2c-0.2,0.6-0.6,1-1.1,1.4C294.9,285.9,297.5,265.7,298.1,245.1z"/>
			<path id="Path_807" class="st1" d="M308.3,291.1c-1,8-2.2,15.9-3,23.9c-0.7,7.7-1.4,15.5-1.4,23.3c-0.3,6.7-1.1,13.4-2.3,20.1
				c-0.3,2-0.7,3.9-1,5.9c-0.3-0.1-0.5-0.1-0.6-0.2c-1.9-7.7-4.5-15.2-5.7-23c-1.5-8-0.8-16.2,2.2-23.8c3.4-8.1,6.6-16.3,9.8-24.5
				c0.3-0.6,0.6-1.3,1-1.8L308.3,291.1z"/>
			<path id="Path_808" class="st1" d="M301.9,147.4c2,2.2,2.9,5.6,7.5,3.4l-3.3,6.5c-5.8-0.6-11.5-1.3-17.3-1.8
				c-1.7-0.2-3.5-0.2-5.2,0c-3.3,0.7-6.8,0.6-10-0.3c-1-0.2-2-0.4-3.1-0.3l-18.7-0.7c-1.8-2.8-2.9-5.3-2.3-8.5L301.9,147.4z"/>
			<path id="Path_809" class="st1" d="M244.6,373.4c1.4,6.1,1,54.7-0.3,58.5c-6.3-2.4-6.9-3.3-6.9-9.8c-0.1-8.2-0.4-16.4-0.3-24.6
				c0.1-2.8,0.6-5.5,1.5-8.1C240.3,384.2,242.4,379.1,244.6,373.4z"/>
			<path id="Path_810" class="st1" d="M243.6,281c-2.1-5.7-4.2-11.5-6.3-17.2c-0.4-1.3-0.8-2.5-1.4-3.7c-4.2-7.5-2.4-15.7-2.8-24.2
				c5.2,0.6,7.7,5.3,12.3,6.2c-0.4,13.1-0.7,25.9-1.1,38.7L243.6,281z"/>
			<path id="Path_811" class="st1" d="M352.4,108c-2.7,0.3-3.9-0.3-3.7-2.5c0.1-1.8,0.2-3.5,0.5-5.3c1-5.1,0.2-10.1-0.2-15.3
				c-1.8,1.8-1.5,4.3-1.8,6.6c-0.3,2.6-0.6,5.2-1,7.9c-0.4,2.7-0.8,4.9-1.3,8.4c-1.2-2.2-2.1-4.5-2.9-6.9
				c-1.2-5.4-2.1-10.9-2.9-16.4c-0.4-3,0.1-3.6,3.2-4c1.4-0.2,2.9-0.3,4.4-0.1c3.1,0.2,6.1,0.6,9.2,0.8c3.1,0.3,4.2,1.7,3.4,4.7
				c-0.2,0.8-0.6,1.6-1.1,2.4c-2.7,3.9-3.3,8.4-4.1,12.9C353.4,103.4,352.9,105.6,352.4,108z"/>
			<path id="Path_812" class="st1" d="M348.3,355l17.6,4.5c-2.2,5.9-5.8,10.4-8.8,16.1l-13.9-2.5C344,366.5,346.9,361.2,348.3,355z"
				/>
			<path id="Path_813" class="st1" d="M204,78.5c-3.9-1-7.5-3.1-10.1-6.2c0.9-1.4,1.8-2.8,2.8-4.2c1.3-1.5,2.5-3.2,3.5-5
				c2.1-4.9,5.5-7.2,10.3-7.1c1.8,1.6,3.4,3.1,5.1,4.3c2,1.4,2.3,2.2,0.7,4.2s-3,3.6-4.6,5.3L204,78.5z"/>
			<path id="Path_814" class="st1" d="M248.5,348.9c-1.4-14.7-1.7-29.4-0.9-44.2c0.8,1,1.5,2.1,2.1,3.2c2.3,5.7,4.6,11.4,6.9,17.1
				c1.2,2.9-0.4,5.5-1.1,8c-1.6,5-3.5,9.9-5.7,14.7C249.6,348.1,249.1,348.3,248.5,348.9z"/>
			<path id="Path_815" class="st1" d="M290.9,109.8c0.7-2.9,1.8-4.1,4.2-3.7c0.9,0.2,1.8,0.2,2.6,0c6.4-2.6,12.9-0.5,19.4-0.9
				c4.2-0.2,6.6,2,7.4,5.9c0.3,1.2-0.4,2.3-1.6,2.6c-0.3,0.1-0.7,0.1-1,0c-5.7-1.3-11.5-1.9-17.3-1.8
				C300,111.6,295.4,110.9,290.9,109.8z"/>
			<path id="Path_816" class="st1" d="M240.5,234.3c25.9,8.1,51.8,8.9,77.8,0.6c-6.5,4-13.9,6.4-21.5,7.1c-2.3,0.3-4.6,0.7-6.9,1
				c-5.2,0.6-10.5,0.6-15.7,0c-5.5-0.8-11-1.2-16.6-2c-4-0.6-8-1.5-12-2.6C243.3,237.9,241.4,236.4,240.5,234.3L240.5,234.3z"/>
			<path id="Path_817" class="st1" d="M227.2,69.5c1.1,0.6,2.1,1.3,3.1,2c3.2,2.8,3.3,4.5,0.6,7.8c-0.8,1-1.7,2-2.8,2.8
				c-3,2.3-5.5,5.3-7.1,8.8c-0.5,0.8-1.1,1.5-1.7,2.1l-4.9-5.6L227.2,69.5z"/>
			<path id="Path_818" class="st1" d="M212.1,85.1l-5.5-4.3c3.5-5.3,6.3-10.4,10.6-14.5c1.4-1.6,3.7-2,5.5-1
				c2.7,1.5,3.3,3.8,1.3,6.2c-2.3,2.6-4.9,5-7.4,7.6C215.2,80.7,214,82.6,212.1,85.1z"/>
			<path id="Path_819" class="st1" d="M314.5,262.9c0.4-7,0.8-14,1.3-21c0.1-1.1,0.6-2.2,1.5-3c3.4-2.2,7-4.1,10.7-6.2
				C327.9,236.8,318.7,257.4,314.5,262.9z"/>
			<path id="Path_820" class="st1" d="M366.8,112.6l-4.6-1.8c3.6-7.9,3.9-16.6,9.1-24.1l7.2,3.7c-0.5,1.4-1,2.7-1.7,3.9
				c-2.1,3.5-4.5,6.8-6.5,10.4C369,107.3,367.8,109.9,366.8,112.6z"/>
			<path id="Path_821" class="st1" d="M239.3,85c-1.3,0.9-2.5,1.9-3.7,2.9c-3.3,3.7-6.6,7.4-10.2,11.6l-4-4.1
				c4.2-6.2,8.3-12.2,12.5-18.5c3.1,2.3,5.9,4.1,5.2,8.2L239.3,85z"/>
			<path id="Path_822" class="st1" d="M274.3,120.5l-6.7-0.9c2.6-3.5,6-3.2,9.5-2.3c0.9,0.1,1.6,0.9,1.5,1.8c0,0.4-0.2,0.7-0.4,1
				c-2.9,3.9-4.8,8.6-9.4,11.4c-1.7,1.3-4,1.3-5.7,0.2c-2-1.1-3.1-3.3-2.8-5.5c0.4-2.7,1.2-3.8,4.6-5.6v3.7
				C268.2,123.7,271.3,123.8,274.3,120.5z"/>
			<path id="Path_823" class="st1" d="M239.1,85.1c2.4-1,3.2,0.9,4,2.4c1.2,1.6,1.1,3.8-0.2,5.3c-3.9,4.5-7.9,9-12.3,13.9l-2.8-4.9
				L239.1,85.1L239.1,85.1z"/>
			<path id="Path_824" class="st1" d="M252.4,129.1l-10.3-1.8l-5.1-9.9c3.3,0.5,5.7,1,8.1,1.2s4.6,0,7.1,0
				C253.9,121.8,254.9,125.1,252.4,129.1z"/>
			<path id="Path_825" class="st1" d="M362,83.6l6.1,2.8c0,0.5,0.3,0.8,0.2,1c-4.5,6.1-6,13.5-8.9,20.3c-0.6,1.5-0.9,2.9-2.9,1.7
				C356.2,103.6,359.5,88,362,83.6z"/>
			<path id="Path_826" class="st1" d="M235.5,114.6l-3.5-4.9c4.3-5.5,8.5-11,13-16.8c1.1,2.7,1.8,4.8,3,7.6L235.5,114.6z"/>
			<path id="Path_827" class="st1" d="M318.8,150.4l11-10.2c-0.5-1.7-1.6-1.3-2.8-1.1c-5.7,0.6-11.1,2.8-15.7,6.2
				c-0.6,0.4-1.3,0.7-2.9,1.6c0.6-1.1,1.2-2.1,2-3.1c4.7-4.4,10-7.7,16.6-8.4c1.5-0.4,3.1,0.4,3.7,1.8c0.2,0.5,0.5,1,0.8,1.6
				c2.3,4.5,2.1,4.5-2.5,6.6c-3.4,1.7-6.6,3.6-9.8,5.6L318.8,150.4z"/>
			<path id="Path_828" class="st1" d="M252.5,117.3l-12.6-2.2c1.5-2.6,2.7-4.7,4.1-6.6c1.1-1.4,6.5-1.7,7.8-0.5
				c0.5,0.5,0.8,1.1,0.8,1.8C252.6,112,252.5,114.2,252.5,117.3z"/>
			<path id="Path_829" class="st1" d="M343.8,354.1c0.2,6.6-3.7,11.6-5.3,17.9c-1.2-0.3-3-0.4-3.3-1.1c-0.8-1.5-1.1-3.3-0.6-5
				C336.6,361.3,338.1,356.1,343.8,354.1z"/>
			<path id="Path_830" class="st1" d="M251.6,97.8c-2.4-1.6-3.5-4.6-2.6-7.4c0.6-3.1,1.4-6.2,2.3-9.2c0.3-1.4,1.7-2.4,3.1-2.1
				c0.2,0,0.5,0.1,0.7,0.2c1.5,0.4,2.4,1.9,2,3.4c0,0.1-0.1,0.3-0.1,0.4c-0.4,1.5-0.9,3-1.5,5.3l-2.5-5.5c-0.6,3.1-0.3,6.2,0.7,9.2
				C254.4,94.7,254.2,96.5,251.6,97.8z"/>
			<path id="Path_831" class="st1" d="M320.7,102.8c-4.7,0.3-9.4,0-14-0.9c1.4-5.6,2.4-6.5,7.2-6.4C318,95.5,319.2,96.7,320.7,102.8
				z"/>
			<path id="Path_832" class="st1" d="M252.1,162.2l-0.8-5.9c7.1,0.4,13.6-0.7,20.2,0.6L252.1,162.2z"/>
			<path id="Path_833" class="st1" d="M230.1,244.9l-4.5-14.1c4.3,2.1,6.6,4.5,5.5,8.9c-0.2,1.7-0.3,3.4-0.3,5.2L230.1,244.9z"/>
			<path id="Path_834" class="st1" d="M234.2,407.7v13.4l-3.5-5.6l2.7-7.9L234.2,407.7z"/>
			<path id="Path_835" class="st1" d="M244.9,440.3l4-2.2c2.3,2.3,7,1.7,7.9,6.3c-2.1,0.5-4.3,0.1-6.1-1.2
				C248.9,442.2,246.9,441.2,244.9,440.3L244.9,440.3z"/>
			<path id="Path_836" class="st1" d="M252.4,106.5l-5.3-1.7c1.1-2.9,3.1-3,6-2.7L252.4,106.5z"/>
			<path id="Path_837" class="st1" d="M258.6,442.6l9.4,2.7l-0.2,0.9c-2.7,0.2-5.5,0.6-8.1-0.8C259.2,445.1,259.1,444.2,258.6,442.6
				z"/>
			<path id="Path_838" class="st1" d="M294.9,158.6c3.4-0.5,6.9-1,10.8,1.1C301.3,162,298.4,158.3,294.9,158.6z"/>
			<path id="Path_839" class="st1" d="M237.6,232.4c-4.5-0.1-6.9-3-9.2-6.1L237.6,232.4z"/>
			<path id="Path_840" class="st1" d="M245,440.2l-6.8-6.1C243.9,435,245.2,436.4,245,440.2L245,440.2z"/>
			<path id="Path_841" class="st1" d="M332.8,223.5l3.1-3C335.6,223.2,335.6,223.2,332.8,223.5z"/>
			<path id="Path_842" class="st1" d="M155.6,438.1c0.7,0.2,1.8,0.5,1.8,0.7c0,1-0.2,1.9-0.8,2.7c-2.6,2.7-5.5,5.2-8.2,7.8
				c1.8,4.9,6.1,6.4,10.2,3.3c3.8-2.8,7.5-5.7,11.1-8.6c3.1-2.5,6.2-5,9-7.8c1.7-1.8,3.2-3.8,4.4-5.9c2.2-3.7,5.8-5.8,9-8.2
				c4.2-3,8.9-5.2,12.9-8.3c2.9-2.3,4.6-5.8,4.7-9.5c0-1-0.1-2-0.3-2.9c0.9-1,2.5-1.1,3.5-0.1c0.2,0.2,0.3,0.3,0.4,0.5
				c0.7,0.9,1.3,1.9,2,2.9c1,1,1,2.6,0,3.7c-5.1,6.3-11,11.9-17.6,16.6c-5,3.3-9.7,7.1-14,11.2c-6.9,7.4-14.9,13.7-23.6,18.8
				l-9.5,5.6c-2.3-3.1-4.4-5.8-6.3-8.6c-1.9-2.8-2-3.3,0.1-5.8c2.7-3.3,5.6-6.3,8.7-9.6l2.5,1.8c-3.9,1.2-6.7,4.7-7,8.8
				C152.4,445,153.4,441.1,155.6,438.1z"/>
			<path id="Path_843" class="st1" d="M190.7,418.7c-2.7,2.1-4.5,3.6-6.4,5c-2.1,1.3-3.7,3.2-4.6,5.5c-0.8,1.6-1.9,3.1-3.2,4.5
				l-11.4-12.1l-1.2,0.4c0.6-1,1.4-2,2.2-2.9c2.9-2.6,6-5.1,8.9-7.7c1.1-1.5,3.2-1.8,4.7-0.7c0.1,0.1,0.2,0.1,0.3,0.2
				C183.3,413.4,186.7,415.8,190.7,418.7z"/>
			<path id="Path_844" class="st1" d="M168,441c-5.1,3.1-9.2,7.4-14.4,9.7l-0.8-1c1.9-2.5,4-4.9,6.3-7.1c1.2-1,3.4-0.7,5.6-1
				c-2.2-5.7-8-7.4-11.8-11c1.2-2.8,1.5-3,3.5-1.7C161.3,431.9,163.1,432.7,168,441z"/>
			<path id="Path_845" class="st1" d="M193,417.3l-11.2-10.6c1.2-0.3,2.2-0.8,2.6-0.5c3.4,2.5,6.7,5.1,9.8,8
				C195.9,415.7,194.6,416.9,193,417.3z"/>
			<path id="Path_846" class="st1" d="M202,412.9l-3.5,1.4l-9.1-11c0.8-0.1,1.7-0.1,2.5,0C194.5,404.4,199.4,409,202,412.9z"/>
			<path id="Path_847" class="st1" d="M164.2,428.4l9.2,7c-1.1,2.2-2.2,2.3-3.2,0.9C168.2,433.7,166.3,431,164.2,428.4L164.2,428.4z
				"/>
			<path id="Path_848" class="st1" d="M146.9,437.4l2.2-3.4C149.7,435.9,148.3,436.6,146.9,437.4z"/>
			<path id="Path_849" class="st1" d="M164.3,428.3L161,427l0.4-0.8C162.5,426.6,163.7,426.8,164.3,428.3L164.3,428.3z"/>
			<path id="Path_850" class="st1" d="M337.1,419.4c3.3-2.7,6.3-5.5,9.6-7.8c1.3-1.4,3.5-1.4,4.9,0c0.2,0.2,0.4,0.4,0.5,0.7
				c4.6,5.3,8.3,11.4,10.9,17.9c-6.3,0.9-12.2,3.7-16.8,8.1L337.1,419.4z"/>
			<path id="Path_851" class="st1" d="M354.5,468.8c1.2,2,2.5,3.7,5.2,2.6c5.1-1.9,5.8-2.7,5.9-8l4.3-1.5c2.5,3,2.7,6.5,3.7,10
				c-4.4,2.2-8.3,4.6-13.1,5.3c-1.7,0.6-3.5-0.4-4.1-2.1V475c-0.8-1.8-1.7-3.7-2.6-5.5L354.5,468.8z"/>
			<path id="Path_852" class="st1" d="M324.9,408.8c0.6,0.4,1.2,0.8,1.7,1.4c3.4,4.9,6.8,9.8,10,14.7c0.7,1.7,1.3,3.5,1.8,5.3
				c2.9,6.2,6,12.4,9,18.5c2.6,5.1,4.2,10.7,4.8,16.4c-1.8-3.3-3.7-6.6-5.3-10.1c-3.2-7.2-6-14.6-9.3-21.7c-2.4-5.1-5.3-10-8-15
				c-1.5-2.7-3.1-5.3-4.6-8c-0.2-0.4,0-1.1-0.1-1.7V408.8z"/>
			<path id="Path_853" class="st1" d="M367.9,439.7c0.3,0.5,0.6,1,0.8,1.5c0.1,1,0.2,2,0.2,3.2l-15.6,7l-1.8-3.1
				C356.6,444.4,361.7,441,367.9,439.7z"/>
			<path id="Path_854" class="st1" d="M365,433.1l1.8,3c-0.2,0.4-0.3,0.8-0.5,0.8c-4.8,2.1-9.7,4.1-14.6,6.1c-1,0.2-1.9,0.2-2.9,0
				C351.5,438,357.8,434.3,365,433.1z"/>
			<path id="Path_855" class="st1" d="M348.1,407.2c-4.2,2.7-8,5.2-11.9,7.4c-0.5,0.3-1.6-0.2-2.9-0.4c2.1-2.6,4.3-5.1,6.7-7.4
				c1.6-1.1,3.5-1.7,5.5-1.8C346.4,404.9,347.3,406.4,348.1,407.2z"/>
			<path id="Path_856" class="st1" d="M364.8,450.7l5.3-2.1c2.7,1.5,3.1,4,3.1,7.3l-3.4-1.8l-0.3,5.1
				C365.4,457.3,367.3,453,364.8,450.7z"/>
			<path id="Path_857" class="st1" d="M358.2,454.9c1.3,3.8,2.5,7.4,3.7,11c-2.9,1.7-3.5,1.7-4.5-0.6c-0.9-2.3-1.7-4.6-2.3-7
				C354.5,456.5,355.4,455.4,358.2,454.9z"/>
			<path id="Path_858" class="st1" d="M331.4,409.8c1.6-4.8,5.2-7.5,9.2-9.6c1.2-0.6,1.2-0.5,4.1,0.7c-2.5,1.1-5,2.4-7.4,3.8
				C335.3,406.3,333.3,408,331.4,409.8L331.4,409.8z"/>
			<path id="Path_859" class="st1" d="M362.3,452.1c1.2,2.4,3.1,4.7,2.4,8.2C361.9,456.9,361.7,456.2,362.3,452.1z"/>
			<path id="Path_860" class="st1" d="M171.2,376.4c-2.2-5.5-4.3-10.9-6.7-16.8l11.9-6.4c1.9,1.7,3.3,4,3.9,6.4
				c1.1,3.7,2.2,7.5,3.5,11.8C180.2,372.9,176.7,375.9,171.2,376.4z"/>
			<path id="Path_861" class="st1" d="M182.4,349.4c2.8,2,3.3,5.4,4.7,8.2c1.1,2.3,1.8,4.9,2.8,7.4c0.9,2.5,0.9,2.6-2.4,4.4
				c-0.9-1.4-1.7-2.9-2.4-4.4c-1.6-3.8-3.1-7.6-4.5-11.4C179.7,351.4,179.9,351.1,182.4,349.4z"/>
			<path id="Path_863" d="M313.9,195.2c1.8-4.1,5.8-5,9.3-6.6c1.4-0.6,2.8-1.7,4.9,0.2C323.6,191.9,318.5,193,313.9,195.2z"/>
			<path id="Path_864" d="M284.8,186.6c-2.5-4.9-4-10.3-4.5-15.7C283.2,173,285.2,179.8,284.8,186.6z"/>
			<path id="Path_865" d="M330.9,204.4c-3.1,0.4-5.2,0.5-7.4,0.9c-2.2,0.4-3.9,1-6.3,1.6c0.7-3.5,3.3-3.7,5.3-4.1
				C325.1,202.2,327.9,201.1,330.9,204.4z"/>
			<path id="Path_866" d="M307.3,187.5c3.1-4,7.4-7.1,12.2-8.7C316.5,183.3,310.8,187.5,307.3,187.5z"/>
			<path id="Path_867" d="M294,184.6c-0.8-4.1-0.1-8.4,1.8-12.1C297.1,176.6,296.4,181.1,294,184.6z"/>
			<path id="Path_868" d="M300.6,184.4c1.6-4.2,3.4-8.3,8.4-10.9C307,177.6,304.2,181.4,300.6,184.4z"/>
			<path id="Path_869" d="M342.3,270.8c3.1,1.3,3,4,3.5,6.1c0.6,2.6,1.1,4.3,4.3,4.3c2.4,0,3.1,2.2,4.3,5.1
				c-2.8-2.2-4.3-4.4-7.4-4.1c-0.7,0-1.8-1.6-2.3-2.7C343.7,276.9,343.2,274.1,342.3,270.8z"/>
			<path id="Path_870" d="M155.6,438.1c-2.1,3-3.1,6.9-6.8,8.9c0.3-4.1,3-7.6,7-8.8L155.6,438.1z"/>
		</g>
	</g>
</g>
</svg>
