<?xml version="1.0" encoding="utf-8"?>
<!-- Generator: Adobe Illustrator 26.0.2, SVG Export Plug-In . SVG Version: 6.00 Build 0)  -->
<svg version="1.1" xmlns="http://www.w3.org/2000/svg" xmlns:xlink="http://www.w3.org/1999/xlink" x="0px" y="0px"
	 viewBox="0 0 500 500" style="enable-background:new 0 0 500 500;" xml:space="preserve">
<style type="text/css">
	.st0{fill:#F0AB21;}
	.st1{fill:#FFFFFF;}
	.st2{fill:none;}
</style>
<g id="Layer_2">
	<path id="Path_2616" class="st0" d="M406.3,191.7c32,59.4,29.4,133.2-12.9,186.5c-39.2,49.3-109.6,53.9-174.4,49.1
		c-63.6-4.8-132.4-19.7-160.6-74.1C30.1,298.3,57.8,236,94.3,185.8c35.5-48.8,86.5-88,148.9-86.8C311,100.3,375.4,134.2,406.3,191.7
		"/>
</g>
<g id="Layer_3_00000013173689325279724870000013550582241554016656_">
	<path class="st1" d="M236.4,242.6c-8.9-6-18.5-11-29.4-12.5c-5.6-0.8-5.3,4.3,0,5c10,1.3,18.8,6.4,26.9,11.8
		C236.5,248.7,239,244.4,236.4,242.6z"/>
	<path class="st1" d="M237.5,222.2c-8.3-3.3-17.3-4.4-26.1-3.5c0.7-1,1.2-2.2,1.5-3.5c0.8,0.1,1.6,0.3,2.3,0.4c0.2,0,0.4,0,0.6,0
		c0.4,0.3,1,0.5,1.5,0.5c0.6,0,1.3-0.3,1.8-0.7c0.4-0.5,0.8-1.1,0.7-1.8c0-0.7-0.3-1.2-0.7-1.8c-1.7-1.9-3.3-3.8-5-5.7
		c-0.4-0.5-1.2-0.7-1.8-0.7c-0.6,0-1.3,0.3-1.8,0.7c-0.4,0.5-0.8,1.1-0.7,1.8c0,0.7,0.3,1.2,0.7,1.8l0.1,0.2c-0.3,0-0.6-0.1-0.9-0.1
		c-0.1-0.2-0.1-0.4-0.2-0.5c0-0.2,1.7,0.8,1.7,0.6c-0.4-6-0.9-13.2,1.9-18.6c0.6-1.2,0.3-2.7-0.9-3.4c-1.1-0.7-2.8-0.3-3.4,0.9
		c-3.1,6.2-4.6,13.1-4.2,20c0,0.3,0.1,0.6,0.2,0.9c-0.9,0-1.7,0.1-2.6,0.3c-4.3,0.7-8.3,2.7-11.9,4.9c-1.8,1.1-3.6,2.4-4.9,4.1
		c-1.3,1.7-2.1,3.7-2.6,5.7c-1.2,4.6-1.8,9.3-2,14c-0.1,2.6-0.1,5.2,0.1,7.9c0.2,2.4,0.3,4.9-0.4,7.2c-0.7,2.3,2.6,4.4,4.2,2.4
		c0.8-1.1,1.7-2.1,2.5-3.2c0.6,0.1,1.2-0.1,1.7-0.5c1.8,0.4,3.5,0,5-0.9c2,1.8,3.5,4,4.8,6.6c1.7,3.4,2.7,7.2,3.7,10.9
		c0.8,3.1,5.7,1.8,4.8-1.3c-1.9-7.1-4.4-14.9-10-19.9c0.1-0.3,0.2-0.5,0.3-0.8c0.1-0.5,0.2-0.9,0.2-1.4c0.9-0.4,1.7-1,2.2-1.9
		c0,1.3,0.8,2.5,2.4,2.4c2.6-0.1,5,0.5,7.5,1.2c2.6,0.7,5.2,1.5,7.7,2.3c4.9,1.6,9.5,3.9,14.1,6.2c2.9,1.5,5.4-2.8,2.5-4.3
		c-5-2.6-9.9-5-15.3-6.7c-2.6-0.8-5.3-1.6-8-2.4c-1.7-0.5-3.5-0.9-5.2-1.1c0-0.3,0-0.6-0.1-1c-0.4-1.2-1.7-2.2-3.1-1.7
		c0,0-0.1,0-0.1,0c-0.1,0-0.1,0-0.1,0c0,0-0.1,0-0.1-0.1c-0.1-0.1-0.2-0.2-0.4-0.2c0,0,0,0,0,0c-0.3-0.2-0.5-0.5-0.7-0.7
		c-0.2-0.2-0.6-0.6-0.7-0.8c0.2,0.3,0.3,0.3,0.1,0.2c0-0.1-0.1-0.1-0.1-0.2c-0.1-0.2-0.2-0.3-0.3-0.5c-0.2-0.3-0.3-0.5-0.5-0.8
		c0.4,0.1,0.8,0.1,1.2,0c1.3-0.5,2.5-1.4,2.8-2.8c0.4-1.5-0.7-2.9-2-3.6c-0.9-0.5,0.1-0.6-0.9-0.5c-0.1-1.2-2.4-0.7-2.6-0.5
		c0,0,0,0,0,0c0.1,0,0.1,0,0.2,0c0.2,0,0.5-0.1,0.7-0.1c0.1,0,0.3,0,0.4-0.1c0.4-0.1,0.9-0.3,1.3-0.4c0.3-0.1,0.6-0.2,0.9-0.4
		c0.3-0.2,0.5-0.4,0.6-0.7c0.2-0.3,0.3-0.6,0.3-0.9c0.1-0.3,0.1-0.7,0-1c0.6,0.1,1.2,0,1.7-0.2c0.5,0.3,1.2,0.5,1.9,0.3
		c10.1-2.3,20.6-1.4,30.3,2.4c1.3,0.5,2.7-0.5,3.1-1.7C239.6,223.8,238.8,222.7,237.5,222.2z M186.2,234.5c-0.1,0.2-0.2,0.3-0.2,0.5
		c0.1-1.2,0.3-2.4,0.5-3.6c0,0,0,0,0,0.1C186.5,232.5,186.4,233.5,186.2,234.5C186.2,234.5,186.2,234.5,186.2,234.5z M200.5,221.4
		c0,0.4-0.1,0.9,0,1.3c0,0,0,0,0,0c-0.4-0.1-0.9-0.1-1.3,0c-0.4,0.1-0.9,0.3-1.3,0.4c0,0-0.1,0-0.1,0c-1.5,0.1-2.8,0.5-4.2,1.1
		c-0.3,0.1-0.6,0.3-0.9,0.6c-1-0.5-2-0.9-3-1.4c-0.2-0.4-0.4-0.7-0.7-1c0.5-0.8,2-1.1,2-2.2c0-4.6,4.8-5.5,10.2-5.1
		c0.4,0,0.9-0.2,1.3-0.3C200.9,216.5,200.3,218.7,200.5,221.4z"/>
	<path class="st1" d="M213.5,146.8c-3.6-2.5-7.4-4.7-11.9-4.4c-4.5,0.2-9.1,1.1-13.5,1.7c-0.2-0.2-0.4-0.4-0.6-0.5
		c-0.1,0-0.1-0.1-0.2-0.1c0.4-0.6,0.8-1.1,1.2-1.7c0.5-0.7,0.1-1.7-0.5-2.1c-0.1,0-0.1,0-0.2-0.1c0.9-1.7,2-3.3,3.6-4.4
		c3.3-2.2,7.4-2.5,11.2-2.2c1.9,0.1,1.9-2.9,0-3c-4.4-0.3-9.3,0.1-13,2.8c-4.4,3.1-5.9,8.7-7.9,13.4c-0.2,0.4,0,0.9,0.3,1.3
		c-0.1,0.1-0.2,0.2-0.3,0.3c-1,1.2-2,2.2-3.1,3.2c-0.3,0.2-0.5,0.5-0.8,0.7c-0.1,0-0.1,0.1-0.2,0.1c-1.5-0.2-2.9-0.5-4.4-0.7
		c-0.3,0-0.6-0.1-0.9,0c-0.2-0.6-0.4-1.2-0.6-1.7c-0.5-1.2-1.7-2.2-3.1-1.7c-1.2,0.4-2.3,1.8-1.7,3.1c0.9,2.4,1.6,5,2.1,7.5
		c0.3,1.8,0.4,4,0.4,6.1c-0.1,0.4-0.1,0.8,0,1.2c0,0.1,0,0.1,0,0.2c0,0.6,0.2,1.1,0.6,1.6c-1.1,0.2-1.6,1.1-1.8,2
		c-0.8,0.4-1.5,1.2-1.4,2.2c0.2,3.4,0.4,6.8,0.5,10.2c0.1,1.3,1.1,2.6,2.5,2.5c1.3-0.1,2.6-1.1,2.5-2.5c-0.2-3.3-0.3-6.5-0.5-9.8
		c1.3-0.7,1.6-2.6,0.7-3.8c1.1-0.3,1.9-1.2,1.9-2.4c0-0.1,0-0.2,0-0.3c1.2-1.8,3.3-2.4,5.5-2.2c2.2,0.2,5.4,1.1,6.3,3.4
		c0.6,1.5,0.8,3.2,1.2,4.8c0.4,1.7,0.8,3.4,1.2,5.1c0.9,3.6,1.7,7.1,2.6,10.7c0.8,3.1,5.6,1.8,4.8-1.3c-1-4.2-2-8.4-3.1-12.6
		c-0.5-2.1-1-4.2-1.5-6.3c-0.4-1.8-1.1-3.6-2.4-5c0.7,0.1,1.5,0,2.2-0.2c0.7-0.2,1.3-0.6,2-0.7c0.2,0,0.6,0,0.8,0.2
		c1.1,0.5,1.9,1.5,2.8,2.3c1.1,0.9,2.2,1.8,3.5,2.4c1.3,0.6,2.7,1,4,1.7c1,0.6,1.5,1.4,2.1,2.4c0.8,1.3,1.8,2.6,3.2,3.3
		c2.8,1.5,5.4-2.8,2.5-4.3c-0.8-0.4-1.2-1.2-1.7-2.1c-0.7-1.2-1.6-2.2-2.7-3.1c-2-1.4-4.6-1.7-6.6-3.2c-1.7-1.2-3-2.9-5-3.9
		c-0.2-0.5-0.5-1-1.1-1.3c-0.4-0.2-0.8-0.5-1.2-0.8c-0.2-0.1-0.4-0.3-0.6-0.4c-0.1-0.1-0.1-0.1-0.2-0.2c-0.7-0.6-1.4-1.3-2.1-2.1
		c0-0.1-0.1-0.1-0.1-0.2c-0.1-0.2-0.3-0.4-0.4-0.5c-0.3-0.4-0.5-0.8-0.8-1.2c-0.2-0.4-0.4-0.7-0.5-1.1c0,0,0,0,0,0
		c0.1,0.2,0.1,0.1,0,0c3.8-0.5,7.5-1.1,11.3-1.4c1.9-0.2,3.6-0.1,5.3,0.6c1.8,0.7,3.4,1.9,5,3c1.1,0.8,2.8,0.2,3.4-0.9
		C215.1,148.9,214.6,147.5,213.5,146.8z"/>
</g>
<g id="Layer_1">
	<g id="Layer_2_00000090981483095970835960000015815536573194635420_">
	</g>
	<g id="Group_263" transform="translate(698.847 -146.32)">
		<polyline class="st1" points="-463.1,260.2 -419,481.2 -336.8,483.9 -300.5,462.2 -284.8,430.2 -256.8,381.8 -233.8,355.8 
			-221.8,340.2 -211.3,321.7 -205.5,303.1 -210.4,282.5 -226.3,260.2 -246.2,249 -261.5,245.8 -290,242.4 -313.6,242.4 -342.8,246 
			-361.8,249.9 -377.5,249.8 -411.2,253 -432.1,255.2 -461.1,255.8 		"/>
		<polygon class="st1" points="-485.8,312.4 -486.9,313.9 -487.9,319.2 -489.7,322.2 -492.6,334.1 -485.4,362 -485,365.7 
			-474.6,364.5 -483.5,316.1 		"/>
		<path id="Path_2619" d="M-492.8,276.8c-1.4,0-2.7,0-4.1-0.1c-6.1-0.9-10.5,2.1-14.2,6.3c-1.5,2-2.9,4.1-4.1,6.3
			c-1.4,2.2-2.7,4.5-4.3,6.6c-2.6,3.5-4.9,3.8-8.2,0.9c-1-0.9-1.7-1.4-3,0c0.9,3.9,1.5,7.9,1.8,11.8c0.1,4-0.8,8.1-1.3,12.1
			c-0.3,2-0.5,4-0.5,6.1c0.2,1.3,0.5,2.6,0.9,3.9h0.7c0.2-0.6,0.3-1.3,0.4-1.9c0-3-0.3-5.9-0.2-8.9c0.1-4.5,2.6-8.7,6.6-10.9
			c3.4-2.1,7.9-0.3,9.8,3.8c2.1,4.4,3.3,9.3,3.5,14.2c0,3.1,1,6.2,2.7,8.8c2.2-2.3,2.9-5.7,1.9-8.8c-1.1-3.9-2.7-7.7-4.2-11.5
			c-0.5-1.3-1.3-2.4-1.6-3.7c-1-3.5,0.8-5.8,4.4-5.2c2.4,0.4,4.6,1.3,6.6,2.6c3.7,2.7,7.6,5.4,10.3,9.3c0.2,0.2,0.5,0.4,1,0.7
			c1.2-2.2-0.2-4-1-5.7c-1.2-2.2-3.1-4-5.4-5c-1.6-0.8-3.2-1.8-4.6-2.9c-2.3-1.4-4.6-2.9-6.9-4.3c-1-0.6-1.9-1.2-2.8-1.9
			c-1.6-1.2-1.9-3.5-0.6-5.1c0.5-0.7,1.3-1.1,2.1-1.3c6-1.8,12.4-1.1,17.8,1.9c1.4,0.8,3,1.5,4.8,2.4c0.2-1.6,0.3-2.6,0.4-3.6
			l0.5-0.1c0.3,0.9,0.5,1.8,0.5,2.8c-0.2,2-1.6,2.6-3.4,1.6c-1.9-1.4-4-2.6-6.2-3.5c-5-1.7-10.6-1.1-15.2,1.6c0.6,0.9,1.2,1.7,2,2.5
			c5.4,3.7,10.9,7.3,16.4,10.9c0.3,0.1,0.6,0.1,0.9,0.1c0.6-1.8,1.2-3.6,1.9-5.8l14.7,1.7c3-5.9,3.4-12.2,4.1-18.4
			c0.6-5.4,1.3-10.8,1.9-16.2c0.4-3.7,0.9-7.4,1.2-11.2c0-1.4-0.2-2.7-0.5-4.1c4-0.8,8.1-0.7,12,0.3c-2.6,0.7-5.4-0.3-8,1.8
			c0.6,2.4,1.3,4.9,1.9,7.5c1.9,7.6,3.8,15.2,5.7,22.8c1.7,7,3.2,13.9,4.8,20.9c0.5,2.1,0.7,4.3,1.1,6.4c2,10.5,4.1,21,6.2,31.5
			c1.6,8.5,3,17,4.7,25.4c1.7,8.5,3.8,16.8,5.5,25.3c1.4,7,2.5,14.1,3.8,21.1c1,5.6,2.2,11.1,3.2,16.7c0.4,2.1,0.5,4.3,0.8,6.4
			c0.5,3.9,1.2,7.8,1.7,11.8c0.5,3.7,0.8,7.5,1.3,11.2c0.3,2.4,0.4,4.8,0.8,7.1c0.4,1.3,0.8,2.6,1.4,3.8c6.9,0,13.8,0.1,20.7,0.1
			c1.6,0,3.2-0.3,4.7-0.5c4.5-0.4,9-0.8,13.6-1.2c5.1-0.4,10.2-0.7,15.3-1.1c4-0.3,7.9-1.1,11.9-1.2c7.3-0.3,14.3-2.2,21.5-3.7
			c5.7-1,11.3-2.7,16.6-5c5.9-2.8,10.9-7.1,14.6-12.4c0.3-0.4,0.5-0.8,0.7-1.2c5.4-7.9,4.9-15.9,0.6-24c-1-2-1.7-4.1-2.7-6.1
			c-1-1.9-2.7-3.5-4.6-4.4c-1.3-0.8-2.5-1.6-3.6-2.6c-2.6-2-5.2-4.1-7.7-6.2c-0.8-0.6-1.5-1.4-2-2.2c-1.9-5.1-2.9-10.2-1.2-15.6
			c1.3-4.2,4.5-7.6,8.6-9.1c3.8-1.5,7.7-2.7,11.7-3.6c7.6-2,15.3-3.4,22.8-5.7c8.3-2.5,16.4-5.4,23.5-10.7c2.5-1.9,5.3-3.5,8.2-4.8
			c3.7-1.6,7-3.8,9.8-6.6c2.7-2.6,5.9-4.7,8.3-7.5c3.7-4.3,7.9-8.2,10.5-13.3c0.6-1.4,1.4-2.6,2.2-3.8c3.1-3.8,4.1-8.2,4.8-12.9
			c1.6-12-1.4-23.1-7.5-33.2c-3.8-6.4-8.1-12.7-14.4-17.1c-4-2.8-7.9-5.8-12.6-7.4c-5.4-1.8-10.7-3.8-16.1-5.7s-11-1.7-16.5-2.2
			c-7.5-0.6-15-1.1-22.4-1.2c-7.8-0.1-15.7,0-23.5,0.6c-8.3,0.6-16.5,1.9-24.6,3.9c-5.7,1.5-11.7,1.9-17.5,2.7c-1,0.2-2,0.2-3.1,0
			c-4.3-0.8-8.6,0.1-12.9,0.4c-6.5,0.4-12.9,0.6-19.4,1c-3.5,0.2-7,0.7-10.5,1c-1.6,0.1-3.2,0.2-4.8,0.3c-4.7,0.4-9.5,0.9-14.2,1.3
			c-1.1,0.1-2.3,0-4.2,0c0.7-0.4,1.4-0.7,2.1-0.9c7.1-0.5,14.2-1,21.3-1.5c1.6,0,3.2-0.3,4.6-0.9c3.5-1.8,7.2-0.9,10.7-1.4
			c6.1-0.9,12.3,0.1,18.5-1.2c2.7-0.6,5.6,0.1,8.5,0.2c1,0.1,2,0.1,3,0c4.4-1.2,8.8-1.8,13.3-1.9c2.5-0.2,4.9-0.8,7.3-1.6
			c6.2-1.9,12.7-2.1,19.1-3.1c4-0.6,8.1-1,12.2-1.1c4.2-0.1,8.4,0,12.6,0.2c6.1,0.2,12.3,0.5,18.4,0.8c5.9,0.3,11.9,0.3,17.7,1.3
			c5.7,1.2,11.2,2.8,16.6,4.9c5.2,1.7,10.1,4.2,14.6,7.2c4.7,3,8.8,6.9,12,11.5c0.7,1.1,1.4,2.1,2.2,3.1c5.7,6.6,8.5,14.5,10.6,22.9
			c2,8.5,1.8,17.3-0.6,25.6c-0.1,0.6-0.3,1.1-0.6,1.6c-2.9,4.5-5.8,8.9-8.7,13.4c-0.6,1-1.2,1.9-1.7,2.9c-1.5,2.6-2.9,5.1-4.4,7.7
			c-0.2,0.4-0.5,0.8-0.7,1.2c-7.4,13.8-14.6,27.7-22.1,41.5c-2.5,4.6-5.5,8.9-8.4,13.2c-2,2.9-4.2,5.7-6.3,8.5
			c-0.4,0.5-0.8,1.1-1.1,1.7c-5.9,10.8-11.6,21.6-17.6,32.4c-4.1,7.4-8.3,14.6-12.5,21.9c-3.1,5.4-6.1,10.9-9.1,16.4
			c-0.7,1.8-2.4,3.1-4.3,3.3c-2.7,0.6-5.4,1.5-7.9,2.5c-2.1-2.3-2.3-6-3.8-9.8c-1.3,1.6-2.3,2.6-3.1,3.8
			c-6.2,9.1-12.4,18.3-18.5,27.4c-1.5,2.6-3.8,4.6-6.6,5.7c-1.6,0.7-3.1,1.5-4.5,2.5c-7.1,4.6-15.1,7.5-23.4,8.7
			c-3.3,0.5-6.8,0.3-10.1,0.7c-4.5,0.5-9,1.1-13.5,1.7c-0.6,0.1-1.1,0.2-1.7,0.2c-6.6,0.2-13.2,0.4-19.7,0.7c-0.7,0-1.4,0-2,0.1
			c-4.7,0.8-9.3,0.3-13.9,0.1c-2.9,0.1-5.9,0.3-8.8,0.8c-1.6,0.1-3,1.2-3.4,2.8c-1.8,4.8-3.6,9.6-5.6,14.3
			c-2.7,6.5-5.6,12.9-8.4,19.4c-2.2,5-4.4,10-6.4,15.1c-0.4,1.5-1.8,2.4-3.3,2.2c-1.7,0-3.4,0.4-5.1,0.6c-1.5,0.1-2.2-0.6-2.3-2.2
			c-0.2-3.1,0.5-6.3-0.8-9.4c-0.2-0.3,0.1-0.9,0.2-1.3c1.7-6,3.4-12,5.1-18c1.8-6.5,3.1-13,5.3-19.4c1.2-4,2.2-8.1,2.9-12.3
			c1.2-5.1-0.1-9.9-1-14.9c-0.3-1.7-0.4-3.4-0.6-5c-0.4-2.9-0.9-5.8-1.2-8.8c-0.7-5.3-1.3-10.6-2-15.9c-0.1-0.5-0.1-0.9-0.2-1.4
			c-0.3-1.3,0.3-3-1.5-3.4c-1.7-0.5-3.5,0.1-4.6,1.5c-1.3,1.6-2.7,3.1-3.9,4.8c-1.2,2.2-4,2.9-6.2,1.7l0,0c-2.4-1.2-3.3-4.1-2.1-6.4
			c1.3-2.3,2.7-4.5,5.4-5.4c3.5-1.2,7-2.4,10.8-3.7c-0.2-1.5-0.4-3.2-0.7-4.9c-0.4-2.3-1.7-3-3.9-2.2c-1.6,0.6-3.1,1.5-4.6,2.1
			c-2.5,1.1-5.3,0.7-7.4-0.9c-1.6-1-2.4-2.9-2-4.7c0.2-1.6,1.4-3,3-3.4c1.9-0.8,4-0.9,5.9-0.1c2.5,1,5.3,1.8,7.7-0.5
			c0.1-1.1,0-2.2,0-3.3c0-2-1.6-3.7-3.6-3.9c-1.9-0.3-3.8-0.7-5.6-1.4c-3.9-1.5-6.9-4.7-8-8.7c-0.2-2.4,0.7-4.8,2.6-6.3
			c2-1.2,4.7-0.6,5.9,1.4c0.2,0.4,0.4,0.8,0.5,1.3c0.6,2.3,1.7,4.5,3.2,6.3c0.7,1.4,2.3,2.1,3.8,1.8c-0.3-2.2-0.7-4.4-1-6.6
			c-0.6-4-1.2-8.1-1.7-12.1c-0.7-6-1.3-12-2.1-18c-0.4-3.4-1.9-4.7-5.5-5.4c-3-0.6-6-1-9.3-1.5l-2.7,3.1c0.9,1.6,1.9,3.1,3,4.6
			c3,3.6,4.1,8.1,5.9,12.2c0.7,1.6-1.3,5.1-3.1,5.4c-0.8,0.1-1.7-0.3-2.2-0.9c-0.6-1-1.1-2-1.4-3.1c-1.7-3.5-3.4-6.9-5.1-10.3
			c-0.2-0.4-0.6-0.6-1.1-1.1c-1,1.2-1.8,2.4-2.7,3.5c-3.9,0.4-3.8-2.8-4.8-5.7l-2.2,2.5c0.2,1.9,0.7,3.2,0.3,4.3
			c-2.6,9-6.5,17.5-11.4,25.4c-1.9,2.8-4,5.5-6.3,8c-1,1.1-1.5,2.5-1.5,3.9c-0.2,5.2-0.7,10.4-1.1,15.6c-0.2,2.8-0.3,5.7-0.6,8.5
			c-0.4,4.2-1,8.3-1.5,12.6c2.8,2,5.5,4,8.3,5.9c1.7,1.2,2.8,1.1,4.2-0.5c0.9-1.2,1.7-2.4,2.3-3.7c1.4-2.4,2.2-2.8,5.2-2.7
			c1.9,6.4-3.5,14.1-10,14c-1.1-0.1-2.2-0.6-3-1.2c-3.2-2.1-3.1-2.2-7.5-3c-0.2,4-0.4,7.9-0.7,11.9c-0.9,10.1-3.4,20-7.2,29.4
			c-1,2.4-1.1,4.4,0.7,6.6c1.7,2.3,3.2,4.7,4.5,7.2c1.3,2,2.3,2.4,4.6,1.5c1.7-0.7,3.3-1.6,4.8-2.5c1.7-1.1,3.3-2.4,5.1-3.4
			c0.8-0.4,1.6-0.3,2.4,0.1c0.5,0.7,0.6,1.6,0.4,2.4c-1.1,2.8-3.7,4.2-6.1,5.6c-3.3,1.8-6.6,3.6-9.9,5.4c-0.5-0.4-1.1-1.1-1.8-1.2
			c-3.1-0.6-4.6-3-6.6-5c-1-1-2.1-1.9-3.8-3.4V556l-0.6,0.1c-0.4-0.4-0.7-1-0.9-1.5c-0.3-1.6-0.3-3.2-0.5-4.8
			c-0.1-1.8-0.9-3.5-2.1-4.8c-3-3.2-2.6-5.9,0.7-8.7c0.7-0.5,1.1-1.3,1.4-2.1c2.1-12.5,3-25,0.5-37.6c-1.2-6.1-2.4-12.3-5.2-17.9
			c-2.5-4.8-6.9-8.2-12.2-9.4c1.7,4.9,2.2,10.1,1.5,15.2c-0.8,0-1.4,0.2-1.6,0c-3.4-3.2-7.8-3.7-12-4.4c-3.2-0.4-6.4-0.5-9.5-0.3
			c-1.5,0.1-2.9,0.4-4.3,1.1c-7.2,3.5-14.3,7-21.3,10.7c-2.1,1.1-4.1,2.5-5.9,4.1c-0.8,0.9-1.4,2-1.6,3.2c-0.2,1.5-0.3,2.9-0.2,4.4
			c-0.2,9.2-0.5,18.4-0.7,27.6c0,1.1-0.2,2.3-0.3,3.4l-2.6,1.1c-2,17.2-0.2,34.3-2.6,51.6c-1.4,0.1-2.6,0.2-3.8,0.2
			c-1.1,0-2.3,0-3.9,0c-0.3-2.6-0.6-5.1-0.7-7.5c-0.2-9.2-0.2-18.4-0.5-27.6c-0.1-4.5-0.8-9.1-1.3-13.6c-0.2-0.9-0.5-1.8-0.9-2.6
			l-25.5,1c-0.4,1.6-0.7,3.3-0.9,5c-0.8,9.3-1.4,18.6-2.3,27.9c-0.5,5.8-1.4,11.5-2.2,17.4l-5.7,0.3c-0.6-17-1.2-33.8-1.8-50.6
			l-3.5-0.7c-0.1-1-0.2-1.9-0.2-2.7c0.2-8.1,0.4-16.2,0.5-24.3c0-2.6-0.4-5.2-0.3-7.8c0.2-7.8,0.6-15.7,0.9-23.5
			c0.2-6.5,0.3-13,0.2-19.4c-0.2-1.8-0.6-3.6-1.2-5.3c-1-3.8-2.2-7.6-3-11.5c-1-5-1.7-10.1-2.5-15.1c-1.2-8.2-1.3-16.6-0.1-24.8
			c0.9-6.6,2-13.3,3.5-19.8c1.6-7.4,3.6-14.8,7.5-21.5c2.5-4.6,5.4-8.9,8.6-13c3.4-4.1,6.6-8.4,10.2-12.3c4.9-5.2,10.2-10,15.9-14.3
			c2.9-1.9,4.9-5,5.7-8.4c2.2-10.6,5.9-20.8,10.8-30.4c4.8-10,12.1-18.6,21.1-25.1c4.1-3,8.9-5.1,14-6c3.1-0.5,6.2-1.3,9.3-2
			c5-0.9,10.1-0.5,14.8,1.1c7.1,1.8,13.7,5,19.6,9.4c11.7,9.3,19,20.9,20.3,36c0.1,0.3,0.2,0.6,0.3,1c3,1.3,3.5,1.3,5-1.3
			c2.1-3.5,4.1-7.1,5.9-10.7c2.8-5.5,7.9-7.8,13.3-9.2C-498.4,274.4-495.3,275-492.8,276.8L-492.8,276.8z M-508,369.2
			c-1.3-3.5-0.5-5.5,2.8-6.7c1.2-0.4,2.3-1,3.4-1.6c2.4-1.1,4.7-2.3,7.4-2c1.8,0.2,3.5,0,5.6,0c-1.1-2.4-2.8-2.5-4.7-2.4
			c-1.6,0.1-3.3,0-4.4,0c1-2.3,2.2-4.7,3-7.2c2.9-9.1,2.6-18.6,3.9-28c0.1-0.7,0-1.4-0.1-2c-0.1-0.7-0.3-1.3-0.7-1.8
			c-3.7-3.2-7.1-6.7-12-8.2c-1.3-0.2-2.6-0.3-3.9-0.3c0.6,1.9,0.9,3.3,1.3,4.6c1.3,4,3,7.9,4,11.9c1.2,3.9,0.4,8.1-2.2,11.3
			c-1.6,1.8-3.5,1.5-4.2-0.7c-1-2.6-1.6-5.4-1.8-8.3c0.2-5.4-1.7-10-3.9-14.6c-1.2-2.3-4-3.2-6.2-2c-0.2,0.1-0.3,0.2-0.4,0.3
			c-2.5,1.3-4.1,3.7-4.5,6.5c-0.7,3.1-0.9,6.3-0.5,9.5c0.2,1.6,0,3.2-0.5,4.6c-0.2,1.2-1.4,2-2.6,1.8c-0.4-0.1-0.8-0.3-1.2-0.6
			c-1-0.7-1.7-1.8-2.1-3c-0.4-2.3-0.5-4.7-0.3-7.1c0.4-4.3,1.3-8.5,1.7-12.8s0.6-8.9-1.3-12.7c-2.4-4.6-3.2-9.8-6.2-14.1
			c-2.6-3.7-4.8-7.6-9.3-9.4c-0.5-0.2-1-0.5-1.3-0.9c-3.6-4.1-7.9-7.1-13.5-7.8c-4.2-0.5-8.5-1.1-12.4,0.7c-6.5,3-12.2,7-15.7,13.6
			c-1.7,3.2-3.5,6.3-5.3,9.5c0.5,0.3,0.7,0.5,0.9,0.5c4.4,0.5,8.6,2.1,12.2,4.8c3.1,2.4,5.4,8,4.3,11.7c-0.5,1.6-0.1,3.4,1,4.7
			c3,4,5.2,8.5,6.6,13.4c0.8,3.5,0,7,0,10.5c-0.1,1.6,0,3.1,0.3,4.7c0.9,3.3,2.3,6.4,4.2,9.1c0.7,1,1.2,2,2,3.3
			c-1.2,0.8-2.5,1.4-3.9,1.9c-4,0.7-6.6,2.5-6.9,6.9c-0.1,0.6-0.4,1.1-0.7,1.5c-2,4.1-4.7,7.8-8,11c-1.5,1.4-3.4,2.3-5.4,2.4
			c-4.4,0.4-8.9-0.7-12.7-3c-3.3-1.7-6.8-3-10.4-0.3c-2.9,2.1-6.1,3.8-9.3,5.7c0.8,1.3,1.4,2.6,1.8,4c0.1,1.5,0,2.9-0.2,4.4
			c0,0.5,0.1,0.9,0.2,1.3c0.9,5.6,2.8,11,5.6,16c1.9,3.1,2.8,3.8,6.3,2.6c3.4-1.2,6.7-2.9,10-4.2c3.7-1.5,7.3-3.6,11.1-4
			c7.9-0.9,15.9-0.8,23.8-1.1c0.8,0,1.6,0.1,2.3,0.4c2.5,0.6,5,1.5,7.5,2c4.2,0.8,8.2,2.1,11.3,5.1c1.3,1.3,2.3,2.8,3.5,4.1
			c3.5,3.4,5.9,7.9,6.7,12.7c0.3,0.9,0.6,1.8,1.1,2.6c0.5-0.3,0.9-0.6,1.3-0.9c3.6-5.1,6.7-10.6,9.1-16.3c0.3-1.2,0.5-2.4,0.4-3.7
			c0.1-1.2-0.1-2.4,1.1-3.4c0.6-0.8,0.8-1.8,0.5-2.8c-0.5-3.4-1.5-6.8-1.7-10.3c-0.4-3.5-0.2-7,0.5-10.5c1.1-4,3.4-7.6,5.2-11.4
			c0.3-0.6,0.8-1.1,1.4-1.4c2.6-1.6,5.2-3,7.8-4.5l0.3,0.6c-1.3,0.8-2.6,1.6-3.9,2.3c-3.2,1.4-5.6,3.3-6.3,7
			c-0.3,1.2-0.8,2.4-1.4,3.5c-1.7,3.6-2.3,7.7-1.7,11.7c0.8,4.4,0.9,8.8,0.3,13.2c-0.1,1-0.1,2,0,3.1c0,1.9,0.9,2.9,2.6,3
			c1.4-1.9,2.9-3.6,4.7-5.1c1.7-1.1,3.6-2,5.5-2.7c0.7,1,1.2,2,1.8,2.8c2.3,3,4.7,5.8,6,9.4c0.8,2,1.7,4,2.7,5.9
			c0.5,1,1.1,2,1.6,3.1l0.9-0.2c0.1-1,0.6-2.3,0.2-3c-2-3.9-3.2-8.3-6.5-11.5c-1.2-1.3-2.1-2.7-2.9-4.2c-2-3.8,0.3-7.3,4.6-7.1
			c0.9,0.1,1.8,0.2,2.7,0.4c1.8,0.4,3.5,0.8,5.3,1.1c6,1,11.6,3.4,16.3,7.1c0.6,0.3,1.2,0.6,1.9,0.8c-0.1-1.2-0.6-2.4-1.5-3.2
			c-2.3-2.5-5.4-4.3-8.8-5c-5-0.8-9.5-3.2-14.2-4.8c-1.3-0.5-2.4-1.3-3.2-2.4c-1.1-1-1.1-2.6-0.1-3.7c0.3-0.3,0.7-0.6,1.2-0.7
			c2.6-1.4,5.7-1.7,8.6-0.8c4.7,1.7,9.3,3.4,14.1,5c2.3,0.8,4.5,1.6,5.8,3.8c0.3,0.5,1.1,0.7,1.6,1.1c1.7-1.3,1-2.3-0.1-3.4
			c-3.5-3.3-7.9-5.4-12.7-6.1c-4.5-0.8-9-1.3-13.5-1.9c-1.8-0.1-3.6-0.9-4.8-2.3c-0.9-0.8-1-2.2-0.2-3.2c0.2-0.2,0.4-0.4,0.7-0.5
			c2.5-2,5.8-2.9,9-2.5c0.9,0,1.8-0.1,2.7-0.3c5-0.4,10-0.8,14.7,1.5c1,0.3,2,0.4,3.1,0.5c-2.9-4.2-7.2-3.8-11-5.5
			c2.6-1,2.1-2.9,1.8-4.5c-1-6.6-1.6-13.3-2.9-19.9c-1.4-7.2-3.2-14.4-3.1-21.9c0-2.3-1.2-3.7-3.5-5.4c1.7,4.2,1.5,7.3-2.8,8.3
			c-0.3,1.8-0.7,3.4-0.9,5c-0.3,1.8-1.1,3.8-0.5,5.3c1.1,3.9,1.8,8,2,12.1l-2.1-7c-1.2,6.3-3.2,11.9-3.7,17.8l7.5,2.2
			c-0.3-1.3-0.4-2.3-0.7-3.4c-0.7-3.2-1.7-6.3-1.1-9.7c1.3,5.8,2.6,11.7,3.8,17.5c0.1,1.5,1,2.8,2.5,3.3c-4.2,0.8-8.2,1.6-12.2,2.3
			c1-0.5,2-1,3-1.5c1.9-0.6,3.3-2.3,3.5-4.2c-2.3-1.5-5.2-1.9-7.8-1.1c-2.3,4.4-2.3,4.4-2.2,6.8h3.6c-3.5,3.1-8.2,2.5-12.3,3.6
			C-508.1,371.2-508.4,370.2-508,369.2c6.3,0.9,9.8-1.9,8.9-7.7c-1.7,0.6-4.4,0.4-6.1,1C-508.3,363.7-508.1,365.6-508,369.2
			L-508,369.2z M-633.7,377.7c0.3,1.4,0.5,2.7,0.7,4c0.7,2.9,0,6-1.9,8.4c-3.5,4.1-9.1,5.6-14.2,4c-2.1-1.1-4.7-0.7-6.5,0.8
			c-3.2,2.6-7.9,2.1-10.5-1.2c-0.7-0.9-1.2-1.9-1.4-3c-0.6-2.9-1-5.8-1.1-8.7c0.1-1.3-0.3-2.7-1.2-3.7c-3.5-3.6-4.1-8-3-12.7
			c0.7-3.2,2.9-5.8,5.9-7c2.7-1,5.5-2.1,8.6-1.3c0.9,0.2,1.8,0,2.5-0.6c1.3-1.1,2.3-2.5,2.9-4c3-9.9,8.5-17,19.4-18.7
			c1.8-0.5,3.5-1.5,5-2.7c3.5-2.5,3.8-6.4,3.9-10.1c0-5.7,1.3-11.3,3.9-16.5c2.6-5,5.7-9.6,11.2-11.8c2.4-1.1,4.9-1.9,7.5-2.3
			c2.8-0.2,5.1-2.3,5.5-5.1c-0.2-0.3-0.5-0.7-0.7-1.1c-1.6-2.4-3.1-4.9-2.7-7.9c0.6-5.8,3.2-11.9,12.1-12.4c2.3-0.3,4.6,0.1,6.6,1.2
			c0.9,0.4,1.9,0.4,2.8,0c3.6-1.8,7.6-2.5,11.6-2c3.2,0.2,6.4,0.5,9.7-1c2.7-1.3,8.3,0,9.6,3.7c0.4,1.3,1,2.5,1.5,3.8
			c0.2,0.9,0.6,1.7,1.1,2.4c2,2,4.1,3.8,6.3,5.8l3.5-3.7c-0.2-0.5-0.4-1-0.8-1.5c-3.5-4.4-7.5-8.3-11.9-11.7
			c-2.7-1.9-5.5-3.6-8.5-5.1c-1.9-1.1-4.2-1.1-6,0.1c-6,3.2-11.3,1.7-15.1-3.6c-0.5-0.9-1.6-1.4-2.6-1.1c-7.3,1.7-14.8,2.7-21.2,7.1
			c-4.6,3-8.5,6.7-11.7,11.1c4.7,5.5,4,10.8,1.1,17.1c-2.7,5.9-8.4,7.2-14.5,6.5c-0.4,0.5-0.7,1-1,1.6c-2.6,6.2-4.5,12.6-5.7,19.3
			c-0.4,3.2-1.5,5.7-4.9,7.2c-2.1,0.9-3.8,2.8-5.8,4.2c-1.3,0.9-2,2.5-1.8,4.1c0.1,7.5-4.5,12.3-11.8,12.6c-1,0-1.9,0.3-2.7,0.9
			c-2.9,3.1-5.6,6.3-8.2,9.6c-7,9.4-10.9,20.1-13.2,31.5c-0.6,3-1.1,5.9-1.7,8.7c0.6,0.5,0.9,0.8,1.2,0.9c7.1,2.2,8.2,9.9,5.8,16.5
			c-1.5,4.2-3.8,7.7-8.2,9.1c-0.4,8.5,2.4,25.4,5.1,29.7c0.7-0.7,1.3-1.5,1.9-2.4c0.9-1.5,2.2-2.6,3.8-3.2c2.7-1.2,5.3-0.5,8-0.6
			c4.2-0.1,6.9,2.6,10,4.5c0.8,0.6,1.4,1.5,1.7,2.5c1.5,3.3,1.3,7.1-0.5,10.2c-2.8,4.7-7.3,6.7-12.6,6.6c-1.8,0-3.5-0.3-5.7-0.5
			c0.5,1.2,0.7,1.9,1.1,2.6c1.8,3.4,3.5,6.9,5.3,10.3c1.6,3,1.7,2.9,5.1,2.2c5.7-1.1,11.2-1.3,16.1,2.7c3.3,2.4,5.2,6.2,5.2,10.2
			c0,0.7,0.1,1.5,0.2,2.4c2.4,0,4.5,0,6.7,0c4.5-0.1,8.8-1.6,12.4-4.2c5.6-3.9,11.6-7.2,17.9-9.9c0.6-0.3,1.1-0.7,1.6-1.2
			c-0.7-0.8-1.2-1.3-1.8-1.9c-3.2-3.2-3.3-7-1.7-10.8c1.1-3.2,4.1-5.4,7.5-5.6c0.9,0,1.8-0.2,2.7-0.4c2.9-0.6,6-0.2,8.7,1.1
			c3.2,1.1,5.5,4,5.8,7.4c0.3,2.1,0.4,4.2,0.6,6.4l11.7,3.4c0.6-4.8,0.1-8.9-3.2-12.4c-1.1-1.1-2.1-2.4-3.1-3.6
			c-1.2-1.2-1.7-3-1.3-4.7c0.1-0.6,0.2-1.1,0.2-1.7c-2.7-0.7-5.3-1.7-7.9-2.8c-4.3-2.4-8.3-5.1-12.4-7.8c-1.5-1-2.9-2.2-4.4-3.3
			c-1-0.7-2-1.2-3.1-0.3c-2.7,2.1-6,2.1-9.1,2.5c-5,0.6-10.6-3.2-10.6-9c-0.1-3.3,1-6.5,3.2-9c-1-1.4-2-2.7-2.8-4s-1.5-2.8-2-3.9
			c-2-0.6-4.2,0.3-5.2,2.2c-2,3-4.3,5.8-3.5,9.9c0.3,1.8,0.1,3.6-0.6,5.3c-2.2,5.5-6.1,7.7-12,7.6c-1.7,0-3.4,0.2-5,0.4
			c-1.7,0.4-3.5-0.4-4.3-2c-1.7-3-3.4-5.9-3.4-9.5c-0.1-0.9-0.2-1.8-0.4-2.7c-3.1-0.5-4.9-2.7-6.5-4.8c-3.9-5.1-3.9-15.9,3.7-17.8
			c0.5-0.1,0.9-0.7,1.5-0.9c4-1.6,8.1-2.4,11.9,0.6c1.4,1.1,2.8,2.3,3.9,3.7c1.1,1.6,3.1,2.3,5,1.7c3.9-0.8,6-3.4,7.9-6.4
			c-4.2-7.9-4.2-7.9-3.1-10.4c0.3,0.1,0.8,0.1,0.9,0.3c2,3.2,3.7,6.5,5.2,9.9c1.1,3,2.7,5.8,4.5,8.4c1,1.1,1.8,2.4,2.5,3.7
			c2.2,5.6,6.9,8.9,11,12.7c18-6.7,26.5,6.7,24.5,17.9c2.8,2.3,6.2,3.8,9.7,4.5c3.4,0.5,6.8,0.9,10.2,1.1c5.7,0.4,11.4-0.7,16.5-3.3
			c-0.3-1-0.5-2-0.5-3.1c0.6-4.7,3.6-10.7,9.7-11.8c3.5-0.6,7-1.3,10.5-0.7c1.6,0.5,3.3-0.3,3.9-1.8c2.2-3.9,4.3-7.8,6.3-11.7
			c0.2-0.6,0.4-1.3,0.5-2c-2,1-3.7,2.4-5.6,2.8c-2.4,0.6-4.6,1.9-6.2,3.8c-3.5,3.6-7.4,6.6-12.6,7.7c-3.5,0.9-6.9,1.9-10.3,3.2
			c-2.7,6.3-4,7.6-9.8,9c-1.9,0.3-3.8,0.4-5.8,0.3c-4.4-0.1-8.1-3.1-9.2-7.3c-0.2-1.6-0.1-3.2,0.2-4.8c-0.6-0.4-1.2-0.8-1.9-1.1
			c-6.4-2.1-11.5-6.4-16.6-10.5c-4.6-3.8-9.7-7.2-13.4-12c-0.2-0.4-0.6-0.7-1-0.9c-0.7-0.3-1.4-0.5-2.2-0.5
			c-6.1,1.1-10.4-1.5-13.1-6.8c-2.4-4.6-2.7-9.4,0.4-13.9c1-1.3,2.2-2.5,3.4-3.7c-0.4-3.3,1.3-7.1-2.3-9.8L-633.7,377.7z
			 M-308.5,464.3l-0.6-0.6c-5.6,1.8-10.7,4.8-16.6,5.8c-5.6,0.9-11,2.8-16.6,3.6c-7.6,1.2-15.3,1.9-23,2.6
			c-5.4,0.5-10.8,0.9-16.3,1.3c-8.4,0.6-16.8,1.1-25.2,1.7c-4.5,0.3-9,0.6-13.5,0.9c-0.2,0.3-0.5,0.6-0.6,0.9c-3,7.2-6,14.5-9,21.7
			c-0.3,0.5-0.4,1.1-0.3,1.6c0.7,3.1-1.1,4.3-3.6,5.5c-1.4-1.5-3.2-1.1-5.1-0.9c-3.6,0.4-7.2,0.7-10.9,1c-1.3,0.1-2.7,0-4,0
			c-1.9,5.8-3.5,11.7-4.8,17.7c2.4,1.9,4.6,2.6,7.2,1.5c1.6-0.7,3.4-1.2,5.2-1.4c3.9-0.3,7.9-0.3,11.8-0.4c3.2,0,6.4,0.3,9.5,0
			c5.2-0.3,10.4-1,15.6-1.5c1.6-0.1,3.2,0.1,4.7,0c2.2,0.1,4.3,0,6.5-0.2c5.9-0.7,11.7-1.7,17.5-2.4c2.9-0.3,5.9,0.1,8.8-0.5
			c7.4-1.3,14.5-4.1,20.7-8.3c1.4-1,3.1-1.4,4.5-2.3c1.4-0.7,2.7-1.7,3.7-2.9c3.4-4.7,6.6-9.5,9.7-14.4c5.9-9.5,12.7-18.3,20.3-26.4
			c0.1-0.1,0.4,0,0.7,0v1.6l0.4,0.1L-308.5,464.3z M-433.3,503h0.9c2.6-6.2,5.2-12.5,7.8-18.7c0.9-2.2,2-4.4,2.8-6.6
			c0.5-1.3,0.7-2.6,0.6-3.9c-0.3-2.8-1-5.6-1.4-8.3c-0.7-4.7-1.3-9.4-1.9-14.2c-0.4-2.8-0.7-5.6-1-8.4c-0.2-1.9-0.3-3.9-0.6-5.8
			c-1.2-6.7-2.4-13.4-3.7-20.1c-1.7-8.7-3.4-17.4-5.1-26.1c-1.2-5.9-2.5-11.8-3.8-17.7c-0.8-3.9-1.6-7.8-2.4-11.7
			c-1.3-6.9-2.5-13.9-3.8-20.8c-1.5-7.6-3-15.2-4.6-22.7c-1.5-7.2-3.1-14.4-4.6-21.7c-1.2-5.6-2.2-11.1-3.5-16.7
			c-0.9-4.9-2.5-9.7-4.7-14.2c-1.1,6.4-2,12.8-2.8,19.2c-0.9,6.3-0.4,12.8-2.5,18.9c-0.3,0.7,0.2,1.7,0.3,2.5
			c0.5,2.6,2.4,4.8,2.3,7.6c0,1.1,0.4,2.3,1,3.2c0.8,1.6,1.3,3.4,1.2,5.2c0.4,5.2,1,10.4,2,15.5c0.7,4.6,1.6,9.1,2.4,13.7
			c1.5,8.8,3,17.7,4.6,26.5c0.7,4.1,1.7,8.2,2.4,12.4c0.9,5.1,1.7,10.3,2.6,15.5c0.9,5,1.9,10.1,2.7,15.1c1,6.1,1.7,12.2,2.7,18.2
			c0.5,3,1.8,5.9,2,8.9c0.6,6.8,1.5,13.5,3,20.2c0.9,4.9,1.3,9.9,2,14.8c0.8,5.6,1.5,11.2,2.3,16.8
			C-433.9,500.9-433.5,502-433.3,503L-433.3,503z M-227.3,343.7c-1.5,1.3-2.7,2.2-3.7,3.3c-4,4.1-8.6,7.4-13.8,9.9
			c-2.6,1.2-5.1,2.6-7.4,4.3c-6.1,4.3-12.8,7.5-19.9,9.6c-8.1,2.6-16.4,4.5-24.6,6.7c-3.5,0.9-7,1.9-10.5,2.9
			c-3.1,0.8-5.9,2.6-7.9,5.1c-2.3,2.9-3.3,6.6-2.8,10.3c0.5,3.7,1,7.5,4.9,9.6c1.2,0.8,2.4,1.8,3.4,2.8c1.6,1.6,3.3,3,5.2,4.3
			c2.9,1.8,5.3,4.3,6.9,7.3c0.5,0.9,1,1.7,1.7,3c2.5-0.6,5-1.2,7.4-1.9c1.8-0.5,3.6-1.2,5.5-1.7c5.3-1.4,9.8-4.5,14.7-6.9
			c0.2-0.1,0.4-0.3,0.5-0.4c2.5-2.6,4.9-5.5,7-8.4c6.1-8.5,11.6-17.4,16.3-26.7c3.9-7.9,8.5-15.5,12.9-23.2
			C-229.4,350.5-228,347.2-227.3,343.7L-227.3,343.7z M-678.1,460.9l-0.6,0.2c-0.1,1.1-0.2,2.2-0.2,3.3c-0.1,4.9-0.3,9.7-0.3,14.6
			c0,12.3,0,24.5,0.1,36.8c0,2.7,0.9,3.6,3.7,3.7c2.9-0.1,5.9,0,8.8,0.2c5.4,0.9,10.8,0.4,16.3,0.5c4.7,0.1,9.5,0.2,14.3,0.3
			c3.1,0.1,6.1,0.4,9.2,0.4c2.7,0,2.9-0.3,3.1-2.8c0.3-4.1,0.7-8.2,0.8-12.2c0.1-2.9-0.2-5.8-0.3-8.4c-3.7,0.7-7,1.3-10.3,1.8
			c-1.5,0.1-2.9,0.2-4.4,0.1c-4.6,0.1-9.1-0.1-13.3-2.2c-0.7-0.3-1.5-0.5-2.2-0.7c-2.2-0.7-4.1-2-5.5-3.8c-1.5-2-3.1-3.9-4.7-5.8
			c-1-1.1-2-2.2-2.8-3.4c-3.3-6.1-6.4-12.2-9.6-18.4C-676.9,463.7-677.5,462.3-678.1,460.9L-678.1,460.9z M-568,351.2
			c-1-1.4-1.9-3-2.7-4.5c-1.3-2.6-2.2-5.4-2.9-8.3c-0.4-2.7-0.4-5.5,0.1-8.2c1.3-6.5-2-11.4-5-16.5c-1.1-1.8-2.4-1.7-3.9-0.1
			c-0.9,0.9-1.7,1.8-2.6,2.7c-3.9,3.7-8.8,6.3-14.1,7.4c-0.1,1.1,0,2.1,0,3.2c0.4,3.5,1.1,7,1.3,10.5c0.3,4,0.3,7.9-0.1,11.9
			c-0.6,5.8-3.9,10.6-7.3,15.2c-0.9,1.2-1.7,2.3-2.4,3.2c3.1,1.3,5.8,2.5,8.6,3.6c1.7,0.7,3.4,1.2,5.2,1.4c3.7,0.3,7.3-0.1,9.5-3.7
			c-0.6-1.3-2.8-1.6-1.9-3.4c1.3-0.9,2.3-2,3.4-2.9c1.4-1.2,2.2-3.7,4.9-2.8c0.4,0.1,1-0.3,1.4-0.7c1.5-1.1,1.8-3.3,0.7-4.8
			c-0.1-0.2-0.3-0.3-0.4-0.5c-1.1-1.4-1.2-3.3-0.2-4.8c0.6-0.9,2-2,2.9-1.8c1.1,0.2,2.1,1.5,3,2.4c0.3,0.3,0,1,0,1.6L-568,351.2z
			 M-479.8,397.1c0.2,1.7,0.3,2.8,0.5,3.9c0.6,3.7,1.1,7.4,1.7,11.1c1,7.1,1.9,14.2,2.9,21.3c0.3,1.8,0.7,3.6,0.9,5.3
			c0.8,7,1.2,14,2.2,21c1.5,10.9,3.4,21.8,5.1,32.7c0.6,3.8,0.9,7.7,1.5,11.5c0.2,1.8,0.6,3.6,0.9,5.4c0.5,2.6,1,5.1,1.5,7.7
			c0.5,3.1,1,6.1,1.5,9.4c0.5-0.3,0.8-0.4,0.8-0.5c1.6-5.2,3.2-10.4,4.8-15.6c0.2-0.8,0.2-1.5,0.1-2.3c-0.8-4.6-1.9-9.1-2.6-13.7
			c-1-6.8-1.6-13.8-2.7-20.6c-1.8-11.4-3.9-22.8-5.7-34.3c-0.7-4.7-1-9.5-1.6-14.2c-0.7-6.2-1.9-12.4-2.2-18.6
			c-0.2-4-2.4-5.9-5.2-7.6C-476.9,398.3-478.3,397.7-479.8,397.1L-479.8,397.1z M-548.3,542.4c4.9,1.7,6.8,7.4,12,9.1
			c-1.8-2.5-3.3-4.7-4.8-6.9c-1.1-1.6-1.8-3.6-3.3-4.7c-2.6-2.1-2.3-4.4-1.1-7c1.2-2.3,2.2-4.7,3-7.2c1.8-7.6,4.4-15,4.9-22.9
			c0.7-9.8,0.4-19.5-2.5-29c-1.3-4.7-4.3-8.8-8.4-11.6c-1.4-1.1-3-2-4.6-2.7c-2.8-1-5.8-1.2-8.7-0.8c-2.6,0.2-5.2,0.2-7.8-0.1
			c-1.4-0.1-2.7-0.6-3.5,1.2c-0.8,1.3-0.5,3,0.6,4c2,2.1,3.8,4.1,6.9,4.7c3.4,0.6,5.5,3.4,8.1,5.5c2.5,1.8,4.3,4.4,5.2,7.4
			c1.2,4.1,2.6,8.2,3.7,12.4c3.1,12.2,3.2,25,0.2,37.2c-0.3,1.3-0.6,2.7-0.8,4c-0.1,0.6-0.2,1.5,0.2,1.9
			C-547.6,538.3-547.6,540.1-548.3,542.4z M-268.2,416.4l-0.5-0.5c-2,0.8-4.3,1.2-5.9,2.5c-2.7,2.1-5.9,3.5-9.2,4
			c-2,0.2-3.6,1.8-3.8,3.8c-0.5,3.4-1.8,6.6-3.6,9.5c-0.7,1-1.2,2.2-1.3,3.5c-0.2,3.8-1.3,7.6-3,11c-3.4,6.9-6.4,14-9.6,21
			c-1.8,4-3.6,8-5.6,12.3c4.2-0.5,7.5-1,8.5-5.3c0.3-0.8,0.6-1.5,1.1-2.1c5-8.4,10.1-16.7,14.9-25.3c4.8-8.6,9.3-17.5,13.9-26.2
			C-271,421.8-269.6,419.1-268.2,416.4L-268.2,416.4z M-624.1,522.7c-5.9-0.1-11.6-0.2-17.2-0.3c-0.2,0-0.5,0-0.7,0
			c-6.8,0.9-13.6,0.4-20.4,0.4c-4,0-8.1-0.4-12.1-0.4c-1.6,0.1-3.2,0.4-4.7,0.7l0.8,9.9c2.5,0.3,4.6,0.7,6.7,0.8
			c2.6,0.1,5.1-0.2,7.7-0.1c4.6,0,9.3,0.4,13.9,0.2c7.1-0.3,14.2-1.1,21.4-0.6c1.7,0,3.4,0,5.1-0.2
			C-624.5,529.4-622.9,526-624.1,522.7L-624.1,522.7z M-601.3,405.9c-3.4,0.4-5.8,2.1-8.5,3.5c5.5,6.8,21.4,19.5,26.6,21.2
			c2.7-6.2,7.7-8.8,14.5-7.9c-0.7-4-1.9-7.8-1.8-11.5c0.1-3.7,1.4-7.4,2.3-11.6l-7.8,0.4c-0.4,8-5.2,11.8-12,13.1
			C-594,414.2-598.4,411.5-601.3,405.9L-601.3,405.9z M-540.4,433.1c1.8-1.2,3.4-2.3,4.9-3.4c1.6-1,2.3-2.9,1.9-4.8
			c-0.6-2.6-1.3-5.2-2.3-7.8c-1.6-4.5-5.3-7.6-8-11.4c-0.5-0.6-1.1-1.1-1.8-1.5c-4.2-3.1-9.1-4-14.1-4.5c-2.9-0.4-5.7,1.4-6.6,4.2
			c-1.4,3.9-1.8,8-1,12.1c1.3-0.2,2.4-0.3,3.4-0.5c3-0.5,6.3-1.1,9,0.3c4.9,2.6,9.6,5.7,11.8,11.3
			C-542.4,429-541.4,430.8-540.4,433.1L-540.4,433.1z M-637.9,376.8c-3.8-2.6-7.3-4.7-10.5-7.2c-3.5-2.7-3.3-7.5-5.4-11.5
			c-0.9,1.3-1.7,2.3-2.3,3.3c-1.4,2.6-3.1,5-5,7.3c-3.4,3.6-4.1,8-4.7,12.5c-0.6,3.4,0,6.9,1.8,9.8c1.5,2.2,3.3,3.1,5.8,2.3
			c1.4-0.5,2.6-1.3,3.7-2.3c2.1-1.9,3.9-4.1,5.9-6.1C-645.6,381.9-642.9,378.2-637.9,376.8L-637.9,376.8z M-469.9,580.9
			c7.3-17,15.6-33.2,21.8-50.2l-11.2-1.1c-0.6,1.7-1.5,3.7-2.1,5.8c-2.2,7.2-4.1,14.4-6.4,21.5c-2,6.3-4.2,12.5-6.4,18.7
			c-0.7,1.8-0.8,3.8-0.1,5.6L-469.9,580.9z M-630.7,411c-1.8,3.5-5.3,5.8-9.1,6.3c-1.7,0.2-3.4,0.2-5-0.1c-3.2-0.7-6.3,1.1-7.3,4.2
			c-1.9,4.1-2.9,8.6-3,13.2c0.1,3.3,1.5,6.3,3.8,8.6c1.5-0.5,2.9-1.2,4.2-2.1c4.8-4.2,9-9,12.6-14.3c2.3-3.4,4.7-6.8,7.1-10.2
			L-630.7,411z M-543.7,433.3c-1.3-6.4-4.8-10.6-9.7-14.1c-4.4-3.2-8.5-2.4-13.2-1.1c1.9,4.6,1.4,9.9-1.5,14
			c-0.6,1.2-1.2,2.4-1.6,3.7C-560.4,439.3-552.1,437.4-543.7,433.3L-543.7,433.3z M-630.1,585c0.3-3.2,0.9-6.3,0.9-9.4
			c0.2-11.6,0-23.2,1.7-34.7c0.1-1.8,0.2-3.7,0-5.5c-1.4-0.1-2.4-0.2-3.4-0.2c-6.4,0.3-6.7-0.9-6.3,6.9c0.4,5.7,0.9,11.3,1.2,17
			c0.5,7.7,0.8,15.4,1.4,23.1C-634.3,585.1-634,585.2-630.1,585z M-675.9,536.7c-1.3,7.2-0.3,14.3,0,21.3c0.2,5.7,0.8,11.3,1.2,17
			c0.2,3.4,0.4,6.8,0.7,10.7c1-0.6,1.9-0.8,2.2-1.3c0.4-0.8,0.6-1.7,0.7-2.6c0.9-7.7,1.7-15.4,2.5-23c0.7-7.2,1.4-14.4,2.1-22.1
			L-675.9,536.7z M-532.1,445c-2.9,2-5,3.6-7.3,5.2c-1,0.7-1.5,2-1.2,3.3c0.3,2.2,0.5,4.5,0.4,6.8c-0.5,5.4,1,10.3,3,15.1
			c0.4,1,0.9,1.9,1.3,2.9C-532.7,467.5-531.4,456.2-532.1,445z M-467.8,412c0.1,2,0.1,3.6,0.3,5.3c0.2,2.1,0.7,2.6,2.9,2.5
			c5.2-0.2,10.4-0.7,15.5-1c0.1,0,0.2-0.3,0.5-0.7l-1-5.6C-455.6,411.5-461.7,411.3-467.8,412L-467.8,412z M-463.3,446.5h19.1
			c-0.4-2.3-0.8-4.1-1.2-6.2c-5.9-1.1-11.8-2.1-17.8-1c-0.4,0.1-0.7,0.5-1.1,0.7C-464,442.2-463.7,444.3-463.3,446.5L-463.3,446.5z
			 M-465.1,431.2c0,1-0.1,2,0,3.1s0.3,2.2,0.4,3.1h18.6c-0.1-1.6-0.2-2.7-0.2-3.8c0.1-1.6-1-2.9-2.6-3.1c-0.1,0-0.2,0-0.4,0
			c-0.9-0.1-1.8-0.2-2.7-0.2c-2.9-0.2-5.9-0.3-8.8-0.5C-462.3,429.4-464,430-465.1,431.2L-465.1,431.2z M-464.1,524.4
			c-5.1,14.5-8.7,29.5-10.7,44.7c2.2-5.8,4.4-11.6,6.3-17.5c1.7-5.4,3-10.9,4.9-16.3C-462.4,531.5-463.7,528.1-464.1,524.4
			L-464.1,524.4z M-446.9,427.8c-0.4-2.3-0.8-4.3-1.2-6.3c-6.2-0.2-12.2-0.6-18.4-0.4c0.5,2.8,0.9,5.1,1.3,7.6L-446.9,427.8z
			 M-461.4,455.6l18.2-0.6c0.2-2.1,0.3-4-1-5.7c-6.2-0.5-12.3-1.4-18.8-0.9c0.3,1.8,0.5,3.3,0.7,4.7
			C-461.9,453.9-461.7,454.7-461.4,455.6z M-451.5,403.2c-5.8-0.7-11.7-0.4-17.4,0.7c0.3,2,0.5,4.1,0.8,6.4l17.8-1.2L-451.5,403.2z
			 M-460.5,353.3c0.1-0.7,0.1-1.3,0.1-2c-0.1-0.8-0.2-1.6-0.4-2.3c-0.6-2.7-0.7-2.8-3.3-2.8c-3.3,0-6.6,0-9.9,0.1
			c-0.9,0.1-1.9,0.3-2.8,0.6l0.8,7.4C-470.5,354.8-465.6,353.1-460.5,353.3L-460.5,353.3z M-478.5,337.4c0.4,2.5,0.7,4.2,1.1,6
			c0.2,1.2,1.3,2,2.5,1.9c4.3,0,8.6-0.5,12.8-1.7c-0.2-2.3,0.2-4.5-1.2-6.1L-478.5,337.4L-478.5,337.4z M-460.2,463.6l18-1.3
			c0.1-0.4,0.2-0.8,0.2-1.2c0-3.9-0.5-4.4-4.3-4.3c-4.3,0.1-8.6,0.1-12.9,0.2c-0.8,0.2-1.5,0.4-2.2,0.8
			C-460.9,459.8-460.6,461.6-460.2,463.6L-460.2,463.6z M-439.9,473.1l-18.9-1.2c0.3,2.4,0.5,4.3,0.7,6c3.1,1.1,14.4,1.1,18.4,0
			L-439.9,473.1z M-313.4,483.9c2.3-4.9,4.5-9.8,7-14.4c2.4-4.6,5.2-9,6.7-14.1c-1.8,1.4-3.2,3.3-4.9,4.7c-1.6,1.3-2.8,2.9-3.5,4.8
			c-1.1,2.8-1.6,6.6-5.7,7.2c-0.3,0-0.7,0.6-0.9,1c-1,3.3-0.9,6.7,0.1,10C-314.4,483.2-314,483.4-313.4,483.9L-313.4,483.9z
			 M-463.8,334.5c0-1.6,0.1-2.8,0-4c0-1.1-0.8-1.9-1.8-2h-0.1c-4.4-0.2-8.8-0.6-13.4,0.6c0.2,2.2,0.4,4.3,0.6,6.6
			C-473.4,336.7-468.7,335.8-463.8,334.5z M-459,470.8c3.4,0,6.4,0.1,9.4,0s6-0.3,9.4-0.4c-0.4-1.9-0.7-3.5-1.1-5.4
			c-6.2,0.7-12.3-1.8-18.6,0.5L-459,470.8z M-439.2,480.5h-18.3c0.2,2.1,0.3,3.9,0.5,5.7c7.1,0.7,15.9,0.1,18.6-1.2L-439.2,480.5z
			 M-465.4,318.4l-1.3-5.7h-14.4l0.6,6.6C-475.5,319.9-470.4,319.6-465.4,318.4L-465.4,318.4z M-474.6,362.3l15.6-1l-1-5.7
			c-3.6-0.1-7.1-0.3-10.6-0.2C-476.1,355.6-476.7,356.5-474.6,362.3L-474.6,362.3z M-471.7,379.4c2.2,2.2,4,3.9,5.8,5.6
			c0.7,0.7,1.6,1.2,2.6,1.5c2.9,0.1,5.8-0.1,9.2-0.2l-1.5-5.9C-460.8,377.2-466,379.2-471.7,379.4L-471.7,379.4z M-437.8,495.8
			c-1.5,0-2.9,0.1-4.2,0c-1.5-0.1-2.9-0.5-4.4-0.6c-1.6-0.2-3.1-0.3-4.7-0.3c-4.2,0.1-4.9,1.1-3.8,5.3c0.2,0.4,0.4,0.7,0.7,1.1
			l16.9-0.9L-437.8,495.8z M-455.9,493.3h18.2c-0.2-1.9-0.3-3.4-0.4-5c-6.2,0.2-12.1-0.8-18.2,0.1
			C-456.2,490.3-456,491.8-455.9,493.3L-455.9,493.3z M-453.3,393.5c0-0.9,0.1-1.7,0-2.4c-0.2-2.5-0.6-2.7-3.2-2.7
			c-1.6,0.1-3.2,0.1-4.7,0c-1.2-0.2-2.5,0.2-3.4,0.9c-2.4,1.7-3,1.5-5.1-0.8c-0.6-0.6-1-1.6-2.5-0.8l1.7,6.8L-453.3,393.5z
			 M-452.5,395.9c-5.6-0.9-11.3-0.8-16.9,0.1c0.6,2,1.1,3.7,1.6,5.2c2.8,0,5.4,0.1,8,0c2.5-0.1,5.1-0.5,7.8-0.9L-452.5,395.9z
			 M-474.4,363.5l-0.1,1c0.5,0.4,1,0.7,1.6,1.1c2.5,1.3,5.2,2.1,6.8,4.8c0.4,0.4,0.9,0.6,1.4,0.6c2.4,0.1,4.7,0,7.1,0
			c0.4-2.5,0-5.1-1.1-7.4C-464,364.8-469.2,362.3-474.4,363.5L-474.4,363.5z M-479.8,326.6c5.3,1.9,10.3-0.4,15.6-0.6l-0.4-4.8
			h-15.1L-479.8,326.6z M-456.1,376.9c-0.4-1.4-0.7-2.6-1-3.8c-5.8-0.7-11.2-0.9-16.5,0.6c0.3,3.7,0.9,4.4,4.2,4.4
			c3.1,0,6.1-0.5,9.1-0.7C-459,377.2-457.8,377-456.1,376.9L-456.1,376.9z M-453.9,502.7c0.1,3.6,0.4,4.2,3.2,4.4
			c5,0.4,10.1,0.7,15-0.9c0.8-2.2-0.4-2.9-2.1-3.1c-4.5-0.3-9-0.5-13.5-0.8C-452.2,502.4-453.1,502.5-453.9,502.7L-453.9,502.7z
			 M-542,464.5c0.4-3.9,0.2-7.9-0.5-11.8l-11.3,4.6C-549.2,458.6-546.2,462.2-542,464.5L-542,464.5z M-471.6,468.2
			c-3.6-0.8-7.4-0.2-10.6,1.6c-1.9,0.8-3.5,2.2-4.4,4c-0.8,1.5-0.3,3.4,1.3,4.2c0.1,0,0.1,0.1,0.2,0.1c1.5,0.8,2.1,0.4,3.4-1.6
			c2.2-3.5,4.8-6.5,9.2-7.5C-472.4,469-472.2,468.7-471.6,468.2L-471.6,468.2z M-474,454.7c0.1-1.3-0.6-1.4-1.9-1.5
			c-2.7-0.2-5.3-0.8-8-1.1c-0.9-0.2-1.8-0.3-2.6-0.1c-1,0.3-2,0.9-2.6,1.8c-0.5,1.3,0,2.8,1.2,3.6c1.1,1,2.7,1.4,4.1,1
			c1.3-0.4,2.6-0.8,3.8-1.3C-478,456.4-476.2,455.6-474,454.7L-474,454.7z M-484.2,370.4c0.4,2.2,0.6,4.1,1,5.9
			c0.2,0.5,0.5,1,1.1,1.2c2.5,0.9,5.1,1.3,7.7,1.2c-0.7-2.9-1.4-5.6-2.1-8.3L-484.2,370.4L-484.2,370.4z M-475.8,441.2
			c-0.4-0.6-0.6-1.3-0.9-1.4c-2.6-0.4-4-2.2-5.5-4.1c-1.4-1.6-2.4-3.5-2.9-5.6c-0.3-0.9-1.1-1.5-2-1.7c-0.7,0.1-1.5,1.2-1.8,2
			c-0.3,1-0.2,2,0.2,3c1.2,2.4,3.3,4.4,5.7,5.5C-480.7,439.7-478.5,440.3-475.8,441.2L-475.8,441.2z M-468,309.5
			c-4.7-3-10-1.8-15.2-2.6l-0.2,3.3C-478.1,311.6-473.1,310.6-468,309.5L-468,309.5z M-491.1,385.5l8.9,3.7
			c-0.3-1.7-0.4-2.7-0.6-3.6c-0.8-2.2-2.9-3.6-5.2-3.5C-490,382-490.5,383.6-491.1,385.5L-491.1,385.5z M-517.8,419.7
			c1.2-3.7,2.1-6.7,3.1-9.7c0.7-2.3,0.7-3.6-2.6-4.3c-1,2.2-2,4.3-1.2,7C-518.1,414.9-517.8,417.3-517.8,419.7L-517.8,419.7z
			 M-481.1,384.6c0.3,2-0.3,3.8,1.3,4.7c2.2,1.2,4.4,2.2,6.7,3.2c-0.7-2.5-1.2-4.4-1.7-6.3L-481.1,384.6z M-294.3,425.9
			c0.6,2.5,1.1,4.5,1.7,7.1c1.9-2.9,3.4-5.2,3.6-8.2L-294.3,425.9z M-485.9,371.4c-4.5-1.3-5.6-0.6-6.4,3.9l3.7,0.8L-485.9,371.4z
			 M-534.9,488.1l7.3,1.2c-2.1-2.2-4.7-3.8-7.6-4.8L-534.9,488.1z M-496,382.6l3.2,2.3c0.5-1.1,0.9-2,1.7-3.6L-496,382.6z
			 M-496.3,372.8l-0.1,1.1c0.7,0.3,1.9,0.9,2.1,0.7c0.7-0.9,1.2-1.8,1.7-2.8l-0.6-0.4L-496.3,372.8z M-505,400.4
			c-1.2,1.5-1.4,2.9-0.6,5.1C-504.8,403.5-503.1,402.3-505,400.4L-505,400.4z M-485.2,373.2c-0.7,0.9-1.1,1.2-1.2,1.6
			c-0.1,0.5-0.2,1-0.1,1.5c0,0.1,0.7,0.3,0.8,0.2c0.3-0.4,0.6-0.8,0.7-1.3C-484.9,374.5-485,373.9-485.2,373.2L-485.2,373.2z
			 M-572,351.1c-0.7-0.3-1.4-0.5-2.2-0.7c-0.1,0-0.5,0.9-0.4,1.1C-573.9,352.5-573.2,352-572,351.1L-572,351.1z M-524.8,491.7
			l0.2-0.5l-1.6-0.5l-0.2,0.5L-524.8,491.7z"/>
		<path id="Path_2620" d="M-492.9,276.8l0.9,2c-0.6,0.3-1.3,0.6-2.1,0.8c-1.1,0.1-2.3-0.1-3.4-0.2c-4.9-0.2-8.3,2.7-11.3,6.1
			c-0.5,0.8-0.8,1.7-0.9,2.6c0.6,0.2,1.3,0.3,1.9,0.4c2.7-0.2,5.4-0.5,8.1-0.9c5-0.8,9,1.6,12.8,4.3c-1-0.4-2-0.8-3-1.3
			c-5.1-3.3-10.5-1.6-15.9-1c-0.3,0-0.6,0.2-1,0.3c-1.6,0.3-3.6,0.8-4.2-1c-0.3-1.5,0-3.1,1-4.4c1.3-1.6,3.3-2.7,4.8-4.2
			c2.3-2.3,5.3-2.3,8.2-2.4C-495.4,277.7-493.8,278.4-492.9,276.8L-492.9,276.8z"/>
		<path id="Path_2621" d="M-443.4,255.3c-1.3,1.2-2.5,1.3-4.3,0H-443.4z"/>
		<path id="Path_2622" d="M-439.6,255.3c-0.5-0.1-1-0.1-1.5-0.2c0-0.2,0-0.3,0-0.5h1.5V255.3z"/>
		<path id="Path_2623" class="st1" d="M-633.7,377.7l8.7-0.5c3.6,2.7,1.9,6.4,2.3,9.8c-1.2,1.1-2.4,2.3-3.4,3.7
			c-3.1,4.5-2.8,9.3-0.4,13.9c2.7,5.3,7,7.9,13.1,6.8c0.8,0,1.5,0.1,2.2,0.5c0.4,0.2,0.7,0.5,1,0.9c3.7,4.8,8.8,8.2,13.4,12
			c5.1,4.1,10.2,8.4,16.6,10.5c0.7,0.3,1.3,0.7,1.9,1.1c-0.3,1.6-0.4,3.2-0.2,4.8c1,4.2,4.8,7.2,9.2,7.3c1.9,0.2,3.9,0.1,5.8-0.3
			c5.8-1.4,7.1-2.7,9.8-9c3.4-1.2,6.8-2.3,10.3-3.2c5.2-1,9.1-4.1,12.6-7.7c1.6-1.9,3.8-3.2,6.2-3.8c1.9-0.4,3.6-1.7,5.6-2.8
			c-0.1,0.7-0.2,1.3-0.5,2c-2.1,3.9-4.2,7.8-6.3,11.7c-0.7,1.5-2.4,2.3-3.9,1.8c-3.5-0.7-7,0.1-10.5,0.7c-6,1.1-9,7.1-9.7,11.8
			c0,1.1,0.2,2.1,0.5,3.1c-5.1,2.5-10.8,3.7-16.5,3.3c-3.4-0.2-6.8-0.6-10.2-1.1c-3.6-0.7-6.9-2.2-9.7-4.5
			c2-11.2-6.5-24.7-24.5-17.9c-4.1-3.8-8.7-7.1-11-12.7c-0.7-1.3-1.5-2.6-2.5-3.7c-1.8-2.6-3.4-5.4-4.5-8.4
			c-1.5-3.4-3.3-6.7-5.2-9.9c-0.1-0.2-0.6-0.2-0.9-0.3c-1.2,2.5-1.2,2.5,3.1,10.4c-1.9,3-4,5.7-7.9,6.4c-1.9,0.6-3.9-0.1-5-1.7
			c-1.1-1.4-2.4-2.6-3.9-3.7c-3.8-3-7.8-2.2-11.9-0.6c-0.5,0.2-0.9,0.7-1.5,0.9c-7.6,1.9-7.6,12.7-3.7,17.8c1.6,2.2,3.4,4.4,6.5,4.8
			c0.2,0.9,0.3,1.8,0.4,2.7c0,3.6,1.7,6.5,3.4,9.5c0.9,1.5,2.6,2.3,4.3,2c1.7-0.2,3.4-0.4,5-0.4c6,0.1,9.8-2.1,12-7.6
			c0.7-1.7,0.9-3.5,0.6-5.3c-0.8-4.1,1.5-6.9,3.5-9.9c1-1.9,3.2-2.8,5.2-2.2c0.6,1.1,1.2,2.5,2,3.9s1.8,2.6,2.8,4
			c-2.2,2.5-3.3,5.7-3.2,9c0,5.8,5.7,9.6,10.6,9c3.1-0.4,6.4-0.4,9.1-2.5c1.1-0.9,2.1-0.4,3.1,0.3c1.4,1.1,2.8,2.3,4.4,3.3
			c4.1,2.7,8.1,5.4,12.4,7.8c2.5,1.2,5.2,2.1,7.9,2.8c0,0.6-0.1,1.2-0.2,1.7c-0.4,1.7,0.1,3.5,1.3,4.7c1.1,1.2,2,2.5,3.1,3.6
			c3.3,3.4,3.9,7.5,3.2,12.4l-11.7-3.4c-0.2-2.1-0.3-4.3-0.6-6.4c-0.3-3.4-2.6-6.3-5.8-7.4c-2.7-1.3-5.7-1.7-8.7-1.1
			c-0.9,0.2-1.8,0.4-2.7,0.4c-3.4,0.2-6.3,2.4-7.5,5.6c-1.5,3.7-1.5,7.6,1.7,10.8c0.6,0.6,1.1,1.1,1.8,1.9c-0.5,0.5-1.1,0.9-1.6,1.2
			c-6.3,2.7-12.3,6-17.9,9.9c-3.6,2.6-7.9,4-12.4,4.2c-2.2,0-4.3,0-6.7,0c-0.1-0.9-0.1-1.6-0.2-2.4c0-4-2-7.8-5.2-10.2
			c-5-3.9-10.5-3.8-16.1-2.7c-3.3,0.7-3.5,0.8-5.1-2.2c-1.8-3.4-3.6-6.8-5.3-10.3c-0.4-0.7-0.6-1.4-1.1-2.6c2.2,0.2,3.9,0.4,5.7,0.5
			c5.4,0.1,9.8-1.9,12.6-6.6c1.8-3.1,2-6.9,0.5-10.2c-0.3-1-0.9-1.8-1.7-2.5c-3.1-1.9-5.8-4.6-10-4.5c-2.7,0.1-5.4-0.6-8,0.6
			c-1.6,0.6-2.9,1.7-3.8,3.2c-0.6,0.8-1.2,1.6-1.9,2.4c-2.6-4.3-5.5-21.2-5.1-29.7c4.4-1.3,6.7-4.8,8.2-9.1
			c2.3-6.5,1.3-14.2-5.8-16.5c-0.3-0.1-0.5-0.4-1.2-0.9c0.5-2.8,1.1-5.8,1.7-8.7c2.3-11.4,6.2-22.1,13.2-31.5
			c2.6-3.3,5.3-6.5,8.2-9.6c0.8-0.6,1.7-0.9,2.7-0.9c7.3-0.3,11.9-5.1,11.8-12.6c-0.2-1.6,0.5-3.2,1.8-4.1c1.9-1.4,3.6-3.3,5.8-4.2
			c3.3-1.4,4.4-4,4.9-7.2c1.1-6.6,3-13.1,5.7-19.3c0.3-0.6,0.6-1.1,1-1.6c6.1,0.7,11.7-0.6,14.5-6.5c2.9-6.3,3.6-11.6-1.1-17.1
			c3.2-4.4,7.2-8.2,11.7-11.1c6.4-4.4,13.9-5.4,21.2-7.1c1-0.3,2.1,0.1,2.6,1.1c3.8,5.3,9.1,6.8,15.1,3.6c1.8-1.1,4.2-1.2,6-0.1
			c3,1.5,5.8,3.2,8.5,5.1c4.4,3.4,8.4,7.3,11.9,11.7c0.3,0.5,0.6,1,0.8,1.5l-3.5,3.7c-2.2-2-4.3-3.8-6.3-5.8
			c-0.5-0.7-0.9-1.5-1.1-2.4c-0.5-1.2-1-2.5-1.5-3.8c-1.3-3.7-6.8-5-9.6-3.7c-3.2,1.5-6.4,1.2-9.7,1c-4-0.5-8,0.2-11.6,2
			c-0.9,0.4-1.9,0.4-2.8,0c-2-1.1-4.3-1.6-6.6-1.2c-8.9,0.5-11.5,6.6-12.1,12.4c-0.3,3,1.2,5.5,2.7,7.9c0.2,0.4,0.5,0.7,0.7,1.1
			c-0.4,2.8-2.7,5-5.5,5.1c-2.6,0.5-5.1,1.2-7.5,2.3c-5.5,2.2-8.7,6.8-11.2,11.8c-2.5,5.1-3.8,10.7-3.9,16.5
			c-0.1,3.7-0.4,7.7-3.9,10.1c-1.4,1.2-3.1,2.2-5,2.7c-10.9,1.7-16.4,8.8-19.4,18.7c-0.6,1.5-1.6,2.9-2.9,4
			c-0.7,0.6-1.6,0.8-2.5,0.6c-3.1-0.8-5.9,0.4-8.6,1.3c-3,1.2-5.3,3.8-5.9,7c-1.1,4.6-0.5,9.1,3,12.7c0.9,1,1.3,2.4,1.2,3.7
			c0.1,2.9,0.4,5.9,1.1,8.7c0.9,4,5,6.5,9,5.6c1.1-0.3,2.1-0.7,3-1.4c1.8-1.6,4.4-1.9,6.5-0.8c5.1,1.6,10.7,0.1,14.2-4
			c1.9-2.3,2.6-5.4,1.9-8.4C-633.2,380.4-633.5,379.1-633.7,377.7z M-631.8,477.4c7.2,0.2,14.1-5.5,14.3-14.6c0-2.6-3-7.2-5-7.7
			c-2.3-0.6-4.6-1.1-6.9-1.6c-3.7-0.8-7.6,0.3-10.3,3c-2.8,2.4-3.3,5.5-3.9,8.7c-0.6,2.6,0,5.3,1.8,7.3c1.5,1.8,3.3,3.3,5.4,4.4
			C-635,477.7-633,477.3-631.8,477.4z"/>
		<path id="Path_2624" class="st1" d="M-308.5,464.3l-3.1,5.5l-0.4-0.1v-1.6c-0.3,0-0.6-0.1-0.7,0c-7.6,8.1-14.4,17-20.3,26.4
			c-3.1,4.9-6.4,9.7-9.7,14.4c-1,1.2-2.3,2.2-3.7,2.9c-1.4,0.9-3.2,1.4-4.5,2.3c-6.2,4.2-13.3,7-20.7,8.3c-2.8,0.6-5.9,0.2-8.8,0.5
			c-5.9,0.7-11.7,1.7-17.5,2.4c-2.1,0.2-4.3,0.2-6.5,0.2c-1.6,0-3.2-0.2-4.7,0c-5.2,0.4-10.4,1.1-15.6,1.5c-3.2,0.2-6.4-0.1-9.5,0
			c-3.9,0-7.9,0.1-11.8,0.4c-1.8,0.2-3.5,0.7-5.2,1.4c-2.7,1.1-4.9,0.4-7.2-1.5c1.2-6,2.8-11.9,4.8-17.7c1.4,0,2.7,0.1,4,0
			c3.6-0.3,7.2-0.6,10.9-1c1.8-0.2,3.6-0.6,5.1,0.9c2.5-1.1,4.3-2.4,3.6-5.5c-0.1-0.6,0-1.1,0.3-1.6c3-7.3,5.9-14.5,9-21.7
			c0.2-0.3,0.4-0.6,0.6-0.9c4.5-0.3,9-0.6,13.5-0.9c8.4-0.6,16.8-1.1,25.2-1.7c5.4-0.4,10.9-0.8,16.3-1.3c7.7-0.8,15.4-1.5,23-2.6
			c5.6-0.9,11-2.7,16.6-3.6c5.9-0.9,11.1-3.9,16.6-5.8L-308.5,464.3z"/>
		<path id="Path_2625" class="st1" d="M-433.3,503c-0.2-1.1-0.6-2.1-0.7-3.2c-0.8-5.6-1.5-11.2-2.3-16.8c-0.7-4.9-1.1-9.9-2-14.8
			c-1.4-6.7-2.4-13.4-3-20.2c-0.2-3-1.5-5.9-2-8.9c-1-6.1-1.8-12.1-2.7-18.2c-0.8-5-1.8-10.1-2.7-15.1c-0.9-5.2-1.7-10.3-2.6-15.5
			c-0.7-4.1-1.7-8.2-2.4-12.4c-1.6-8.8-3.1-17.7-4.6-26.5c-0.8-4.6-1.6-9.1-2.4-13.7c-1-5.1-1.6-10.3-2-15.5c0-1.8-0.4-3.6-1.2-5.2
			c-0.6-1-0.9-2.1-1-3.2c0.1-2.8-1.8-5-2.3-7.6c-0.2-0.8-0.6-1.8-0.3-2.5c2.2-6.1,1.7-12.6,2.5-18.9c0.9-6.4,1.7-12.8,2.8-19.2
			c2.2,4.5,3.7,9.3,4.7,14.2c1.3,5.5,2.3,11.1,3.5,16.7c1.5,7.2,3.1,14.4,4.6,21.7c1.6,7.6,3.1,15.1,4.6,22.7
			c1.3,6.9,2.5,13.9,3.8,20.8c0.7,3.9,1.5,7.8,2.4,11.7c1.2,5.9,2.6,11.8,3.8,17.7c1.7,8.7,3.4,17.4,5.1,26.1
			c1.3,6.7,2.5,13.4,3.7,20.1c0.3,1.9,0.4,3.8,0.6,5.8c0.3,2.8,0.6,5.6,1,8.4c0.6,4.7,1.2,9.4,1.9,14.2c0.4,2.8,1.1,5.5,1.4,8.3
			c0.1,1.3-0.1,2.7-0.6,3.9c-0.8,2.2-1.9,4.4-2.8,6.6c-2.6,6.2-5.2,12.5-7.8,18.7L-433.3,503z"/>
		<path id="Path_2626" class="st1" d="M-227.3,343.7c-0.8,3.5-2.1,6.8-4.1,9.9c-4.3,7.7-8.9,15.3-12.9,23.2
			c-4.7,9.3-10.2,18.3-16.3,26.7c-2.1,3-4.5,5.8-7,8.4c-0.1,0.2-0.3,0.3-0.5,0.4c-4.9,2.3-9.3,5.5-14.7,6.9
			c-1.9,0.5-3.6,1.2-5.5,1.7c-2.5,0.7-5,1.3-7.4,1.9c-0.7-1.3-1.2-2.2-1.7-3c-1.6-3-4-5.5-6.9-7.3c-1.9-1.3-3.6-2.7-5.2-4.3
			c-1-1.1-2.2-2-3.4-2.8c-3.9-2.1-4.3-5.9-4.9-9.6c-0.5-3.7,0.5-7.4,2.8-10.3c2-2.5,4.8-4.3,7.9-5.1c3.5-1.1,7-2,10.5-2.9
			c8.2-2.2,16.5-4.1,24.6-6.7c7.1-2.1,13.8-5.3,19.9-9.6c2.3-1.7,4.8-3.1,7.4-4.3c5.1-2.5,9.8-5.8,13.8-9.9
			C-230,345.9-228.8,345-227.3,343.7z"/>
		<path id="Path_2627" class="st1" d="M-678.1,460.9c0.6,1.4,1.2,2.8,1.9,4.1c3.2,6.1,6.3,12.3,9.6,18.4c0.8,1.2,1.8,2.4,2.8,3.4
			c1.6,1.9,3.2,3.8,4.7,5.8c1.4,1.8,3.3,3.1,5.5,3.8c0.8,0.2,1.5,0.4,2.2,0.7c4.2,2.2,8.7,2.3,13.3,2.2c1.5,0.1,2.9,0,4.4-0.1
			c3.3-0.5,6.6-1.1,10.3-1.8c0.1,2.6,0.3,5.5,0.3,8.4c-0.1,4.1-0.5,8.2-0.8,12.2c-0.2,2.6-0.4,2.9-3.1,2.8c-3.1,0-6.1-0.3-9.2-0.4
			c-4.7-0.1-9.5-0.3-14.3-0.3c-5.4-0.1-10.8,0.4-16.3-0.5c-2.9-0.2-5.9-0.3-8.8-0.2c-2.7-0.1-3.7-1-3.7-3.7
			c-0.1-12.3-0.1-24.5-0.1-36.8c0-4.9,0.2-9.7,0.3-14.6c0-1.1,0.2-2.2,0.2-3.3L-678.1,460.9z"/>
		<path id="Path_2628" class="st1" d="M-568,351.3l-2.5,0.2c0-0.6,0.2-1.4,0-1.6c-0.9-0.9-1.9-2.2-3-2.4c-0.9-0.1-2.3,0.9-2.9,1.8
			c-1,1.4-1,3.4,0.2,4.8c1.4,1.3,1.5,3.4,0.2,4.8c-0.1,0.2-0.3,0.3-0.5,0.4c-0.4,0.4-1,0.8-1.4,0.7c-2.7-0.9-3.5,1.6-4.9,2.8
			c-1.1,1-2.2,2-3.4,2.9c-0.9,1.8,1.3,2.1,1.9,3.4c-2.2,3.7-5.8,4.1-9.5,3.7c-1.8-0.2-3.6-0.7-5.2-1.4c-2.8-1.1-5.6-2.3-8.6-3.6
			c0.7-0.9,1.6-2.1,2.4-3.2c3.4-4.6,6.6-9.4,7.3-15.2c0.4-4,0.4-7.9,0.1-11.9c-0.2-3.5-0.9-7-1.3-10.5c-0.1-1.1-0.1-2.1,0-3.2
			c5.3-1.1,10.2-3.6,14.1-7.4c0.9-0.9,1.7-1.8,2.6-2.7c1.5-1.6,2.8-1.7,3.9,0.1c3,5,6.3,10,5,16.5c-0.5,2.7-0.6,5.5-0.1,8.2
			c0.7,2.9,1.6,5.6,2.9,8.3C-569.9,348.3-569,349.8-568,351.3z M-577.7,326.2c-2.2-2-2.9-2.1-5.2-0.7c-6.4,4-9,10.2-10.7,17.1
			c0,0.4,0.1,0.7,0.2,1.1c1.6-2.4,2.9-4.9,4.1-7.5C-586.7,331.4-583.9,326.8-577.7,326.2L-577.7,326.2z M-581,346.4
			c0.4-2.2,0.7-4.3,1.1-6.7c-1.1,1.4-2.3,2.7-3.7,3.9c-1.3,0.7-2.7,1.3-4.2,1.8c-0.4,0.3-0.7,0.8-0.8,1.3c0,0.2,0.5,0.8,0.9,0.8
			c0.9,0.1,1.8,0.1,2.6-0.1C-583.6,347.1-582.2,346.7-581,346.4L-581,346.4z"/>
		<path id="Path_2629" class="st1" d="M-479.8,397.1c1.5,0.5,2.9,1.1,4.3,1.9c2.8,1.7,5,3.7,5.2,7.6c0.3,6.2,1.5,12.4,2.2,18.6
			c0.6,4.7,0.8,9.5,1.6,14.2c1.8,11.4,3.9,22.8,5.7,34.3c1.1,6.8,1.7,13.7,2.7,20.6c0.7,4.6,1.8,9.1,2.6,13.7
			c0.1,0.8,0.1,1.6-0.1,2.3c-1.5,5.2-3.2,10.4-4.8,15.6c0,0.1-0.3,0.2-0.8,0.5c-0.5-3.2-0.9-6.3-1.5-9.4c-0.4-2.6-1-5.1-1.5-7.7
			c-0.3-1.8-0.6-3.6-0.9-5.4c-0.5-3.8-0.9-7.7-1.5-11.5c-1.7-10.9-3.5-21.8-5.1-32.7c-1-7-1.4-14-2.2-21c-0.2-1.8-0.7-3.6-0.9-5.3
			c-1-7.1-1.9-14.2-2.9-21.3c-0.5-3.7-1.1-7.4-1.7-11.1C-479.5,399.9-479.6,398.8-479.8,397.1z"/>
		<path id="Path_2630" class="st1" d="M-548.3,542.4c0.7-2.2,0.7-4.1-0.7-5.7c-0.3-0.4-0.2-1.3-0.2-1.9c0.2-1.4,0.4-2.7,0.8-4
			c3-12.2,2.9-25-0.2-37.2c-1.1-4.2-2.5-8.3-3.7-12.4c-0.9-3-2.7-5.6-5.2-7.4c-2.6-2-4.8-4.8-8.1-5.5c-3.1-0.6-4.9-2.6-6.9-4.7
			c-1.1-1-1.4-2.7-0.6-4c0.8-1.8,2.1-1.2,3.5-1.2c2.6,0.3,5.2,0.4,7.8,0.1c2.9-0.4,5.9-0.1,8.7,0.8c1.7,0.7,3.2,1.6,4.6,2.7
			c4.1,2.8,7.1,6.9,8.4,11.6c2.9,9.5,3.2,19.1,2.5,29c-0.5,7.9-3.2,15.3-4.9,22.9c-0.8,2.5-1.8,4.9-3,7.2c-1.1,2.6-1.5,4.8,1.1,7
			c1.4,1.2,2.2,3.1,3.3,4.7c1.5,2.2,3,4.4,4.8,6.9C-541.5,549.8-543.4,544.1-548.3,542.4z"/>
		<path id="Path_2631" class="st1" d="M-268.2,416.4c-1.4,2.7-2.8,5.4-4.2,8.1c-4.6,8.7-9.1,17.6-13.9,26.2
			c-4.8,8.5-9.9,16.8-14.9,25.3c-0.5,0.6-0.8,1.4-1.1,2.1c-1,4.3-4.4,4.9-8.5,5.3c2-4.4,3.8-8.4,5.6-12.3c3.2-7,6.2-14.1,9.6-21
			c1.8-3.4,2.8-7.2,3-11c0.1-1.2,0.6-2.4,1.3-3.5c1.8-2.9,3.1-6.1,3.6-9.5c0.2-2,1.8-3.6,3.8-3.8c3.4-0.5,6.6-1.9,9.2-4
			c1.6-1.3,3.9-1.7,5.9-2.5L-268.2,416.4z"/>
		<path id="Path_2632" class="st1" d="M-624.1,522.7c1.2,3.3-0.4,6.7,0.4,10.4c-1.7,0.1-3.4,0.2-5.1,0.2c-7.2-0.5-14.3,0.3-21.4,0.6
			c-4.6,0.2-9.3-0.1-13.9-0.2c-2.6,0-5.1,0.2-7.7,0.1c-2.1-0.1-4.2-0.5-6.7-0.8l-0.8-9.9c1.6-0.4,3.1-0.6,4.7-0.7
			c4.1,0,8.1,0.4,12.1,0.4c6.8,0,13.6,0.5,20.4-0.4c0.2,0,0.5-0.1,0.7,0C-635.7,522.5-630,522.6-624.1,522.7z"/>
		<path id="Path_2633" class="st1" d="M-601.3,405.9c2.9,5.7,7.3,8.3,13.2,7.2c6.8-1.3,11.6-5.1,12-13.1l7.8-0.4
			c-0.9,4.2-2.2,7.9-2.3,11.6s1.1,7.5,1.8,11.5c-6.8-0.9-11.8,1.7-14.5,7.9c-5.2-1.7-21.1-14.4-26.6-21.2
			C-607.1,408-604.7,406.2-601.3,405.9z"/>
		<path id="Path_2634" class="st1" d="M-540.4,433.1c-1-2.3-2-4.1-2.7-5.9c-2.2-5.6-6.9-8.6-11.8-11.3c-2.8-1.5-6-0.9-9-0.3
			c-1.1,0.2-2.1,0.3-3.4,0.5c-0.7-4-0.4-8.2,1-12.1c0.9-2.8,3.7-4.6,6.6-4.2c5,0.5,9.9,1.4,14.1,4.5c0.7,0.4,1.3,0.9,1.8,1.5
			c2.6,3.8,6.4,6.9,8,11.4c0.9,2.5,1.7,5.1,2.3,7.8c0.4,1.8-0.4,3.7-1.9,4.8C-537.1,430.8-538.6,431.8-540.4,433.1z"/>
		<path id="Path_2635" class="st1" d="M-637.9,376.8c-5,1.4-7.7,5-10.8,8.1c-2,2-3.9,4.2-5.9,6.1c-1.1,1-2.3,1.8-3.7,2.3
			c-2.5,0.9-4.3,0-5.8-2.3c-1.8-2.9-2.4-6.4-1.8-9.8c0.6-4.5,1.3-8.9,4.7-12.5c1.9-2.3,3.5-4.7,5-7.3c0.7-1,1.4-2,2.3-3.3
			c2.2,4,1.9,8.8,5.4,11.5C-645.2,372.2-641.7,374.3-637.9,376.8z"/>
		<path id="Path_2636" class="st1" d="M-469.9,580.9l-4.4,0.3c-0.7-1.8-0.7-3.8,0.1-5.6c2.2-6.2,4.4-12.4,6.4-18.7
			c2.2-7.1,4.2-14.4,6.4-21.5c0.6-2.1,1.4-4,2.1-5.8l11.2,1.1C-454.4,547.7-462.7,563.9-469.9,580.9z"/>
		<path id="Path_2637" class="st1" d="M-630.7,411l3.3,5.5c-2.4,3.4-4.8,6.8-7.1,10.2c-3.6,5.3-7.8,10-12.6,14.3
			c-1.3,0.9-2.7,1.6-4.2,2.1c-2.3-2.3-3.7-5.3-3.8-8.6c0-4.5,1.1-9,3-13.2c1-3.1,4.2-4.9,7.3-4.2c1.7,0.2,3.4,0.3,5,0.1
			C-636,416.8-632.6,414.4-630.7,411z"/>
		<path id="Path_2639" class="st1" d="M-630.1,585c-3.8,0.2-4.1,0.1-4.3-2.8c-0.5-7.7-0.9-15.4-1.4-23.1c-0.4-5.7-0.9-11.3-1.2-17
			c-0.5-7.8-0.2-6.6,6.3-6.9c1-0.1,2,0.1,3.4,0.2c0.1,1.8,0.1,3.7,0,5.5c-1.7,11.5-1.5,23.1-1.7,34.7
			C-629.2,578.6-629.8,581.7-630.1,585z"/>
		<path id="Path_2640" class="st1" d="M-675.9,536.7h9.4c-0.7,7.7-1.4,14.9-2.1,22.1c-0.8,7.7-1.6,15.4-2.5,23
			c0,0.9-0.3,1.8-0.7,2.6c-0.3,0.5-1.1,0.7-2.2,1.3c-0.2-3.9-0.4-7.3-0.7-10.7c-0.4-5.7-1-11.3-1.2-17
			C-676.2,551-677.2,544-675.9,536.7z"/>
		<path id="Path_2641" class="st1" d="M-532.1,445c0.7,11.2-0.6,22.4-3.8,33.2c-0.4-1-0.9-1.9-1.3-2.9c-2.1-4.8-3.6-9.7-3-15.1
			c0.1-2.3,0-4.5-0.4-6.8c-0.3-1.2,0.2-2.5,1.2-3.3C-537.2,448.7-535,447.1-532.1,445z"/>
		<path id="Path_2642" class="st1" d="M-467.8,412c6-0.7,12.2-0.5,18.2,0.5l1,5.6c-0.3,0.4-0.4,0.7-0.5,0.7
			c-5.2,0.4-10.4,0.8-15.5,1c-2.2,0.1-2.6-0.4-2.9-2.5C-467.7,415.7-467.7,414-467.8,412z"/>
		<path id="Path_2643" class="st1" d="M-463.3,446.5c-0.4-2.2-0.7-4.3-1-6.5c0.4-0.3,0.7-0.7,1.1-0.7c6-1.1,11.9-0.1,17.8,1
			c0.4,2.1,0.8,3.9,1.2,6.2H-463.3z"/>
		<path id="Path_2644" class="st1" d="M-465.1,431.2c1.1-1.2,2.7-1.7,4.3-1.5c2.9,0.3,5.9,0.4,8.8,0.5c0.9,0.1,1.8,0.1,2.7,0.2
			c1.6-0.1,2.9,1.2,2.9,2.7c0,0.1,0,0.2,0,0.3c0,1.1,0.1,2.2,0.2,3.8h-18.6c-0.1-0.9-0.3-2-0.4-3.1
			C-465.1,433.2-465.1,432.2-465.1,431.2z"/>
		<path id="Path_2645" class="st1" d="M-464.1,524.4c0.5,3.6,1.8,7.1,0.5,10.9c-1.9,5.4-3.1,10.9-4.9,16.3
			c-1.9,5.9-4.1,11.7-6.3,17.5C-472.8,553.9-469.2,538.9-464.1,524.4z"/>
		<path id="Path_2646" class="st1" d="M-446.9,427.9l-18.4,0.9c-0.4-2.5-0.8-4.8-1.3-7.6c6.3-0.2,12.2,0.1,18.4,0.4
			C-447.7,423.6-447.4,425.6-446.9,427.9z"/>
		<path id="Path_2647" class="st1" d="M-461.4,455.6c-0.3-0.8-0.6-1.7-0.8-2.6c-0.3-1.4-0.5-2.9-0.7-4.7c6.4-0.5,12.6,0.5,18.8,0.9
			c1.3,1.7,1.1,3.6,1,5.7L-461.4,455.6z"/>
		<path id="Path_2648" class="st1" d="M-451.5,403.2l1.2,6l-17.8,1.2c-0.3-2.4-0.6-4.4-0.8-6.4
			C-463.2,402.8-457.3,402.5-451.5,403.2z"/>
		<path id="Path_2649" class="st1" d="M-460.5,353.3c-5.1-0.2-10.1,1.6-15.5,0.9l-0.8-7.4c0.9-0.3,1.8-0.5,2.8-0.6
			c3.3-0.1,6.6-0.1,9.9-0.1c2.6,0,2.7,0.1,3.3,2.8c0.2,0.8,0.3,1.6,0.4,2.3C-460.4,351.9-460.4,352.6-460.5,353.3z"/>
		<path id="Path_2650" class="st1" d="M-478.5,337.4h15.2c1.3,1.6,1,3.8,1.2,6.1c-4.1,1.2-8.4,1.8-12.8,1.7
			c-1.2,0.2-2.3-0.7-2.5-1.9C-477.8,341.7-478,339.9-478.5,337.4z"/>
		<path id="Path_2651" class="st1" d="M-460.2,463.6c-0.4-2-0.8-3.8-1.2-5.8c0.7-0.4,1.4-0.7,2.2-0.8c4.3-0.1,8.6-0.2,12.9-0.2
			c3.7,0,4.2,0.5,4.3,4.3c0,0.4-0.1,0.8-0.2,1.2L-460.2,463.6z"/>
		<path id="Path_2652" class="st1" d="M-439.9,473.1l0.2,4.8c-4,1.1-15.3,1.1-18.4,0c-0.2-1.8-0.4-3.6-0.7-6L-439.9,473.1z"/>
		<path id="Path_2653" class="st1" d="M-313.4,483.9c-0.6-0.5-1.1-0.6-1.1-0.9c-1.1-3.2-1.1-6.7-0.1-10c0.1-0.4,0.5-0.9,0.9-1
			c4.1-0.6,4.6-4.3,5.7-7.2c0.7-1.9,1.9-3.6,3.5-4.8c1.7-1.4,3.1-3.3,4.9-4.7c-1.5,5.1-4.3,9.5-6.7,14.1
			C-308.9,474.1-311,479-313.4,483.9z"/>
		<path id="Path_2654" class="st1" d="M-463.8,334.5c-4.9,1.2-9.6,2.2-14.7,1.2c-0.2-2.3-0.4-4.4-0.6-6.6c4.6-1.2,9-0.8,13.4-0.6
			c1.1,0,1.9,0.9,1.9,1.9v0.1C-463.7,331.7-463.8,333-463.8,334.5z"/>
		<path id="Path_2655" class="st1" d="M-459,470.8l-0.9-5.4c6.3-2.2,12.4,0.2,18.6-0.5c0.4,1.9,0.7,3.5,1.1,5.4
			c-3.3,0.2-6.3,0.4-9.4,0.4C-452.7,470.8-455.7,470.8-459,470.8z"/>
		<path id="Path_2656" class="st1" d="M-439.2,480.5l0.8,4.5c-2.7,1.3-11.5,1.9-18.6,1.2c-0.2-1.8-0.3-3.6-0.5-5.7H-439.2z"/>
		<path id="Path_2657" class="st1" d="M-465.4,318.4c-4.9,1.2-10.1,1.4-15.1,0.8l-0.6-6.6h14.4L-465.4,318.4z"/>
		<path id="Path_2658" class="st1" d="M-474.6,362.3c-2.1-5.8-1.6-6.8,4-7c3.5-0.1,6.9,0.1,10.6,0.2l1,5.7L-474.6,362.3z"/>
		<path id="Path_2659" class="st1" d="M-471.7,379.4c5.7-0.2,10.8-2.3,16.1,0.9l1.5,5.9c-3.4,0.1-6.3,0.3-9.2,0.2
			c-1-0.2-1.9-0.7-2.6-1.5C-467.7,383.4-469.4,381.6-471.7,379.4z"/>
		<path id="Path_2660" class="st1" d="M-437.8,495.8l0.5,4.5l-16.9,0.9c-0.3-0.3-0.5-0.7-0.7-1.1c-1.1-4.2-0.4-5.2,3.8-5.3
			c1.6,0,3.2,0.1,4.7,0.3c1.5,0.1,2.9,0.5,4.4,0.6C-440.7,495.9-439.3,495.8-437.8,495.8z"/>
		<path id="Path_2661" class="st1" d="M-455.9,493.3c-0.1-1.5-0.2-3-0.4-5c6.1-0.9,11.9,0.2,18.2-0.1c0.1,1.7,0.3,3.2,0.4,5h-18.2
			V493.3z"/>
		<path id="Path_2662" class="st1" d="M-453.3,393.5l-17.3,0.9l-1.7-6.8c1.6-0.8,2,0.2,2.5,0.8c2.1,2.4,2.7,2.5,5.1,0.8
			c1-0.8,2.2-1.1,3.4-0.9c1.6,0.1,3.2,0.1,4.7,0c2.6-0.1,3,0.2,3.2,2.7C-453.3,391.9-453.3,392.7-453.3,393.5z"/>
		<path id="Path_2663" class="st1" d="M-452.5,395.9l0.5,4.4c-2.7,0.3-5.3,0.7-7.8,0.9c-2.6,0.1-5.2,0-8,0c-0.5-1.5-1-3.2-1.6-5.2
			C-463.8,395.1-458.1,395-452.5,395.9z"/>
		<path id="Path_2664" class="st1" d="M-474.4,363.5c5.2-1.2,10.4,1.3,15.6,0.1c1.1,2.3,1.5,4.9,1.1,7.4c-2.4,0-4.8,0-7.1,0
			c-0.5,0-1.1-0.2-1.4-0.6c-1.5-2.7-4.3-3.5-6.8-4.8c-0.5-0.3-1.1-0.7-1.6-1.1L-474.4,363.5z"/>
		<path id="Path_2665" class="st1" d="M-479.8,326.6v-5.4h15.1l0.4,4.8C-469.6,326.2-474.5,328.6-479.8,326.6z"/>
		<path id="Path_2666" class="st1" d="M-456.1,376.9c-1.7,0.2-2.9,0.3-4.1,0.4c-3,0.3-6.1,0.7-9.1,0.7c-3.3,0.1-3.9-0.7-4.2-4.4
			c5.3-1.5,10.7-1.3,16.5-0.6C-456.7,374.2-456.4,375.5-456.1,376.9z"/>
		<path id="Path_2667" class="st1" d="M-453.9,502.7c0.9-0.2,1.7-0.2,2.6-0.3c4.5,0.2,9,0.4,13.5,0.8c1.7,0.1,2.9,0.9,2.1,3.1
			c-4.9,1.6-9.9,1.3-15,0.9C-453.5,506.9-453.8,506.2-453.9,502.7z"/>
		<path id="Path_2670" class="st1" d="M-471.6,468.2c-0.6,0.5-0.8,0.8-1.1,0.8c-4.3,0.9-6.9,4-9.2,7.5c-1.3,2-1.9,2.4-3.4,1.6
			c-1.6-0.7-2.3-2.6-1.5-4.2c0-0.1,0.1-0.1,0.1-0.2c1-1.8,2.5-3.2,4.4-4C-479,468-475.3,467.4-471.6,468.2z"/>
		<path id="Path_2671" class="st1" d="M-474,454.7c-2.1,0.9-4,1.6-5.9,2.3c-1.3,0.5-2.6,0.9-3.8,1.3c-1.5,0.4-3,0-4.1-1
			c-1.2-0.8-1.7-2.3-1.2-3.6c0.6-0.9,1.5-1.5,2.6-1.8c0.9-0.2,1.8-0.1,2.6,0.1c2.7,0.4,5.3,0.9,8,1.1
			C-474.6,453.3-473.9,453.4-474,454.7z"/>
		<path id="Path_2672" class="st1" d="M-484.2,370.4h7.7c0.7,2.7,1.4,5.4,2.1,8.3c-2.6,0.1-5.2-0.3-7.7-1.2
			c-0.5-0.2-0.9-0.6-1.1-1.2C-483.6,374.5-483.8,372.6-484.2,370.4z"/>
		<path id="Path_2673" class="st1" d="M-475.8,441.2c-2.7-0.9-4.9-1.5-7.1-2.4c-2.5-1.1-4.5-3.1-5.7-5.5c-0.4-0.9-0.5-2-0.2-3
			c0.2-0.8,1.1-2,1.8-2c0.9,0.2,1.7,0.8,2,1.7c0.5,2.1,1.5,4,2.9,5.6c1.5,1.9,2.9,3.7,5.5,4.1C-476.4,439.8-476.2,440.6-475.8,441.2
			z"/>
		<path id="Path_2675" class="st1" d="M-468,309.5c-5.1,1.1-10.1,2-15.5,0.7l0.2-3.3C-478,307.8-472.8,306.5-468,309.5z"/>
		<path id="Path_2678" class="st1" d="M-517.8,419.7c0-2.4-0.3-4.8-0.7-7.1c-0.8-2.7,0.2-4.8,1.2-7c3.3,0.7,3.3,2,2.6,4.3
			C-515.7,412.9-516.6,416-517.8,419.7z"/>
		<path id="Path_2679" class="st1" d="M-481.1,384.6l6.2,1.6c0.5,2,1,3.9,1.7,6.3c-2.3-0.9-4.5-2-6.7-3.2
			C-481.4,388.4-480.8,386.6-481.1,384.6z"/>
		<path id="Path_2680" class="st1" d="M-294.3,425.9l5.3-1.1c-0.2,3.1-1.7,5.3-3.6,8.2C-293.2,430.3-293.7,428.3-294.3,425.9z"/>
		<path id="Path_2681" class="st1" d="M-485.9,371.4l-2.7,4.8l-3.7-0.8C-491.5,370.9-490.4,370.1-485.9,371.4z"/>
		<path id="Path_2682" class="st1" d="M-534.9,488.1l-0.4-3.6c2.9,1,5.5,2.6,7.6,4.8L-534.9,488.1z"/>
		<path id="Path_2683" class="st1" d="M-495.9,382.6l4.9-1.3c-0.7,1.6-1.1,2.5-1.7,3.6L-495.9,382.6z"/>
		<path id="Path_2685" class="st1" d="M-505,400.4c1.9,1.9,0.2,3.1-0.6,5.1C-506.4,403.3-506.2,401.9-505,400.4z"/>
		<path id="Path_2687" class="st1" d="M-572,351.1c-1.2,0.9-1.9,1.4-2.5,0.3c-0.1-0.2,0.3-1.1,0.4-1.1
			C-573.4,350.6-572.7,350.8-572,351.1z"/>
		<path id="Path_2688" class="st1" d="M-524.8,491.7l-1.6-0.6l0.2-0.5l1.6,0.5L-524.8,491.7z"/>
		<path id="Path_2689" d="M-631.8,477.4c-1.1-0.1-3.2,0.3-4.7-0.5c-2.1-1.1-3.9-2.6-5.4-4.4c-1.8-2-2.5-4.7-1.8-7.3
			c0.6-3.3,1.1-6.3,3.9-8.7c2.7-2.6,6.6-3.8,10.3-3c2.3,0.5,4.6,1,6.9,1.6c1.9,0.5,5,5.1,5,7.7C-617.7,472-624.7,477.7-631.8,477.4z
			"/>
		<path id="Path_2690" d="M-577.7,326.2c-6.2,0.6-9,5.2-11.5,10.1c-1.2,2.6-2.6,5.1-4.1,7.5c-0.1-0.3-0.2-0.7-0.2-1.1
			c1.6-6.9,4.3-13.2,10.7-17.1C-580.6,324.1-579.9,324.2-577.7,326.2z"/>
		<path id="Path_2691" d="M-581,346.4c-1.2,0.3-2.6,0.7-4,1c-0.9,0.1-1.7,0.2-2.6,0.1c-0.3,0-0.9-0.6-0.9-0.8c0.1-0.5,0.3-1,0.8-1.3
			c1.4-0.5,2.8-1.1,4.2-1.8c1.3-1.2,2.6-2.5,3.7-3.9C-580.3,342.1-580.7,344.1-581,346.4z"/>
	</g>
	<path class="st1" d="M206.2,225.5"/>
	<line class="st2" x1="205.8" y1="225.8" x2="204.1" y2="228.6"/>
	<g id="Layer_3">
	</g>
</g>
</svg>
